{"glyphs":{"0":{"ha":904,"x_min":56,"x_max":848,"o":"m 452 -22 q 287 14 360 -22 q 162 116 213 50 q 83 277 111 182 q 56 491 56 372 q 84 704 56 610 q 162 864 111 798 q 287 966 214 930 q 452 1001 361 1001 q 617 966 544 1001 q 742 865 690 930 q 820 705 793 799 q 848 492 848 610 q 821 278 848 373 q 742 116 793 183 q 618 14 691 50 q 452 -22 545 -22 m 452 142 q 531 165 496 142 q 590 233 566 189 q 627 342 614 277 q 640 491 640 408 q 627 638 640 574 q 589 747 614 703 q 530 814 565 791 q 452 837 496 837 q 374 814 409 837 q 315 747 340 791 q 278 638 291 703 q 264 491 264 574 q 277 343 264 408 q 315 233 290 278 q 374 165 339 189 q 452 142 408 142 z "},"1":{"ha":667,"x_min":60,"x_max":517,"o":"m 314 791 l 310 791 l 60 618 l 60 803 l 313 979 l 517 979 l 517 0 l 314 0 l 314 791 z "},"2":{"ha":838,"x_min":58,"x_max":781,"o":"m 58 684 q 84 812 58 753 q 158 912 111 870 q 273 977 206 954 q 419 1000 339 1000 q 561 979 496 1000 q 670 920 625 958 q 742 830 716 882 q 767 718 767 779 q 753 631 767 671 q 713 551 739 590 q 653 475 688 513 q 578 397 618 437 l 339 167 l 339 163 l 781 163 l 781 0 l 69 0 l 69 138 l 438 493 q 500 559 475 530 q 540 613 525 588 q 561 661 555 637 q 568 709 568 684 q 556 761 568 736 q 524 803 545 785 q 475 831 503 821 q 412 841 446 841 q 346 829 376 841 q 294 797 316 817 q 260 747 273 776 q 248 684 248 718 l 248 681 l 58 681 l 58 684 l 58 684 z "},"3":{"ha":875,"x_min":54,"x_max":814,"o":"m 307 575 l 426 575 q 490 585 461 575 q 539 613 519 595 q 571 656 560 631 q 583 711 583 681 q 542 807 583 771 q 425 843 501 843 q 359 833 389 843 q 309 804 330 823 q 276 759 288 785 q 261 701 263 733 l 73 701 q 102 824 75 769 q 176 919 129 880 q 289 979 223 958 q 433 1000 354 1000 q 572 982 509 1000 q 681 929 635 963 q 751 846 726 895 q 776 739 776 798 q 761 656 776 694 q 720 588 747 618 q 656 539 693 559 q 574 511 618 519 l 574 507 q 673 484 629 502 q 748 435 717 465 q 797 363 780 404 q 814 271 814 321 q 785 151 814 205 q 706 59 757 97 q 584 -1 655 20 q 429 -22 513 -22 q 278 0 346 -22 q 162 61 210 22 q 85 157 113 101 q 54 280 57 212 l 250 280 q 302 180 254 218 q 431 143 350 143 q 502 153 470 143 q 557 182 534 163 q 593 227 580 201 q 606 283 606 252 q 558 389 606 351 q 428 427 511 427 l 307 427 l 307 575 z "},"4":{"ha":900,"x_min":49,"x_max":858,"o":"m 536 174 l 49 174 l 49 349 q 118 474 81 410 q 202 614 155 538 q 308 778 249 689 q 441 979 366 867 l 730 979 l 730 338 l 858 338 l 858 174 l 730 174 l 730 0 l 536 0 l 536 174 m 229 332 l 540 332 l 540 833 l 536 833 q 439 689 482 755 q 358 565 395 624 q 290 451 321 506 q 229 338 258 395 l 229 332 z "},"5":{"ha":868,"x_min":78,"x_max":823,"o":"m 446 -22 q 300 1 367 -22 q 185 63 234 23 q 108 158 136 103 q 78 280 80 214 l 267 280 q 287 223 271 249 q 326 179 302 197 q 380 151 349 161 q 447 140 411 140 q 520 154 487 140 q 577 191 553 167 q 615 248 602 215 q 628 321 628 281 q 615 396 628 362 q 578 454 602 430 q 521 492 554 479 q 448 506 488 506 q 348 482 393 506 q 277 416 302 458 l 94 416 l 142 979 l 764 979 l 764 816 l 302 816 l 280 548 l 284 548 q 371 626 315 597 q 502 655 427 655 q 631 631 572 655 q 732 563 690 606 q 799 458 775 519 q 823 327 823 398 q 796 185 823 249 q 719 75 768 121 q 599 4 669 29 q 446 -22 530 -22 z "},"6":{"ha":893,"x_min":57,"x_max":840,"o":"m 464 -22 q 274 24 358 -22 q 139 158 191 70 q 78 302 98 220 q 57 481 57 383 q 85 699 57 603 q 167 863 114 795 q 296 965 220 930 q 467 1001 372 1001 q 598 981 537 1001 q 707 926 659 962 q 785 840 754 890 q 827 730 817 790 l 625 730 q 603 775 618 755 q 567 809 588 795 q 520 831 546 823 q 466 839 494 839 q 374 815 415 839 q 306 746 334 791 q 264 635 278 701 q 252 487 250 570 l 256 487 q 295 552 271 523 q 354 603 320 582 q 428 635 387 623 q 516 646 469 646 q 645 622 586 646 q 747 554 704 597 q 815 452 791 511 q 840 323 840 393 q 812 184 840 248 q 734 75 784 121 q 615 3 684 29 q 464 -22 546 -22 m 462 141 q 532 155 499 141 q 588 192 564 168 q 626 249 612 216 q 640 317 640 281 q 627 387 640 355 q 590 443 614 419 q 534 479 566 466 q 463 492 501 492 q 392 479 425 492 q 335 443 359 466 q 297 388 311 420 q 283 319 283 357 q 297 250 283 282 q 335 193 311 217 q 391 155 359 169 q 462 141 424 141 z "},"7":{"ha":795,"x_min":43,"x_max":743,"o":"m 541 812 l 541 816 l 43 816 l 43 979 l 743 979 l 743 814 l 335 0 l 120 0 l 541 812 z "},"8":{"ha":906,"x_min":56,"x_max":850,"o":"m 453 -22 q 291 -1 364 -22 q 165 58 218 20 q 85 149 113 96 q 56 265 56 201 q 73 355 56 313 q 120 430 90 397 q 193 486 151 463 q 286 516 235 508 l 286 520 q 208 551 243 530 q 148 601 173 572 q 110 665 123 629 q 96 742 96 701 q 122 845 96 798 q 196 927 149 892 q 309 981 243 962 q 453 1000 374 1000 q 597 981 532 1000 q 710 927 663 962 q 784 845 758 892 q 810 741 810 798 q 796 666 810 701 q 758 601 783 630 q 697 551 732 572 q 620 520 663 530 l 620 516 q 714 485 671 507 q 786 430 756 463 q 833 355 817 397 q 850 264 850 313 q 821 148 850 201 q 740 58 792 96 q 614 -1 687 20 q 453 -22 541 -22 m 453 127 q 527 139 494 127 q 585 171 561 151 q 622 219 609 191 q 635 280 635 247 q 622 341 635 313 q 585 389 609 369 q 527 421 561 410 q 453 433 494 433 q 379 421 412 433 q 321 389 345 410 q 283 341 297 369 q 270 280 270 313 q 283 219 270 247 q 321 171 297 191 q 379 139 345 151 q 453 127 412 127 m 453 582 q 515 592 487 582 q 564 620 544 602 q 596 663 585 638 q 608 717 608 688 q 596 771 608 746 q 564 814 585 796 q 515 842 544 832 q 453 852 487 852 q 391 842 419 852 q 342 814 362 832 q 310 771 321 795 q 298 717 298 746 q 310 663 298 688 q 342 620 321 638 q 391 592 362 602 q 453 582 419 582 z "},"9":{"ha":896,"x_min":54,"x_max":839,"o":"m 428 -22 q 296 -2 357 -22 q 187 54 235 18 q 108 139 140 90 q 66 250 77 189 l 269 250 q 291 205 276 225 q 328 170 307 184 q 375 148 349 156 q 431 140 401 140 q 522 164 482 140 q 590 232 562 187 q 631 343 617 277 q 643 493 645 409 l 641 493 l 640 493 l 639 493 q 601 428 625 457 q 544 377 577 398 q 468 345 510 356 q 378 333 427 333 q 250 357 309 333 q 147 425 191 382 q 78 527 103 468 q 54 656 54 586 q 82 794 54 731 q 160 904 110 858 q 279 975 210 949 q 431 1001 349 1001 q 621 955 536 1001 q 757 822 706 909 q 839 498 839 696 q 811 280 839 376 q 730 117 783 184 q 601 14 677 50 q 428 -22 524 -22 m 432 487 q 503 500 470 487 q 560 537 536 513 q 597 592 584 560 q 611 661 611 623 q 597 730 611 698 q 559 786 583 762 q 503 824 536 810 q 433 838 471 838 q 363 824 395 838 q 306 787 330 810 q 268 731 281 763 q 254 662 254 699 q 267 592 254 624 q 304 537 281 560 q 361 500 328 513 q 432 487 394 487 z "}," ":{"ha":298,"x_min":0,"x_max":0,"o":""},"A":{"ha":958,"x_min":19,"x_max":940,"o":"m 648 237 l 304 237 l 229 0 l 19 0 l 359 979 l 600 979 l 940 0 l 722 0 l 648 237 m 348 391 l 604 391 l 478 791 l 473 791 l 348 391 z "},"À":{"ha":958,"x_min":19,"x_max":940,"o":"m 648 237 l 304 237 l 229 0 l 19 0 l 359 979 l 600 979 l 940 0 l 722 0 l 648 237 m 348 391 l 604 391 l 478 791 l 473 791 l 348 391 m 216 1267 l 401 1267 l 559 1057 l 405 1057 l 216 1267 z "},"Á":{"ha":958,"x_min":19,"x_max":940,"o":"m 648 237 l 304 237 l 229 0 l 19 0 l 359 979 l 600 979 l 940 0 l 722 0 l 648 237 m 348 391 l 604 391 l 478 791 l 473 791 l 348 391 m 399 1053 l 556 1263 l 741 1263 l 553 1053 l 399 1053 z "},"Ä":{"ha":958,"x_min":19,"x_max":940,"o":"m 648 237 l 304 237 l 229 0 l 19 0 l 359 979 l 600 979 l 940 0 l 722 0 l 648 237 m 348 391 l 604 391 l 478 791 l 473 791 l 348 391 m 338 1059 q 301 1066 318 1059 q 273 1085 285 1073 q 253 1113 260 1097 q 246 1147 246 1129 q 253 1182 246 1166 q 273 1210 260 1198 q 301 1229 285 1222 q 338 1236 318 1236 q 374 1229 357 1236 q 403 1210 391 1222 q 422 1182 415 1198 q 429 1147 429 1166 q 422 1113 429 1129 q 403 1085 415 1097 q 374 1066 391 1073 q 338 1059 357 1059 m 622 1059 q 586 1066 602 1059 q 557 1085 569 1073 q 537 1113 545 1097 q 530 1147 530 1129 q 537 1182 530 1166 q 557 1210 545 1198 q 586 1229 569 1222 q 622 1236 602 1236 q 658 1229 642 1236 q 687 1210 675 1222 q 706 1182 699 1198 q 713 1147 713 1166 q 706 1113 713 1129 q 687 1085 699 1097 q 658 1066 675 1073 q 622 1059 642 1059 z "},"Ǟ":{"ha":958,"x_min":19,"x_max":940,"o":"m 648 237 l 304 237 l 229 0 l 19 0 l 359 979 l 600 979 l 940 0 l 722 0 l 648 237 m 348 391 l 604 391 l 478 791 l 473 791 l 348 391 m 341 1230 q 375 1223 359 1230 q 403 1205 391 1216 q 421 1178 414 1194 q 428 1145 428 1162 q 421 1113 428 1128 q 403 1086 414 1097 q 375 1067 391 1074 q 341 1061 359 1061 q 306 1067 322 1061 q 278 1086 290 1074 q 260 1113 267 1097 q 254 1145 254 1128 q 260 1178 254 1162 q 278 1205 267 1194 q 306 1223 290 1216 q 341 1230 322 1230 m 714 1406 l 714 1309 l 245 1309 l 245 1406 l 714 1406 m 618 1230 q 653 1223 637 1230 q 680 1205 669 1216 q 699 1178 692 1194 q 705 1145 705 1162 q 699 1113 705 1128 q 680 1086 692 1097 q 653 1067 669 1074 q 618 1061 637 1061 q 584 1067 600 1061 q 556 1086 568 1074 q 538 1113 545 1097 q 531 1145 531 1128 q 538 1178 531 1162 q 556 1205 545 1194 q 584 1223 568 1216 q 618 1230 600 1230 z "},"Å":{"ha":958,"x_min":19,"x_max":940,"o":"m 648 237 l 304 237 l 229 0 l 19 0 l 359 979 l 600 979 l 940 0 l 722 0 l 648 237 m 348 391 l 604 391 l 478 791 l 473 791 l 348 391 m 479 1026 q 422 1038 449 1026 q 374 1069 395 1049 q 341 1116 353 1089 q 330 1173 330 1143 q 341 1231 330 1204 q 374 1277 353 1257 q 422 1309 395 1297 q 479 1320 449 1320 q 537 1309 510 1320 q 585 1277 565 1297 q 617 1231 606 1257 q 629 1173 629 1204 q 617 1116 629 1143 q 585 1069 606 1089 q 537 1038 565 1049 q 479 1026 510 1026 m 479 1105 q 506 1111 494 1105 q 528 1125 519 1116 q 543 1147 538 1135 q 549 1173 549 1159 q 543 1200 549 1187 q 528 1221 538 1212 q 506 1236 519 1231 q 479 1242 494 1242 q 453 1236 465 1242 q 431 1221 440 1231 q 416 1200 421 1212 q 410 1173 410 1187 q 416 1147 410 1159 q 431 1125 421 1135 q 453 1111 440 1116 q 479 1105 465 1105 z "},"Ǻ":{"ha":958,"x_min":19,"x_max":940,"o":"m 648 237 l 304 237 l 229 0 l 19 0 l 359 979 l 600 979 l 940 0 l 722 0 l 648 237 m 348 391 l 604 391 l 478 791 l 473 791 l 348 391 m 479 1015 q 424 1026 450 1015 q 379 1055 398 1036 q 350 1098 361 1073 q 339 1152 339 1123 q 350 1206 339 1181 q 379 1250 361 1232 q 424 1279 398 1268 q 479 1289 450 1289 q 535 1279 509 1289 q 579 1250 560 1268 q 609 1206 598 1232 q 619 1152 619 1181 q 609 1098 619 1123 q 579 1055 598 1073 q 535 1026 560 1036 q 479 1015 509 1015 m 479 1089 q 525 1107 507 1089 q 543 1152 543 1126 q 525 1197 543 1179 q 479 1215 507 1215 q 434 1197 452 1215 q 416 1152 416 1179 q 434 1107 416 1126 q 479 1089 452 1089 m 663 1457 l 548 1326 l 414 1326 l 494 1457 l 663 1457 z "},"Ã":{"ha":958,"x_min":19,"x_max":940,"o":"m 648 237 l 304 237 l 229 0 l 19 0 l 359 979 l 600 979 l 940 0 l 722 0 l 648 237 m 348 391 l 604 391 l 478 791 l 473 791 l 348 391 m 574 1045 q 533 1052 551 1045 q 499 1069 514 1059 q 471 1091 484 1079 q 447 1114 458 1103 q 423 1131 435 1124 q 399 1137 412 1137 q 365 1115 376 1137 q 353 1057 353 1093 l 245 1057 q 257 1134 245 1100 q 287 1192 268 1168 q 333 1228 307 1216 q 391 1240 360 1240 q 453 1226 427 1240 q 498 1195 478 1212 q 534 1163 517 1177 q 568 1149 550 1149 q 601 1171 590 1149 q 612 1232 612 1192 l 720 1232 q 708 1154 720 1188 q 678 1095 697 1119 q 632 1058 659 1071 q 574 1045 605 1045 z "},"Ằ":{"ha":958,"x_min":19,"x_max":940,"o":"m 648 237 l 304 237 l 229 0 l 19 0 l 359 979 l 600 979 l 940 0 l 722 0 l 648 237 m 348 391 l 604 391 l 478 791 l 473 791 l 348 391 m 721 1255 q 704 1177 721 1213 q 656 1114 687 1141 q 581 1071 625 1086 q 479 1055 536 1055 q 378 1071 423 1055 q 303 1114 334 1086 q 255 1177 272 1141 q 238 1255 238 1213 l 362 1255 q 371 1216 363 1234 q 395 1184 380 1198 q 432 1163 411 1171 q 479 1155 454 1155 q 527 1163 505 1155 q 564 1184 548 1171 q 588 1216 579 1198 q 597 1255 596 1234 l 721 1255 m 429 1280 l 269 1444 l 441 1444 l 572 1280 l 429 1280 z "},"Ǡ":{"ha":958,"x_min":19,"x_max":940,"o":"m 648 237 l 304 237 l 229 0 l 19 0 l 359 979 l 600 979 l 940 0 l 722 0 l 648 237 m 348 391 l 604 391 l 478 791 l 473 791 l 348 391 m 479 1055 q 442 1062 459 1055 q 413 1081 425 1069 q 393 1110 400 1093 q 386 1145 386 1126 q 393 1180 386 1164 q 413 1208 400 1196 q 442 1228 425 1221 q 479 1235 459 1235 q 517 1228 500 1235 q 546 1208 534 1221 q 566 1180 559 1196 q 573 1145 573 1164 q 566 1110 573 1126 q 546 1081 559 1093 q 517 1062 534 1069 q 479 1055 500 1055 m 714 1309 l 245 1309 l 245 1406 l 714 1406 l 714 1309 z "},"Ḁ":{"ha":958,"x_min":19,"x_max":940,"o":"m 648 237 l 304 237 l 229 0 l 19 0 l 359 979 l 600 979 l 940 0 l 722 0 l 648 237 m 348 391 l 604 391 l 478 791 l 473 791 l 348 391 m 479 -393 q 422 -382 449 -393 q 374 -350 395 -370 q 341 -303 353 -330 q 330 -246 330 -277 q 341 -189 330 -216 q 374 -142 353 -162 q 422 -111 395 -122 q 479 -99 449 -99 q 537 -111 510 -99 q 585 -142 565 -122 q 617 -189 606 -162 q 629 -246 629 -216 q 617 -303 629 -277 q 585 -350 606 -330 q 537 -382 565 -370 q 479 -393 510 -393 m 479 -314 q 506 -309 494 -314 q 528 -294 519 -303 q 543 -273 538 -285 q 549 -246 549 -260 q 543 -220 549 -232 q 528 -198 538 -208 q 506 -183 519 -189 q 479 -178 494 -178 q 453 -183 465 -178 q 431 -198 440 -189 q 416 -220 421 -208 q 410 -246 410 -232 q 416 -273 410 -260 q 431 -294 421 -285 q 453 -309 440 -303 q 479 -314 465 -314 z "},"Â":{"ha":958,"x_min":19,"x_max":940,"o":"m 648 237 l 304 237 l 229 0 l 19 0 l 359 979 l 600 979 l 940 0 l 722 0 l 648 237 m 348 391 l 604 391 l 478 791 l 473 791 l 348 391 m 557 1262 l 743 1046 l 592 1046 l 481 1180 l 477 1180 l 367 1046 l 216 1046 l 402 1262 l 557 1262 z "},"Ậ":{"ha":958,"x_min":19,"x_max":940,"o":"m 648 237 l 304 237 l 229 0 l 19 0 l 359 979 l 600 979 l 940 0 l 722 0 l 648 237 m 348 391 l 604 391 l 478 791 l 473 791 l 348 391 m 479 -311 q 439 -303 458 -311 q 408 -281 421 -295 q 386 -249 394 -267 q 378 -210 378 -231 q 386 -170 378 -189 q 408 -138 394 -152 q 439 -117 421 -125 q 479 -109 458 -109 q 519 -117 500 -109 q 551 -138 538 -125 q 573 -170 565 -152 q 581 -210 581 -189 q 573 -249 581 -231 q 551 -281 565 -267 q 519 -303 538 -295 q 479 -311 500 -311 m 557 1262 l 743 1046 l 592 1046 l 481 1180 l 477 1180 l 367 1046 l 216 1046 l 402 1262 l 557 1262 z "},"Ấ":{"ha":958,"x_min":19,"x_max":940,"o":"m 648 237 l 304 237 l 229 0 l 19 0 l 359 979 l 600 979 l 940 0 l 722 0 l 648 237 m 348 391 l 604 391 l 478 791 l 473 791 l 348 391 m 559 1234 l 736 1055 l 579 1055 l 485 1156 l 477 1156 l 382 1055 l 224 1055 l 401 1234 l 559 1234 m 669 1444 l 842 1444 l 682 1280 l 538 1280 l 669 1444 z "},"Ẫ":{"ha":958,"x_min":19,"x_max":940,"o":"m 648 237 l 304 237 l 229 0 l 19 0 l 359 979 l 600 979 l 940 0 l 722 0 l 648 237 m 348 391 l 604 391 l 478 791 l 473 791 l 348 391 m 570 1270 q 528 1277 546 1270 q 495 1293 509 1283 q 469 1314 480 1302 q 446 1335 457 1325 q 424 1351 435 1344 q 400 1357 413 1357 q 364 1337 376 1357 q 351 1282 353 1318 l 246 1282 q 257 1356 246 1324 q 288 1411 268 1388 q 334 1444 307 1433 q 393 1456 361 1456 q 436 1450 417 1456 q 470 1434 455 1443 q 497 1413 485 1424 q 519 1392 509 1402 q 540 1376 530 1383 q 562 1370 550 1370 q 597 1390 586 1370 q 611 1446 609 1409 l 715 1446 q 704 1373 715 1405 q 674 1317 693 1340 q 628 1282 654 1295 q 570 1270 602 1270 m 558 1228 l 735 1055 l 578 1055 l 484 1150 l 475 1150 l 380 1055 l 224 1055 l 401 1228 l 558 1228 z "},"Ầ":{"ha":958,"x_min":19,"x_max":940,"o":"m 648 237 l 304 237 l 229 0 l 19 0 l 359 979 l 600 979 l 940 0 l 722 0 l 648 237 m 348 391 l 604 391 l 478 791 l 473 791 l 348 391 m 558 1234 l 735 1055 l 578 1055 l 484 1156 l 475 1156 l 380 1055 l 224 1055 l 401 1234 l 558 1234 m 570 1280 l 408 1444 l 581 1444 l 713 1280 l 570 1280 z "},"Ẩ":{"ha":958,"x_min":19,"x_max":940,"o":"m 648 237 l 304 237 l 229 0 l 19 0 l 359 979 l 600 979 l 940 0 l 722 0 l 648 237 m 348 391 l 604 391 l 478 791 l 473 791 l 348 391 m 559 1234 l 736 1055 l 579 1055 l 484 1156 l 476 1156 l 381 1055 l 224 1055 l 401 1234 l 559 1234 m 559 1429 q 601 1442 576 1437 q 651 1447 625 1447 q 713 1438 686 1447 q 761 1412 741 1429 q 792 1371 781 1395 q 802 1318 802 1348 q 795 1275 802 1296 q 775 1235 789 1254 q 743 1202 762 1217 q 700 1178 724 1187 l 637 1244 q 675 1271 663 1254 q 688 1308 688 1289 q 671 1342 688 1329 q 626 1355 654 1355 q 591 1352 609 1355 q 559 1343 572 1349 l 559 1429 z "},"Ă":{"ha":958,"x_min":19,"x_max":940,"o":"m 648 237 l 304 237 l 229 0 l 19 0 l 359 979 l 600 979 l 940 0 l 722 0 l 648 237 m 348 391 l 604 391 l 478 791 l 473 791 l 348 391 m 361 1261 q 370 1215 361 1236 q 394 1178 378 1194 q 431 1154 410 1162 q 479 1145 453 1145 q 528 1154 506 1145 q 565 1178 549 1162 q 589 1215 581 1194 q 598 1261 597 1236 l 719 1261 q 702 1177 718 1216 q 654 1108 685 1137 q 579 1063 623 1080 q 479 1046 535 1046 q 380 1063 424 1046 q 305 1108 336 1080 q 257 1177 274 1137 q 240 1261 241 1216 l 361 1261 z "},"Ắ":{"ha":958,"x_min":19,"x_max":940,"o":"m 648 237 l 304 237 l 229 0 l 19 0 l 359 979 l 600 979 l 940 0 l 722 0 l 648 237 m 348 391 l 604 391 l 478 791 l 473 791 l 348 391 m 362 1255 q 371 1216 363 1234 q 395 1184 380 1198 q 432 1163 411 1171 q 479 1155 454 1155 q 527 1163 505 1155 q 564 1184 548 1171 q 588 1216 579 1198 q 597 1255 596 1234 l 721 1255 q 704 1177 721 1213 q 656 1114 687 1141 q 581 1071 625 1086 q 479 1055 536 1055 q 378 1071 423 1055 q 303 1114 334 1086 q 255 1177 272 1141 q 238 1255 238 1213 l 362 1255 m 518 1444 l 690 1444 l 530 1280 l 387 1280 l 518 1444 z "},"Ẵ":{"ha":958,"x_min":19,"x_max":940,"o":"m 648 237 l 304 237 l 229 0 l 19 0 l 359 979 l 600 979 l 940 0 l 722 0 l 648 237 m 348 391 l 604 391 l 478 791 l 473 791 l 348 391 m 363 1237 q 374 1204 365 1219 q 397 1178 382 1190 q 433 1161 412 1167 q 479 1154 454 1154 q 526 1161 505 1154 q 562 1178 547 1167 q 585 1204 576 1190 q 596 1237 594 1219 l 719 1237 q 701 1166 718 1199 q 653 1108 684 1133 q 578 1069 623 1084 q 479 1055 534 1055 q 380 1069 425 1055 q 306 1108 336 1084 q 258 1166 275 1133 q 240 1237 241 1199 l 363 1237 m 570 1271 q 510 1284 534 1271 q 467 1314 486 1297 q 434 1343 449 1330 q 399 1356 418 1356 q 365 1336 376 1356 q 351 1286 353 1316 l 240 1286 q 252 1357 240 1325 q 283 1410 263 1388 q 332 1444 304 1432 q 392 1456 359 1456 q 454 1443 429 1456 q 497 1414 479 1430 q 530 1384 515 1398 q 562 1371 545 1371 q 594 1391 583 1371 q 608 1446 606 1411 l 719 1446 q 707 1374 719 1406 q 676 1318 696 1341 q 628 1283 656 1295 q 570 1271 601 1271 z "},"Ẳ":{"ha":958,"x_min":19,"x_max":940,"o":"m 648 237 l 304 237 l 229 0 l 19 0 l 359 979 l 600 979 l 940 0 l 722 0 l 648 237 m 348 391 l 604 391 l 478 791 l 473 791 l 348 391 m 353 1459 q 393 1472 367 1467 q 446 1477 420 1477 q 508 1469 480 1477 q 554 1444 535 1460 q 584 1407 574 1429 q 595 1357 595 1384 q 586 1313 595 1335 q 560 1271 576 1291 q 522 1236 544 1252 q 473 1211 499 1220 l 422 1275 q 467 1303 450 1284 q 484 1341 484 1321 q 466 1375 484 1362 q 420 1388 448 1388 q 384 1384 401 1388 q 353 1374 366 1380 l 353 1459 m 363 1237 q 375 1203 366 1219 q 399 1177 384 1188 q 435 1160 414 1166 q 479 1154 455 1154 q 524 1160 504 1154 q 560 1177 545 1166 q 585 1203 576 1188 q 597 1237 595 1219 l 720 1237 q 700 1163 718 1196 q 650 1106 682 1130 q 575 1068 618 1082 q 479 1055 531 1055 q 384 1068 427 1055 q 310 1106 341 1082 q 260 1163 278 1130 q 241 1237 242 1196 l 363 1237 z "},"Ặ":{"ha":958,"x_min":19,"x_max":940,"o":"m 648 237 l 304 237 l 229 0 l 19 0 l 359 979 l 600 979 l 940 0 l 722 0 l 648 237 m 348 391 l 604 391 l 478 791 l 473 791 l 348 391 m 479 -311 q 439 -303 458 -311 q 408 -281 421 -295 q 386 -249 394 -267 q 378 -210 378 -231 q 386 -170 378 -189 q 408 -138 394 -152 q 439 -117 421 -125 q 479 -109 458 -109 q 519 -117 500 -109 q 551 -138 538 -125 q 573 -170 565 -152 q 581 -210 581 -189 q 573 -249 581 -231 q 551 -281 565 -267 q 519 -303 538 -295 q 479 -311 500 -311 m 361 1261 q 370 1215 361 1236 q 394 1178 378 1194 q 431 1154 410 1162 q 479 1145 453 1145 q 528 1154 506 1145 q 565 1178 549 1162 q 589 1215 581 1194 q 598 1261 597 1236 l 719 1261 q 702 1177 718 1216 q 654 1108 685 1137 q 579 1063 623 1080 q 479 1046 535 1046 q 380 1063 424 1046 q 305 1108 336 1080 q 257 1177 274 1137 q 240 1261 241 1216 l 361 1261 z "},"Ȃ":{"ha":958,"x_min":19,"x_max":940,"o":"m 648 237 l 304 237 l 229 0 l 19 0 l 359 979 l 600 979 l 940 0 l 722 0 l 648 237 m 348 391 l 604 391 l 478 791 l 473 791 l 348 391 m 240 1046 q 257 1131 241 1092 q 305 1199 274 1170 q 380 1245 336 1228 q 479 1261 424 1261 q 579 1245 535 1261 q 654 1199 623 1228 q 702 1131 685 1170 q 719 1046 718 1092 l 598 1046 q 589 1093 597 1072 q 565 1130 581 1114 q 528 1154 549 1145 q 479 1163 506 1163 q 431 1154 453 1163 q 394 1130 410 1145 q 370 1093 378 1114 q 361 1046 361 1072 l 240 1046 z "},"Ǎ":{"ha":958,"x_min":19,"x_max":940,"o":"m 648 237 l 304 237 l 229 0 l 19 0 l 359 979 l 600 979 l 940 0 l 722 0 l 648 237 m 348 391 l 604 391 l 478 791 l 473 791 l 348 391 m 216 1262 l 367 1262 l 477 1128 l 481 1128 l 592 1262 l 743 1262 l 557 1046 l 402 1046 l 216 1262 z "},"Ȧ":{"ha":958,"x_min":19,"x_max":940,"o":"m 648 237 l 304 237 l 229 0 l 19 0 l 359 979 l 600 979 l 940 0 l 722 0 l 648 237 m 348 391 l 604 391 l 478 791 l 473 791 l 348 391 m 479 1059 q 439 1066 458 1059 q 408 1088 421 1074 q 386 1120 394 1102 q 378 1160 378 1139 q 386 1199 378 1181 q 408 1231 394 1217 q 439 1252 421 1244 q 479 1260 458 1260 q 519 1252 500 1260 q 551 1231 538 1244 q 573 1199 565 1217 q 581 1160 581 1181 q 573 1120 581 1139 q 551 1088 565 1102 q 519 1066 538 1074 q 479 1059 500 1059 z "},"Ạ":{"ha":958,"x_min":19,"x_max":940,"o":"m 648 237 l 304 237 l 229 0 l 19 0 l 359 979 l 600 979 l 940 0 l 722 0 l 648 237 m 348 391 l 604 391 l 478 791 l 473 791 l 348 391 m 479 -311 q 439 -303 458 -311 q 408 -281 421 -295 q 386 -249 394 -267 q 378 -210 378 -231 q 386 -170 378 -189 q 408 -138 394 -152 q 439 -117 421 -125 q 479 -109 458 -109 q 519 -117 500 -109 q 551 -138 538 -125 q 573 -170 565 -152 q 581 -210 581 -189 q 573 -249 581 -231 q 551 -281 565 -267 q 519 -303 538 -295 q 479 -311 500 -311 z "},"Ả":{"ha":958,"x_min":19,"x_max":940,"o":"m 648 237 l 304 237 l 229 0 l 19 0 l 359 979 l 600 979 l 940 0 l 722 0 l 648 237 m 348 391 l 604 391 l 478 791 l 473 791 l 348 391 m 354 1303 q 398 1316 372 1312 q 451 1320 424 1320 q 517 1311 488 1320 q 568 1285 547 1302 q 600 1243 589 1268 q 612 1188 612 1219 q 602 1140 612 1164 q 576 1097 593 1117 q 535 1061 559 1077 q 484 1034 512 1044 l 426 1105 q 473 1135 455 1115 q 492 1177 492 1155 q 474 1213 492 1199 q 426 1227 456 1227 q 389 1223 409 1227 q 354 1214 369 1220 l 354 1303 z "},"Ȁ":{"ha":958,"x_min":19,"x_max":940,"o":"m 648 237 l 304 237 l 229 0 l 19 0 l 359 979 l 600 979 l 940 0 l 722 0 l 648 237 m 348 391 l 604 391 l 478 791 l 473 791 l 348 391 m 352 1263 l 534 1263 l 691 1053 l 541 1053 l 352 1263 m 84 1263 l 266 1263 l 423 1053 l 273 1053 l 84 1263 z "},"Ā":{"ha":958,"x_min":19,"x_max":940,"o":"m 648 237 l 304 237 l 229 0 l 19 0 l 359 979 l 600 979 l 940 0 l 722 0 l 648 237 m 348 391 l 604 391 l 478 791 l 473 791 l 348 391 m 714 1101 l 245 1101 l 245 1198 l 714 1198 l 714 1101 z "},"Ą":{"ha":958,"x_min":19,"x_max":938,"o":"m 838 -307 q 769 -296 800 -307 q 715 -264 738 -285 q 681 -216 693 -244 q 668 -154 668 -188 q 770 7 668 -55 l 720 7 l 648 237 l 304 237 l 229 0 l 19 0 l 359 979 l 600 979 l 938 5 l 902 5 q 804 -120 804 -44 q 826 -174 804 -153 q 882 -194 848 -194 q 903 -193 893 -194 q 924 -191 913 -192 l 924 -296 q 885 -304 906 -302 q 838 -307 864 -307 m 348 391 l 604 391 l 480 787 l 472 787 l 348 391 z "},"B":{"ha":895,"x_min":81,"x_max":859,"o":"m 81 0 l 81 979 l 513 979 q 638 962 583 979 q 732 913 693 945 q 791 836 770 881 q 812 734 812 791 q 798 659 812 694 q 759 594 784 623 q 701 547 734 566 q 629 522 667 528 l 629 517 q 721 494 678 513 q 794 443 763 475 q 842 370 825 412 q 859 280 859 329 q 836 164 859 216 q 768 76 812 112 q 662 20 724 39 q 521 0 599 0 l 81 0 m 286 572 l 439 572 q 566 606 522 572 q 611 703 611 640 q 572 794 611 762 q 460 826 532 826 l 286 826 l 286 572 m 469 153 q 604 189 557 153 q 650 296 650 226 q 603 401 650 366 q 464 437 555 437 l 286 437 l 286 153 l 469 153 z "},"Ḇ":{"ha":895,"x_min":81,"x_max":859,"o":"m 81 0 l 81 979 l 513 979 q 638 962 583 979 q 732 913 693 945 q 791 836 770 881 q 812 734 812 791 q 798 659 812 694 q 759 594 784 623 q 701 547 734 566 q 629 522 667 528 l 629 517 q 721 494 678 513 q 794 443 763 475 q 842 370 825 412 q 859 280 859 329 q 836 164 859 216 q 768 76 812 112 q 662 20 724 39 q 521 0 599 0 l 81 0 m 286 572 l 439 572 q 566 606 522 572 q 611 703 611 640 q 572 794 611 762 q 460 826 532 826 l 286 826 l 286 572 m 469 153 q 604 189 557 153 q 650 296 650 226 q 603 401 650 366 q 464 437 555 437 l 286 437 l 286 153 l 469 153 m 659 -253 l 190 -253 l 190 -156 l 659 -156 l 659 -253 z "},"Ḅ":{"ha":895,"x_min":81,"x_max":859,"o":"m 425 -311 q 385 -303 403 -311 q 353 -281 366 -295 q 331 -249 339 -267 q 323 -210 323 -231 q 331 -170 323 -189 q 353 -138 339 -152 q 385 -117 366 -125 q 425 -109 403 -109 q 464 -117 446 -109 q 496 -138 483 -125 q 518 -170 510 -152 q 526 -210 526 -189 q 518 -249 526 -231 q 496 -281 510 -267 q 464 -303 483 -295 q 425 -311 446 -311 m 81 0 l 81 979 l 513 979 q 638 962 583 979 q 732 913 693 945 q 791 836 770 881 q 812 734 812 791 q 798 659 812 694 q 759 594 784 623 q 701 547 734 566 q 629 522 667 528 l 629 517 q 721 494 678 513 q 794 443 763 475 q 842 370 825 412 q 859 280 859 329 q 836 164 859 216 q 768 76 812 112 q 662 20 724 39 q 521 0 599 0 l 81 0 m 286 572 l 439 572 q 566 606 522 572 q 611 703 611 640 q 572 794 611 762 q 460 826 532 826 l 286 826 l 286 572 m 469 153 q 604 189 557 153 q 650 296 650 226 q 603 401 650 366 q 464 437 555 437 l 286 437 l 286 153 l 469 153 z "},"Ḃ":{"ha":895,"x_min":81,"x_max":859,"o":"m 425 1059 q 385 1066 403 1059 q 353 1088 366 1074 q 331 1120 339 1102 q 323 1160 323 1139 q 331 1199 323 1181 q 353 1231 339 1217 q 385 1252 366 1244 q 425 1260 403 1260 q 464 1252 446 1260 q 496 1231 483 1244 q 518 1199 510 1217 q 526 1160 526 1181 q 518 1120 526 1139 q 496 1088 510 1102 q 464 1066 483 1074 q 425 1059 446 1059 m 81 0 l 81 979 l 513 979 q 638 962 583 979 q 732 913 693 945 q 791 836 770 881 q 812 734 812 791 q 798 659 812 694 q 759 594 784 623 q 701 547 734 566 q 629 522 667 528 l 629 517 q 721 494 678 513 q 794 443 763 475 q 842 370 825 412 q 859 280 859 329 q 836 164 859 216 q 768 76 812 112 q 662 20 724 39 q 521 0 599 0 l 81 0 m 286 572 l 439 572 q 566 606 522 572 q 611 703 611 640 q 572 794 611 762 q 460 826 532 826 l 286 826 l 286 572 m 469 153 q 604 189 557 153 q 650 296 650 226 q 603 401 650 366 q 464 437 555 437 l 286 437 l 286 153 l 469 153 z "},"C":{"ha":989,"x_min":51,"x_max":945,"o":"m 514 -17 q 321 18 407 -17 q 176 118 236 52 q 83 277 115 183 q 51 490 51 371 q 83 702 51 608 q 176 861 116 795 q 322 961 237 926 q 514 996 408 996 q 678 969 602 996 q 811 893 754 942 q 903 777 869 845 q 944 627 938 709 l 745 627 q 717 709 737 672 q 667 772 697 746 q 598 812 637 798 q 514 826 559 826 q 409 803 456 826 q 329 735 362 779 q 278 630 296 692 q 260 490 260 568 q 278 349 260 412 q 329 243 296 287 q 409 176 361 199 q 515 153 456 153 q 599 165 560 153 q 667 203 637 178 q 717 262 697 227 q 745 340 737 296 l 945 340 q 901 192 936 258 q 811 80 867 126 q 680 8 755 33 q 514 -17 604 -17 z "},"Ć":{"ha":989,"x_min":51,"x_max":945,"o":"m 425 1054 l 582 1264 l 767 1264 l 579 1054 l 425 1054 m 514 -17 q 321 18 407 -17 q 176 118 236 52 q 83 277 115 183 q 51 490 51 371 q 83 702 51 608 q 176 861 116 795 q 322 961 237 926 q 514 996 408 996 q 678 969 602 996 q 811 893 754 942 q 903 777 869 845 q 944 627 938 709 l 745 627 q 717 709 737 672 q 667 772 697 746 q 598 812 637 798 q 514 826 559 826 q 409 803 456 826 q 329 735 362 779 q 278 630 296 692 q 260 490 260 568 q 278 349 260 412 q 329 243 296 287 q 409 176 361 199 q 515 153 456 153 q 599 165 560 153 q 667 203 637 178 q 717 262 697 227 q 745 340 737 296 l 945 340 q 901 192 936 258 q 811 80 867 126 q 680 8 755 33 q 514 -17 604 -17 z "},"Č":{"ha":989,"x_min":51,"x_max":945,"o":"m 514 -17 q 321 18 407 -17 q 176 118 236 52 q 83 277 115 183 q 51 490 51 371 q 83 702 51 608 q 176 861 116 795 q 322 961 237 926 q 514 996 408 996 q 678 969 602 996 q 811 893 754 942 q 903 777 869 845 q 944 627 938 709 l 745 627 q 717 709 737 672 q 667 772 697 746 q 598 812 637 798 q 514 826 559 826 q 409 803 456 826 q 329 735 362 779 q 278 630 296 692 q 260 490 260 568 q 278 349 260 412 q 329 243 296 287 q 409 176 361 199 q 515 153 456 153 q 599 165 560 153 q 667 203 637 178 q 717 262 697 227 q 745 340 737 296 l 945 340 q 901 192 936 258 q 811 80 867 126 q 680 8 755 33 q 514 -17 604 -17 m 242 1263 l 393 1263 l 503 1129 l 507 1129 l 618 1263 l 768 1263 l 583 1047 l 428 1047 l 242 1263 z "},"Ĉ":{"ha":989,"x_min":51,"x_max":945,"o":"m 514 -17 q 321 18 407 -17 q 176 118 236 52 q 83 277 115 183 q 51 490 51 371 q 83 702 51 608 q 176 861 116 795 q 322 961 237 926 q 514 996 408 996 q 678 969 602 996 q 811 893 754 942 q 903 777 869 845 q 944 627 938 709 l 745 627 q 717 709 737 672 q 667 772 697 746 q 598 812 637 798 q 514 826 559 826 q 409 803 456 826 q 329 735 362 779 q 278 630 296 692 q 260 490 260 568 q 278 349 260 412 q 329 243 296 287 q 409 176 361 199 q 515 153 456 153 q 599 165 560 153 q 667 203 637 178 q 717 262 697 227 q 745 340 737 296 l 945 340 q 901 192 936 258 q 811 80 867 126 q 680 8 755 33 q 514 -17 604 -17 m 583 1263 l 768 1047 l 618 1047 l 507 1181 l 503 1181 l 393 1047 l 242 1047 l 428 1263 l 583 1263 z "},"Ċ":{"ha":989,"x_min":51,"x_max":945,"o":"m 505 1059 q 465 1067 484 1059 q 433 1089 447 1075 q 412 1121 420 1103 q 404 1160 404 1139 q 412 1200 404 1181 q 433 1232 420 1218 q 465 1253 447 1245 q 505 1261 484 1261 q 545 1253 526 1261 q 577 1232 564 1245 q 598 1200 591 1218 q 606 1160 606 1181 q 598 1121 606 1139 q 577 1089 591 1103 q 545 1067 564 1075 q 505 1059 526 1059 m 514 -17 q 321 18 407 -17 q 176 118 236 52 q 83 277 115 183 q 51 490 51 371 q 83 702 51 608 q 176 861 116 795 q 322 961 237 926 q 514 996 408 996 q 678 969 602 996 q 811 893 754 942 q 903 777 869 845 q 944 627 938 709 l 745 627 q 717 709 737 672 q 667 772 697 746 q 598 812 637 798 q 514 826 559 826 q 409 803 456 826 q 329 735 362 779 q 278 630 296 692 q 260 490 260 568 q 278 349 260 412 q 329 243 296 287 q 409 176 361 199 q 515 153 456 153 q 599 165 560 153 q 667 203 637 178 q 717 262 697 227 q 745 340 737 296 l 945 340 q 901 192 936 258 q 811 80 867 126 q 680 8 755 33 q 514 -17 604 -17 z "},"Ç":{"ha":989,"x_min":51,"x_max":945,"o":"m 945 340 q 906 201 937 263 q 825 93 875 138 q 709 19 776 47 q 562 -15 642 -9 l 534 -79 q 627 -107 594 -79 q 660 -186 660 -135 q 617 -279 660 -245 q 496 -313 574 -312 q 444 -310 468 -313 q 401 -302 420 -307 l 401 -220 q 435 -227 413 -224 q 477 -230 456 -230 q 549 -193 549 -230 q 530 -163 549 -172 q 465 -155 511 -155 l 427 -155 l 427 -86 l 459 -14 q 289 33 364 -5 q 160 136 213 71 q 79 290 107 200 q 51 490 51 379 q 83 702 51 608 q 176 861 116 795 q 322 961 237 926 q 514 996 408 996 q 678 969 602 996 q 811 893 754 942 q 903 777 869 845 q 944 627 938 709 l 745 627 q 717 709 737 672 q 667 772 697 746 q 598 812 637 798 q 514 826 559 826 q 409 803 456 826 q 329 735 362 779 q 278 630 296 692 q 260 490 260 568 q 278 349 260 412 q 329 243 296 287 q 409 176 361 199 q 515 153 456 153 q 599 165 560 153 q 667 203 637 178 q 717 262 697 227 q 745 340 737 296 l 945 340 z "},"Ḉ":{"ha":989,"x_min":51,"x_max":945,"o":"m 579 1054 l 425 1054 l 582 1264 l 767 1264 l 579 1054 m 945 340 q 906 201 937 263 q 825 93 875 138 q 709 19 776 47 q 562 -15 642 -9 l 534 -79 q 627 -107 594 -79 q 660 -186 660 -135 q 617 -279 660 -245 q 496 -313 574 -312 q 444 -310 468 -313 q 401 -302 420 -307 l 401 -220 q 435 -227 413 -224 q 477 -230 456 -230 q 549 -193 549 -230 q 530 -163 549 -172 q 465 -155 511 -155 l 427 -155 l 427 -86 l 459 -14 q 289 33 364 -5 q 160 136 213 71 q 79 290 107 200 q 51 490 51 379 q 83 702 51 608 q 176 861 116 795 q 322 961 237 926 q 514 996 408 996 q 678 969 602 996 q 811 893 754 942 q 903 777 869 845 q 944 627 938 709 l 745 627 q 717 709 737 672 q 667 772 697 746 q 598 812 637 798 q 514 826 559 826 q 409 803 456 826 q 329 735 362 779 q 278 630 296 692 q 260 490 260 568 q 278 349 260 412 q 329 243 296 287 q 409 176 361 199 q 515 153 456 153 q 599 165 560 153 q 667 203 637 178 q 717 262 697 227 q 745 340 737 296 l 945 340 z "},"D":{"ha":975,"x_min":81,"x_max":925,"o":"m 458 979 q 655 946 568 979 q 802 852 742 914 q 893 700 862 790 q 925 493 925 610 q 893 285 925 376 q 802 130 862 193 q 655 33 742 66 q 458 0 568 0 l 81 0 l 81 979 l 458 979 m 286 170 l 434 170 q 644 251 572 170 q 716 492 716 333 q 697 628 716 569 q 643 728 679 688 q 554 789 607 768 q 434 810 502 810 l 286 810 l 286 170 z "},"Ḋ":{"ha":975,"x_min":81,"x_max":925,"o":"m 437 1059 q 397 1066 415 1059 q 365 1088 378 1074 q 343 1120 351 1102 q 336 1160 336 1139 q 343 1199 336 1181 q 365 1231 351 1217 q 397 1252 378 1244 q 437 1260 415 1260 q 476 1252 458 1260 q 509 1231 495 1244 q 530 1199 522 1217 q 538 1160 538 1181 q 530 1120 538 1139 q 509 1088 522 1102 q 476 1066 495 1074 q 437 1059 458 1059 m 458 979 q 655 946 568 979 q 802 852 742 914 q 893 700 862 790 q 925 493 925 610 q 893 285 925 376 q 802 130 862 193 q 655 33 742 66 q 458 0 568 0 l 81 0 l 81 979 l 458 979 m 286 170 l 434 170 q 644 251 572 170 q 716 492 716 333 q 697 628 716 569 q 643 728 679 688 q 554 789 607 768 q 434 810 502 810 l 286 810 l 286 170 z "},"Ḓ":{"ha":975,"x_min":81,"x_max":925,"o":"m 458 979 q 655 946 568 979 q 802 852 742 914 q 893 700 862 790 q 925 493 925 610 q 893 285 925 376 q 802 130 862 193 q 655 33 742 66 q 458 0 568 0 l 81 0 l 81 979 l 458 979 m 286 170 l 434 170 q 644 251 572 170 q 716 492 716 333 q 697 628 716 569 q 643 728 679 688 q 554 789 607 768 q 434 810 502 810 l 286 810 l 286 170 m 514 -109 l 700 -324 l 549 -324 l 439 -191 l 435 -191 l 324 -324 l 174 -324 l 359 -109 l 514 -109 z "},"Ḑ":{"ha":975,"x_min":81,"x_max":925,"o":"m 275 -339 l 357 -105 l 530 -105 l 422 -339 l 275 -339 m 458 979 q 655 946 568 979 q 802 852 742 914 q 893 700 862 790 q 925 493 925 610 q 893 285 925 376 q 802 130 862 193 q 655 33 742 66 q 458 0 568 0 l 81 0 l 81 979 l 458 979 m 286 170 l 434 170 q 644 251 572 170 q 716 492 716 333 q 697 628 716 569 q 643 728 679 688 q 554 789 607 768 q 434 810 502 810 l 286 810 l 286 170 z "},"Ḏ":{"ha":975,"x_min":81,"x_max":925,"o":"m 671 -253 l 202 -253 l 202 -156 l 671 -156 l 671 -253 m 458 979 q 655 946 568 979 q 802 852 742 914 q 893 700 862 790 q 925 493 925 610 q 893 285 925 376 q 802 130 862 193 q 655 33 742 66 q 458 0 568 0 l 81 0 l 81 979 l 458 979 m 286 170 l 434 170 q 644 251 572 170 q 716 492 716 333 q 697 628 716 569 q 643 728 679 688 q 554 789 607 768 q 434 810 502 810 l 286 810 l 286 170 z "},"Ď":{"ha":975,"x_min":81,"x_max":925,"o":"m 174 1262 l 324 1262 l 435 1128 l 439 1128 l 549 1262 l 700 1262 l 514 1046 l 359 1046 l 174 1262 m 458 979 q 655 946 568 979 q 802 852 742 914 q 893 700 862 790 q 925 493 925 610 q 893 285 925 376 q 802 130 862 193 q 655 33 742 66 q 458 0 568 0 l 81 0 l 81 979 l 458 979 m 286 170 l 434 170 q 644 251 572 170 q 716 492 716 333 q 697 628 716 569 q 643 728 679 688 q 554 789 607 768 q 434 810 502 810 l 286 810 l 286 170 z "},"Ḍ":{"ha":975,"x_min":81,"x_max":925,"o":"m 437 -311 q 397 -303 415 -311 q 365 -281 378 -295 q 343 -249 351 -267 q 336 -210 336 -231 q 343 -170 336 -189 q 365 -138 351 -152 q 397 -117 378 -125 q 437 -109 415 -109 q 476 -117 458 -109 q 509 -138 495 -125 q 530 -170 522 -152 q 538 -210 538 -189 q 530 -249 538 -231 q 509 -281 522 -267 q 476 -303 495 -295 q 437 -311 458 -311 m 458 979 q 655 946 568 979 q 802 852 742 914 q 893 700 862 790 q 925 493 925 610 q 893 285 925 376 q 802 130 862 193 q 655 33 742 66 q 458 0 568 0 l 81 0 l 81 979 l 458 979 m 286 170 l 434 170 q 644 251 572 170 q 716 492 716 333 q 697 628 716 569 q 643 728 679 688 q 554 789 607 768 q 434 810 502 810 l 286 810 l 286 170 z "},"Đ":{"ha":1029,"x_min":58,"x_max":961,"o":"m 470 170 q 680 251 608 170 q 752 492 752 333 q 733 628 752 569 q 679 728 715 688 q 590 789 643 768 q 470 810 538 810 l 322 810 l 322 572 l 502 572 l 502 422 l 322 422 l 322 170 l 470 170 m 494 979 q 691 946 604 979 q 838 852 778 914 q 929 700 898 790 q 961 493 961 610 q 929 285 961 376 q 838 130 898 193 q 691 33 778 66 q 494 0 604 0 l 117 0 l 117 422 l 58 422 l 58 572 l 117 572 l 117 979 l 494 979 z "},"E":{"ha":796,"x_min":81,"x_max":730,"o":"m 730 0 l 81 0 l 81 979 l 730 979 l 730 810 l 286 810 l 286 574 l 705 574 l 705 416 l 286 416 l 286 170 l 730 170 l 730 0 z "},"È":{"ha":796,"x_min":81,"x_max":730,"o":"m 142 1267 l 328 1267 l 485 1057 l 331 1057 l 142 1267 m 730 0 l 81 0 l 81 979 l 730 979 l 730 810 l 286 810 l 286 574 l 705 574 l 705 416 l 286 416 l 286 170 l 730 170 l 730 0 z "},"Ȅ":{"ha":796,"x_min":10,"x_max":730,"o":"m 278 1263 l 460 1263 l 617 1053 l 467 1053 l 278 1263 m 10 1263 l 192 1263 l 349 1053 l 199 1053 l 10 1263 m 730 0 l 81 0 l 81 979 l 730 979 l 730 810 l 286 810 l 286 574 l 705 574 l 705 416 l 286 416 l 286 170 l 730 170 l 730 0 z "},"É":{"ha":796,"x_min":81,"x_max":730,"o":"m 325 1053 l 482 1263 l 667 1263 l 479 1053 l 325 1053 m 730 0 l 81 0 l 81 979 l 730 979 l 730 810 l 286 810 l 286 574 l 705 574 l 705 416 l 286 416 l 286 170 l 730 170 l 730 0 z "},"Ê":{"ha":796,"x_min":81,"x_max":730,"o":"m 483 1262 l 669 1046 l 518 1046 l 408 1180 l 404 1180 l 293 1046 l 142 1046 l 328 1262 l 483 1262 m 730 0 l 81 0 l 81 979 l 730 979 l 730 810 l 286 810 l 286 574 l 705 574 l 705 416 l 286 416 l 286 170 l 730 170 l 730 0 z "},"Ể":{"ha":796,"x_min":81,"x_max":730,"o":"m 730 0 l 81 0 l 81 979 l 730 979 l 730 810 l 286 810 l 286 574 l 705 574 l 705 416 l 286 416 l 286 170 l 730 170 l 730 0 m 486 1234 l 662 1055 l 505 1055 l 410 1156 l 402 1156 l 307 1055 l 151 1055 l 328 1234 l 486 1234 m 486 1429 q 527 1442 502 1437 q 577 1447 551 1447 q 640 1438 612 1447 q 687 1412 667 1429 q 718 1371 707 1395 q 728 1318 728 1348 q 722 1275 728 1296 q 702 1235 715 1254 q 669 1202 688 1217 q 626 1178 650 1187 l 564 1244 q 602 1271 589 1254 q 614 1308 614 1289 q 597 1342 614 1329 q 552 1355 581 1355 q 517 1352 535 1355 q 486 1343 498 1349 l 486 1429 z "},"Ề":{"ha":796,"x_min":81,"x_max":730,"o":"m 730 0 l 81 0 l 81 979 l 730 979 l 730 810 l 286 810 l 286 574 l 705 574 l 705 416 l 286 416 l 286 170 l 730 170 l 730 0 m 484 1234 l 661 1055 l 505 1055 l 410 1156 l 401 1156 l 307 1055 l 150 1055 l 327 1234 l 484 1234 m 496 1280 l 334 1444 l 507 1444 l 639 1280 l 496 1280 z "},"Ễ":{"ha":796,"x_min":81,"x_max":730,"o":"m 496 1270 q 454 1277 472 1270 q 421 1293 435 1283 q 395 1314 406 1302 q 372 1335 383 1325 q 350 1351 361 1344 q 326 1357 339 1357 q 290 1337 302 1357 q 277 1282 279 1318 l 172 1282 q 183 1356 172 1324 q 214 1411 194 1388 q 260 1444 233 1433 q 319 1456 287 1456 q 362 1450 343 1456 q 396 1434 381 1443 q 423 1413 411 1424 q 445 1392 435 1402 q 466 1376 456 1383 q 488 1370 476 1370 q 524 1390 512 1370 q 537 1446 535 1409 l 642 1446 q 630 1373 642 1405 q 600 1317 619 1340 q 554 1282 581 1295 q 496 1270 528 1270 m 484 1228 l 661 1055 l 505 1055 l 410 1150 l 401 1150 l 307 1055 l 150 1055 l 327 1228 l 484 1228 m 730 0 l 81 0 l 81 979 l 730 979 l 730 810 l 286 810 l 286 574 l 705 574 l 705 416 l 286 416 l 286 170 l 730 170 l 730 0 z "},"Ệ":{"ha":796,"x_min":81,"x_max":730,"o":"m 406 -311 q 366 -303 384 -311 q 334 -281 347 -295 q 312 -249 320 -267 q 304 -210 304 -231 q 312 -170 304 -189 q 334 -138 320 -152 q 366 -117 347 -125 q 406 -109 384 -109 q 445 -117 427 -109 q 477 -138 464 -125 q 499 -170 491 -152 q 507 -210 507 -189 q 499 -249 507 -231 q 477 -281 491 -267 q 445 -303 464 -295 q 406 -311 427 -311 m 483 1262 l 669 1046 l 518 1046 l 408 1180 l 404 1180 l 293 1046 l 142 1046 l 328 1262 l 483 1262 m 730 0 l 81 0 l 81 979 l 730 979 l 730 810 l 286 810 l 286 574 l 705 574 l 705 416 l 286 416 l 286 170 l 730 170 l 730 0 z "},"Ế":{"ha":796,"x_min":81,"x_max":768,"o":"m 730 0 l 81 0 l 81 979 l 730 979 l 730 810 l 286 810 l 286 574 l 705 574 l 705 416 l 286 416 l 286 170 l 730 170 l 730 0 m 486 1234 l 663 1055 l 505 1055 l 411 1156 l 403 1156 l 308 1055 l 151 1055 l 328 1234 l 486 1234 m 595 1444 l 768 1444 l 608 1280 l 465 1280 l 595 1444 z "},"Ë":{"ha":796,"x_min":81,"x_max":730,"o":"m 264 1059 q 228 1066 244 1059 q 199 1085 211 1073 q 179 1113 186 1097 q 172 1147 172 1129 q 179 1182 172 1166 q 199 1210 186 1198 q 228 1229 211 1222 q 264 1236 244 1236 q 300 1229 283 1236 q 329 1210 317 1222 q 348 1182 341 1198 q 355 1147 355 1166 q 348 1113 355 1129 q 329 1085 341 1097 q 300 1066 317 1073 q 264 1059 283 1059 m 548 1059 q 512 1066 528 1059 q 483 1085 495 1073 q 464 1113 471 1097 q 456 1147 456 1129 q 464 1182 456 1166 q 483 1210 471 1198 q 512 1229 495 1222 q 548 1236 528 1236 q 584 1229 568 1236 q 613 1210 601 1222 q 632 1182 625 1198 q 640 1147 640 1166 q 632 1113 640 1129 q 613 1085 625 1097 q 584 1066 601 1073 q 548 1059 568 1059 m 730 0 l 81 0 l 81 979 l 730 979 l 730 810 l 286 810 l 286 574 l 705 574 l 705 416 l 286 416 l 286 170 l 730 170 l 730 0 z "},"Ẹ":{"ha":796,"x_min":81,"x_max":730,"o":"m 406 -311 q 366 -303 384 -311 q 334 -281 347 -295 q 312 -249 320 -267 q 304 -210 304 -231 q 312 -170 304 -189 q 334 -138 320 -152 q 366 -117 347 -125 q 406 -109 384 -109 q 445 -117 427 -109 q 477 -138 464 -125 q 499 -170 491 -152 q 507 -210 507 -189 q 499 -249 507 -231 q 477 -281 491 -267 q 445 -303 464 -295 q 406 -311 427 -311 m 730 0 l 81 0 l 81 979 l 730 979 l 730 810 l 286 810 l 286 574 l 705 574 l 705 416 l 286 416 l 286 170 l 730 170 l 730 0 z "},"Ȇ":{"ha":796,"x_min":81,"x_max":730,"o":"m 730 0 l 81 0 l 81 979 l 730 979 l 730 810 l 286 810 l 286 574 l 705 574 l 705 416 l 286 416 l 286 170 l 730 170 l 730 0 m 166 1046 q 183 1131 167 1092 q 231 1199 200 1170 q 306 1245 262 1228 q 406 1261 350 1261 q 505 1245 461 1261 q 580 1199 549 1228 q 628 1131 611 1170 q 645 1046 644 1092 l 524 1046 q 515 1093 524 1072 q 491 1130 507 1114 q 454 1154 475 1145 q 406 1163 432 1163 q 357 1154 379 1163 q 320 1130 336 1145 q 296 1093 304 1114 q 287 1046 288 1072 l 166 1046 z "},"Ẻ":{"ha":796,"x_min":81,"x_max":730,"o":"m 730 0 l 81 0 l 81 979 l 730 979 l 730 810 l 286 810 l 286 574 l 705 574 l 705 416 l 286 416 l 286 170 l 730 170 l 730 0 m 280 1303 q 324 1316 298 1312 q 377 1320 350 1320 q 444 1311 414 1320 q 494 1285 473 1302 q 526 1243 515 1268 q 538 1188 538 1219 q 528 1140 538 1164 q 502 1097 519 1117 q 461 1061 485 1077 q 410 1034 438 1044 l 352 1105 q 399 1135 381 1115 q 418 1177 418 1155 q 400 1213 418 1199 q 352 1227 382 1227 q 315 1223 335 1227 q 280 1214 295 1220 l 280 1303 z "},"Ě":{"ha":796,"x_min":81,"x_max":730,"o":"m 142 1262 l 293 1262 l 404 1128 l 408 1128 l 518 1262 l 669 1262 l 483 1046 l 328 1046 l 142 1262 m 730 0 l 81 0 l 81 979 l 730 979 l 730 810 l 286 810 l 286 574 l 705 574 l 705 416 l 286 416 l 286 170 l 730 170 l 730 0 z "},"Ē":{"ha":796,"x_min":81,"x_max":730,"o":"m 730 0 l 81 0 l 81 979 l 730 979 l 730 810 l 286 810 l 286 574 l 705 574 l 705 416 l 286 416 l 286 170 l 730 170 l 730 0 m 640 1101 l 171 1101 l 171 1198 l 640 1198 l 640 1101 z "},"Ḕ":{"ha":796,"x_min":81,"x_max":730,"o":"m 171 1198 l 640 1198 l 640 1101 l 171 1101 l 171 1198 m 338 1280 l 178 1444 l 350 1444 l 481 1280 l 338 1280 m 730 0 l 81 0 l 81 979 l 730 979 l 730 810 l 286 810 l 286 574 l 705 574 l 705 416 l 286 416 l 286 170 l 730 170 l 730 0 z "},"Ḗ":{"ha":796,"x_min":81,"x_max":730,"o":"m 171 1101 l 171 1198 l 640 1198 l 640 1101 l 171 1101 m 461 1444 l 633 1444 l 473 1280 l 330 1280 l 461 1444 m 730 0 l 81 0 l 81 979 l 730 979 l 730 810 l 286 810 l 286 574 l 705 574 l 705 416 l 286 416 l 286 170 l 730 170 l 730 0 z "},"Ẽ":{"ha":796,"x_min":81,"x_max":730,"o":"m 730 0 l 81 0 l 81 979 l 730 979 l 730 810 l 286 810 l 286 574 l 705 574 l 705 416 l 286 416 l 286 170 l 730 170 l 730 0 m 500 1045 q 459 1052 477 1045 q 425 1069 440 1059 q 397 1091 410 1079 q 373 1114 385 1103 q 349 1131 361 1124 q 326 1137 338 1137 q 291 1115 302 1137 q 279 1057 279 1093 l 172 1057 q 183 1134 172 1100 q 213 1192 194 1168 q 259 1228 233 1216 q 317 1240 286 1240 q 379 1226 353 1240 q 424 1195 404 1212 q 460 1163 444 1177 q 494 1149 476 1149 q 527 1171 516 1149 q 538 1232 538 1192 l 646 1232 q 634 1154 646 1188 q 604 1095 623 1119 q 558 1058 585 1071 q 500 1045 531 1045 z "},"Ḙ":{"ha":796,"x_min":81,"x_max":730,"o":"m 730 0 l 81 0 l 81 979 l 730 979 l 730 810 l 286 810 l 286 574 l 705 574 l 705 416 l 286 416 l 286 170 l 730 170 l 730 0 m 483 -109 l 669 -324 l 518 -324 l 408 -191 l 404 -191 l 293 -324 l 142 -324 l 328 -109 l 483 -109 z "},"Ĕ":{"ha":796,"x_min":81,"x_max":730,"o":"m 730 0 l 81 0 l 81 979 l 730 979 l 730 810 l 286 810 l 286 574 l 705 574 l 705 416 l 286 416 l 286 170 l 730 170 l 730 0 m 287 1261 q 296 1215 288 1236 q 320 1178 304 1194 q 357 1154 336 1162 q 406 1145 379 1145 q 454 1154 432 1145 q 491 1178 475 1162 q 515 1215 507 1194 q 524 1261 524 1236 l 645 1261 q 628 1177 644 1216 q 580 1108 611 1137 q 505 1063 549 1080 q 406 1046 461 1046 q 306 1063 350 1046 q 231 1108 262 1080 q 183 1177 200 1137 q 166 1261 167 1216 l 287 1261 z "},"Ḛ":{"ha":796,"x_min":81,"x_max":730,"o":"m 500 -295 q 459 -288 477 -295 q 425 -271 440 -281 q 397 -249 410 -261 q 373 -227 385 -237 q 349 -210 361 -216 q 326 -203 338 -203 q 291 -225 302 -203 q 279 -283 279 -248 l 172 -283 q 183 -206 172 -240 q 213 -148 194 -172 q 259 -112 233 -124 q 317 -100 286 -100 q 379 -114 353 -100 q 424 -145 404 -128 q 460 -177 444 -163 q 494 -191 476 -191 q 527 -170 516 -191 q 538 -109 538 -148 l 646 -109 q 634 -186 646 -152 q 604 -245 623 -221 q 558 -282 585 -269 q 500 -295 531 -295 m 730 0 l 81 0 l 81 979 l 730 979 l 730 810 l 286 810 l 286 574 l 705 574 l 705 416 l 286 416 l 286 170 l 730 170 l 730 0 z "},"Ė":{"ha":796,"x_min":81,"x_max":730,"o":"m 406 1059 q 366 1066 384 1059 q 334 1088 347 1074 q 312 1120 320 1102 q 304 1160 304 1139 q 312 1199 304 1181 q 334 1231 320 1217 q 366 1252 347 1244 q 406 1260 384 1260 q 445 1252 427 1260 q 477 1231 464 1244 q 499 1199 491 1217 q 507 1160 507 1181 q 499 1120 507 1139 q 477 1088 491 1102 q 445 1066 464 1074 q 406 1059 427 1059 m 730 0 l 81 0 l 81 979 l 730 979 l 730 810 l 286 810 l 286 574 l 705 574 l 705 416 l 286 416 l 286 170 l 730 170 l 730 0 z "},"Ȩ":{"ha":796,"x_min":81,"x_max":730,"o":"m 286 810 l 286 574 l 705 574 l 705 416 l 286 416 l 286 170 l 730 170 l 730 0 l 468 0 l 435 -79 q 527 -107 494 -79 q 560 -186 560 -135 q 517 -279 560 -245 q 397 -313 474 -312 q 344 -310 368 -313 q 302 -302 320 -307 l 302 -220 q 335 -227 313 -224 q 377 -230 357 -230 q 450 -193 450 -230 q 430 -163 450 -172 q 365 -155 411 -155 l 327 -155 l 327 -86 l 366 0 l 81 0 l 81 979 l 730 979 l 730 810 l 286 810 z "},"Ḝ":{"ha":796,"x_min":81,"x_max":730,"o":"m 645 1261 q 628 1177 644 1216 q 580 1108 611 1137 q 505 1063 549 1080 q 406 1046 461 1046 q 306 1063 350 1046 q 231 1108 262 1080 q 183 1177 200 1137 q 166 1261 167 1216 l 287 1261 q 296 1215 288 1236 q 320 1178 304 1194 q 357 1154 336 1162 q 406 1145 379 1145 q 454 1154 432 1145 q 491 1178 475 1162 q 515 1215 507 1194 q 524 1261 524 1236 l 645 1261 m 286 810 l 286 574 l 705 574 l 705 416 l 286 416 l 286 170 l 730 170 l 730 0 l 468 0 l 435 -79 q 527 -107 494 -79 q 560 -186 560 -135 q 517 -279 560 -245 q 397 -313 474 -312 q 344 -310 368 -313 q 302 -302 320 -307 l 302 -220 q 335 -227 313 -224 q 377 -230 357 -230 q 450 -193 450 -230 q 430 -163 450 -172 q 365 -155 411 -155 l 327 -155 l 327 -86 l 366 0 l 81 0 l 81 979 l 730 979 l 730 810 l 286 810 z "},"Ę":{"ha":796,"x_min":81,"x_max":730,"o":"m 81 0 l 81 979 l 730 979 l 730 810 l 286 810 l 286 574 l 705 574 l 705 416 l 286 416 l 286 170 l 730 170 l 730 20 q 602 -125 602 -39 q 623 -175 602 -156 q 681 -194 644 -194 q 707 -193 696 -194 q 730 -189 719 -192 l 730 -293 q 690 -303 715 -300 q 637 -307 666 -307 q 566 -297 597 -307 q 511 -267 534 -286 q 477 -221 489 -248 q 465 -161 465 -194 q 488 -71 465 -110 q 563 0 512 -33 l 81 0 z "},"F":{"ha":762,"x_min":81,"x_max":722,"o":"m 81 0 l 81 979 l 722 979 l 722 810 l 286 810 l 286 547 l 684 547 l 684 385 l 286 385 l 286 0 l 81 0 z "},"Ḟ":{"ha":762,"x_min":81,"x_max":722,"o":"m 393 1059 q 353 1066 372 1059 q 321 1088 335 1074 q 300 1120 308 1102 q 292 1160 292 1139 q 300 1199 292 1181 q 321 1231 308 1217 q 353 1252 335 1244 q 393 1260 372 1260 q 433 1252 414 1260 q 465 1231 452 1244 q 487 1199 479 1217 q 494 1160 494 1181 q 487 1120 494 1139 q 465 1088 479 1102 q 433 1066 452 1074 q 393 1059 414 1059 m 81 0 l 81 979 l 722 979 l 722 810 l 286 810 l 286 547 l 684 547 l 684 385 l 286 385 l 286 0 l 81 0 z "},"G":{"ha":1010,"x_min":51,"x_max":956,"o":"m 956 411 q 927 232 956 311 q 841 97 897 153 q 705 13 785 42 q 522 -17 625 -17 q 325 18 412 -17 q 177 118 238 53 q 83 278 116 184 q 51 492 51 373 q 83 703 51 610 q 176 861 116 796 q 323 961 237 926 q 517 996 410 996 q 677 971 603 996 q 807 903 751 947 q 900 798 863 859 q 947 663 937 736 l 742 663 q 710 731 730 701 q 660 783 689 762 q 595 815 631 804 q 518 826 559 826 q 410 804 458 826 q 328 739 361 781 q 277 634 295 696 q 260 495 260 573 q 278 352 260 416 q 332 244 297 289 q 415 177 366 200 q 526 153 465 153 q 617 168 576 153 q 689 209 659 182 q 737 274 720 236 q 756 357 755 311 l 757 372 l 544 372 l 544 522 l 956 522 l 956 411 l 956 411 z "},"Ǵ":{"ha":1010,"x_min":51,"x_max":956,"o":"m 429 1053 l 586 1263 l 771 1263 l 583 1053 l 429 1053 m 956 411 q 927 232 956 311 q 841 97 897 153 q 705 13 785 42 q 522 -17 625 -17 q 325 18 412 -17 q 177 118 238 53 q 83 278 116 184 q 51 492 51 373 q 83 703 51 610 q 176 861 116 796 q 323 961 237 926 q 517 996 410 996 q 677 971 603 996 q 807 903 751 947 q 900 798 863 859 q 947 663 937 736 l 742 663 q 710 731 730 701 q 660 783 689 762 q 595 815 631 804 q 518 826 559 826 q 410 804 458 826 q 328 739 361 781 q 277 634 295 696 q 260 495 260 573 q 278 352 260 416 q 332 244 297 289 q 415 177 366 200 q 526 153 465 153 q 617 168 576 153 q 689 209 659 182 q 737 274 720 236 q 756 357 755 311 l 757 372 l 544 372 l 544 522 l 956 522 l 956 411 z "},"Ǧ":{"ha":1010,"x_min":51,"x_max":956,"o":"m 246 1262 l 397 1262 l 507 1128 l 511 1128 l 622 1262 l 772 1262 l 587 1046 l 432 1046 l 246 1262 m 956 411 q 927 232 956 311 q 841 97 897 153 q 705 13 785 42 q 522 -17 625 -17 q 325 18 412 -17 q 177 118 238 53 q 83 278 116 184 q 51 492 51 373 q 83 703 51 610 q 176 861 116 796 q 323 961 237 926 q 517 996 410 996 q 677 971 603 996 q 807 903 751 947 q 900 798 863 859 q 947 663 937 736 l 742 663 q 710 731 730 701 q 660 783 689 762 q 595 815 631 804 q 518 826 559 826 q 410 804 458 826 q 328 739 361 781 q 277 634 295 696 q 260 495 260 573 q 278 352 260 416 q 332 244 297 289 q 415 177 366 200 q 526 153 465 153 q 617 168 576 153 q 689 209 659 182 q 737 274 720 236 q 756 357 755 311 l 757 372 l 544 372 l 544 522 l 956 522 l 956 411 z "},"Ĝ":{"ha":1010,"x_min":51,"x_max":956,"o":"m 587 1262 l 772 1046 l 622 1046 l 511 1180 l 507 1180 l 397 1046 l 246 1046 l 432 1262 l 587 1262 m 956 411 q 927 232 956 311 q 841 97 897 153 q 705 13 785 42 q 522 -17 625 -17 q 325 18 412 -17 q 177 118 238 53 q 83 278 116 184 q 51 492 51 373 q 83 703 51 610 q 176 861 116 796 q 323 961 237 926 q 517 996 410 996 q 677 971 603 996 q 807 903 751 947 q 900 798 863 859 q 947 663 937 736 l 742 663 q 710 731 730 701 q 660 783 689 762 q 595 815 631 804 q 518 826 559 826 q 410 804 458 826 q 328 739 361 781 q 277 634 295 696 q 260 495 260 573 q 278 352 260 416 q 332 244 297 289 q 415 177 366 200 q 526 153 465 153 q 617 168 576 153 q 689 209 659 182 q 737 274 720 236 q 756 357 755 311 l 757 372 l 544 372 l 544 522 l 956 522 l 956 411 z "},"Ğ":{"ha":1010,"x_min":51,"x_max":956,"o":"m 956 411 q 927 232 956 311 q 841 97 897 153 q 705 13 785 42 q 522 -17 625 -17 q 325 18 412 -17 q 177 118 238 53 q 83 278 116 184 q 51 492 51 373 q 83 703 51 610 q 176 861 116 796 q 323 961 237 926 q 517 996 410 996 q 677 971 603 996 q 807 903 751 947 q 900 798 863 859 q 947 663 937 736 l 742 663 q 710 731 730 701 q 660 783 689 762 q 595 815 631 804 q 518 826 559 826 q 410 804 458 826 q 328 739 361 781 q 277 634 295 696 q 260 495 260 573 q 278 352 260 416 q 332 244 297 289 q 415 177 366 200 q 526 153 465 153 q 617 168 576 153 q 689 209 659 182 q 737 274 720 236 q 756 357 755 311 l 757 372 l 544 372 l 544 522 l 956 522 l 956 411 m 391 1261 q 400 1215 391 1236 q 424 1178 408 1194 q 461 1154 439 1162 q 509 1145 483 1145 q 557 1154 536 1145 q 595 1178 579 1162 q 619 1215 610 1194 q 628 1261 627 1236 l 749 1261 q 731 1177 748 1216 q 684 1108 715 1137 q 609 1063 653 1080 q 509 1046 565 1046 q 410 1063 454 1046 q 335 1108 366 1080 q 287 1177 304 1137 q 270 1261 271 1216 l 391 1261 z "},"Ḡ":{"ha":1010,"x_min":51,"x_max":956,"o":"m 956 411 q 927 232 956 311 q 841 97 897 153 q 705 13 785 42 q 522 -17 625 -17 q 325 18 412 -17 q 177 118 238 53 q 83 278 116 184 q 51 492 51 373 q 83 703 51 610 q 176 861 116 796 q 323 961 237 926 q 517 996 410 996 q 677 971 603 996 q 807 903 751 947 q 900 798 863 859 q 947 663 937 736 l 742 663 q 710 731 730 701 q 660 783 689 762 q 595 815 631 804 q 518 826 559 826 q 410 804 458 826 q 328 739 361 781 q 277 634 295 696 q 260 495 260 573 q 278 352 260 416 q 332 244 297 289 q 415 177 366 200 q 526 153 465 153 q 617 168 576 153 q 689 209 659 182 q 737 274 720 236 q 756 357 755 311 l 757 372 l 544 372 l 544 522 l 956 522 l 956 411 m 744 1101 l 275 1101 l 275 1198 l 744 1198 l 744 1101 z "},"Ġ":{"ha":1010,"x_min":51,"x_max":956,"o":"m 509 1059 q 469 1066 488 1059 q 437 1088 451 1074 q 416 1120 424 1102 q 408 1160 408 1139 q 416 1199 408 1181 q 437 1231 424 1217 q 469 1252 451 1244 q 509 1260 488 1260 q 549 1252 530 1260 q 581 1231 568 1244 q 603 1199 595 1217 q 610 1160 610 1181 q 603 1120 610 1139 q 581 1088 595 1102 q 549 1066 568 1074 q 509 1059 530 1059 m 956 411 q 927 232 956 311 q 841 97 897 153 q 705 13 785 42 q 522 -17 625 -17 q 325 18 412 -17 q 177 118 238 53 q 83 278 116 184 q 51 492 51 373 q 83 703 51 610 q 176 861 116 796 q 323 961 237 926 q 517 996 410 996 q 677 971 603 996 q 807 903 751 947 q 900 798 863 859 q 947 663 937 736 l 742 663 q 710 731 730 701 q 660 783 689 762 q 595 815 631 804 q 518 826 559 826 q 410 804 458 826 q 328 739 361 781 q 277 634 295 696 q 260 495 260 573 q 278 352 260 416 q 332 244 297 289 q 415 177 366 200 q 526 153 465 153 q 617 168 576 153 q 689 209 659 182 q 737 274 720 236 q 756 357 755 311 l 757 372 l 544 372 l 544 522 l 956 522 l 956 411 z "},"Ģ":{"ha":1010,"x_min":51,"x_max":956,"o":"m 347 -339 l 429 -105 l 603 -105 l 494 -339 l 347 -339 m 956 411 q 927 232 956 311 q 841 97 897 153 q 705 13 785 42 q 522 -17 625 -17 q 325 18 412 -17 q 177 118 238 53 q 83 278 116 184 q 51 492 51 373 q 83 703 51 610 q 176 861 116 796 q 323 961 237 926 q 517 996 410 996 q 677 971 603 996 q 807 903 751 947 q 900 798 863 859 q 947 663 937 736 l 742 663 q 710 731 730 701 q 660 783 689 762 q 595 815 631 804 q 518 826 559 826 q 410 804 458 826 q 328 739 361 781 q 277 634 295 696 q 260 495 260 573 q 278 352 260 416 q 332 244 297 289 q 415 177 366 200 q 526 153 465 153 q 617 168 576 153 q 689 209 659 182 q 737 274 720 236 q 756 357 755 311 l 757 372 l 544 372 l 544 522 l 956 522 l 956 411 z "},"H":{"ha":1013,"x_min":81,"x_max":932,"o":"m 727 0 l 727 412 l 286 412 l 286 0 l 81 0 l 81 979 l 286 979 l 286 581 l 727 581 l 727 979 l 932 979 l 932 0 l 727 0 z "},"Ḧ":{"ha":1013,"x_min":81,"x_max":932,"o":"m 727 0 l 727 412 l 286 412 l 286 0 l 81 0 l 81 979 l 286 979 l 286 581 l 727 581 l 727 979 l 932 979 l 932 0 l 727 0 m 365 1059 q 329 1066 345 1059 q 300 1085 312 1073 q 280 1113 288 1097 q 273 1147 273 1129 q 280 1182 273 1166 q 300 1210 288 1198 q 329 1229 312 1222 q 365 1236 345 1236 q 401 1229 385 1236 q 430 1210 418 1222 q 449 1182 442 1198 q 456 1147 456 1166 q 449 1113 456 1129 q 430 1085 442 1097 q 401 1066 418 1073 q 365 1059 385 1059 m 649 1059 q 613 1066 629 1059 q 584 1085 596 1073 q 565 1113 572 1097 q 557 1147 557 1129 q 565 1182 557 1166 q 584 1210 572 1198 q 613 1229 596 1222 q 649 1236 629 1236 q 685 1229 669 1236 q 714 1210 702 1222 q 733 1182 726 1198 q 741 1147 741 1166 q 733 1113 741 1129 q 714 1085 726 1097 q 685 1066 702 1073 q 649 1059 669 1059 z "},"Ȟ":{"ha":1013,"x_min":81,"x_max":932,"o":"m 727 0 l 727 412 l 286 412 l 286 0 l 81 0 l 81 979 l 286 979 l 286 581 l 727 581 l 727 979 l 932 979 l 932 0 l 727 0 m 243 1262 l 394 1262 l 505 1128 l 509 1128 l 619 1262 l 770 1262 l 584 1046 l 429 1046 l 243 1262 z "},"Ĥ":{"ha":1013,"x_min":81,"x_max":932,"o":"m 727 0 l 727 412 l 286 412 l 286 0 l 81 0 l 81 979 l 286 979 l 286 581 l 727 581 l 727 979 l 932 979 l 932 0 l 727 0 m 584 1262 l 770 1046 l 619 1046 l 509 1180 l 505 1180 l 394 1046 l 243 1046 l 429 1262 l 584 1262 z "},"Ḥ":{"ha":1013,"x_min":81,"x_max":932,"o":"m 727 0 l 727 412 l 286 412 l 286 0 l 81 0 l 81 979 l 286 979 l 286 581 l 727 581 l 727 979 l 932 979 l 932 0 l 727 0 m 507 -311 q 467 -303 485 -311 q 435 -281 448 -295 q 413 -249 421 -267 q 406 -210 406 -231 q 413 -170 406 -189 q 435 -138 421 -152 q 467 -117 448 -125 q 507 -109 485 -109 q 546 -117 528 -109 q 578 -138 565 -125 q 600 -170 592 -152 q 608 -210 608 -189 q 600 -249 608 -231 q 578 -281 592 -267 q 546 -303 565 -295 q 507 -311 528 -311 z "},"Ḣ":{"ha":1013,"x_min":81,"x_max":932,"o":"m 727 0 l 727 412 l 286 412 l 286 0 l 81 0 l 81 979 l 286 979 l 286 581 l 727 581 l 727 979 l 932 979 l 932 0 l 727 0 m 507 1059 q 467 1066 485 1059 q 435 1088 448 1074 q 413 1120 421 1102 q 406 1160 406 1139 q 413 1199 406 1181 q 435 1231 421 1217 q 467 1252 448 1244 q 507 1260 485 1260 q 546 1252 528 1260 q 578 1231 565 1244 q 600 1199 592 1217 q 608 1160 608 1181 q 600 1120 608 1139 q 578 1088 592 1102 q 546 1066 565 1074 q 507 1059 528 1059 z "},"Ḫ":{"ha":1013,"x_min":81,"x_max":932,"o":"m 388 -119 q 397 -166 389 -144 q 421 -203 406 -187 q 458 -227 437 -218 q 507 -236 480 -236 q 555 -227 533 -236 q 592 -203 576 -218 q 616 -166 608 -187 q 625 -119 625 -144 l 746 -119 q 729 -204 745 -165 q 681 -272 712 -243 q 606 -318 650 -301 q 507 -334 562 -334 q 407 -318 451 -334 q 332 -272 363 -301 q 284 -204 301 -243 q 267 -119 268 -165 l 388 -119 m 727 0 l 727 412 l 286 412 l 286 0 l 81 0 l 81 979 l 286 979 l 286 581 l 727 581 l 727 979 l 932 979 l 932 0 l 727 0 z "},"Ḩ":{"ha":1013,"x_min":45,"x_max":932,"o":"m 932 979 l 932 0 l 727 0 l 727 412 l 286 412 l 286 0 l 212 0 l 178 -79 q 271 -107 238 -79 q 304 -186 304 -135 q 261 -279 304 -245 q 140 -313 218 -312 q 88 -310 112 -313 q 45 -302 64 -307 l 45 -220 q 79 -227 57 -224 q 121 -230 100 -230 q 193 -193 193 -230 q 174 -163 193 -172 q 109 -155 155 -155 l 71 -155 l 71 -86 l 110 0 l 81 0 l 81 979 l 286 979 l 286 581 l 727 581 l 727 979 l 932 979 z "},"Ħ":{"ha":1042,"x_min":24,"x_max":1018,"o":"m 741 713 l 300 713 l 300 581 l 741 581 l 741 713 m 1018 713 l 946 713 l 946 0 l 741 0 l 741 412 l 300 412 l 300 0 l 96 0 l 96 713 l 24 713 l 24 857 l 96 857 l 96 979 l 300 979 l 300 857 l 741 857 l 741 979 l 946 979 l 946 857 l 1018 857 l 1018 713 z "},"I":{"ha":368,"x_min":81,"x_max":286,"o":"m 81 0 l 81 979 l 286 979 l 286 0 l 81 0 z "},"İ":{"ha":368,"x_min":81,"x_max":286,"o":"m 81 0 l 81 979 l 286 979 l 286 0 l 81 0 m 184 1059 q 144 1066 162 1059 q 112 1088 125 1074 q 91 1120 98 1102 q 83 1160 83 1139 q 91 1199 83 1181 q 112 1231 98 1217 q 144 1252 125 1244 q 184 1260 162 1260 q 223 1252 205 1260 q 256 1231 242 1244 q 277 1199 269 1217 q 285 1160 285 1181 q 277 1120 285 1139 q 256 1088 269 1102 q 223 1066 242 1074 q 184 1059 205 1059 z "},"Ì":{"ha":368,"x_min":-79,"x_max":286,"o":"m 81 0 l 81 979 l 286 979 l 286 0 l 81 0 m -79 1267 l 106 1267 l 263 1057 l 109 1057 l -79 1267 z "},"Ȉ":{"ha":368,"x_min":-212,"x_max":395,"o":"m 81 0 l 81 979 l 286 979 l 286 0 l 81 0 m 56 1263 l 239 1263 l 395 1053 l 245 1053 l 56 1263 m -212 1263 l -30 1263 l 127 1053 l -23 1053 l -212 1263 z "},"Í":{"ha":368,"x_min":81,"x_max":446,"o":"m 81 0 l 81 979 l 286 979 l 286 0 l 81 0 m 103 1053 l 260 1263 l 446 1263 l 258 1053 l 103 1053 z "},"Î":{"ha":368,"x_min":-79,"x_max":447,"o":"m 81 0 l 81 979 l 286 979 l 286 0 l 81 0 m 261 1262 l 447 1046 l 296 1046 l 186 1180 l 182 1180 l 71 1046 l -79 1046 l 106 1262 l 261 1262 z "},"Ǐ":{"ha":368,"x_min":-79,"x_max":447,"o":"m 81 0 l 81 979 l 286 979 l 286 0 l 81 0 m -79 1262 l 71 1262 l 182 1128 l 186 1128 l 296 1262 l 447 1262 l 261 1046 l 106 1046 l -79 1262 z "},"Ï":{"ha":368,"x_min":-50,"x_max":418,"o":"m 81 0 l 81 979 l 286 979 l 286 0 l 81 0 m 42 1059 q 6 1066 22 1059 q -23 1085 -11 1073 q -42 1113 -35 1097 q -50 1147 -50 1129 q -42 1182 -50 1166 q -23 1210 -35 1198 q 6 1229 -11 1222 q 42 1236 22 1236 q 78 1229 62 1236 q 107 1210 95 1222 q 126 1182 119 1198 q 134 1147 134 1166 q 126 1113 134 1129 q 107 1085 119 1097 q 78 1066 95 1073 q 42 1059 62 1059 m 326 1059 q 290 1066 307 1059 q 261 1085 273 1073 q 242 1113 249 1097 q 235 1147 235 1129 q 242 1182 235 1166 q 261 1210 249 1198 q 290 1229 273 1222 q 326 1236 307 1236 q 362 1229 346 1236 q 391 1210 379 1222 q 411 1182 404 1198 q 418 1147 418 1166 q 411 1113 418 1129 q 391 1085 404 1097 q 362 1066 379 1073 q 326 1059 346 1059 z "},"Ḯ":{"ha":368,"x_min":-42,"x_max":412,"o":"m 81 0 l 81 979 l 286 979 l 286 0 l 81 0 m 239 1444 l 412 1444 l 251 1280 l 108 1280 l 239 1444 m 45 1061 q 11 1067 26 1061 q -17 1086 -5 1074 q -36 1113 -29 1097 q -42 1145 -42 1128 q -36 1178 -42 1162 q -17 1205 -29 1194 q 11 1223 -5 1216 q 45 1230 26 1230 q 80 1223 64 1230 q 107 1205 96 1216 q 125 1178 119 1194 q 132 1145 132 1162 q 125 1113 132 1128 q 107 1086 119 1097 q 80 1067 96 1074 q 45 1061 64 1061 m 322 1061 q 288 1067 304 1061 q 260 1086 272 1074 q 242 1113 249 1097 q 235 1145 235 1128 q 242 1178 235 1162 q 260 1205 249 1194 q 288 1223 272 1216 q 322 1230 304 1230 q 357 1223 341 1230 q 385 1205 373 1216 q 403 1178 396 1194 q 410 1145 410 1162 q 403 1113 410 1128 q 385 1086 396 1097 q 357 1067 373 1074 q 322 1061 341 1061 z "},"Ĭ":{"ha":368,"x_min":-56,"x_max":423,"o":"m 81 0 l 81 979 l 286 979 l 286 0 l 81 0 m 65 1261 q 74 1215 66 1236 q 98 1178 83 1194 q 136 1154 114 1162 q 184 1145 157 1145 q 232 1154 210 1145 q 269 1178 254 1162 q 293 1215 285 1194 q 302 1261 302 1236 l 423 1261 q 406 1177 422 1216 q 358 1108 389 1137 q 283 1063 328 1080 q 184 1046 239 1046 q 84 1063 128 1046 q 9 1108 40 1080 q -38 1177 -22 1137 q -56 1261 -55 1216 l 65 1261 z "},"Ị":{"ha":368,"x_min":81,"x_max":286,"o":"m 81 0 l 81 979 l 286 979 l 286 0 l 81 0 m 184 -311 q 144 -303 162 -311 q 112 -281 125 -295 q 91 -249 98 -267 q 83 -210 83 -231 q 91 -170 83 -189 q 112 -138 98 -152 q 144 -117 125 -125 q 184 -109 162 -109 q 223 -117 205 -109 q 256 -138 242 -125 q 277 -170 269 -152 q 285 -210 285 -189 q 277 -249 285 -231 q 256 -281 269 -267 q 223 -303 242 -295 q 184 -311 205 -311 z "},"Ȋ":{"ha":368,"x_min":-56,"x_max":423,"o":"m 81 0 l 81 979 l 286 979 l 286 0 l 81 0 m -56 1046 q -38 1131 -55 1092 q 9 1199 -22 1170 q 84 1245 40 1228 q 184 1261 128 1261 q 283 1245 239 1261 q 358 1199 328 1228 q 406 1131 389 1170 q 423 1046 422 1092 l 302 1046 q 293 1093 302 1072 q 269 1130 285 1114 q 232 1154 254 1145 q 184 1163 210 1163 q 136 1154 157 1163 q 98 1130 114 1145 q 74 1093 83 1114 q 65 1046 66 1072 l -56 1046 z "},"Ī":{"ha":368,"x_min":-51,"x_max":418,"o":"m 81 0 l 81 979 l 286 979 l 286 0 l 81 0 m 418 1101 l -51 1101 l -51 1198 l 418 1198 l 418 1101 z "},"Ḭ":{"ha":368,"x_min":-50,"x_max":424,"o":"m 81 0 l 81 979 l 286 979 l 286 0 l 81 0 m 279 -295 q 237 -288 256 -295 q 203 -271 218 -281 q 175 -249 188 -261 q 151 -227 163 -237 q 127 -210 139 -216 q 104 -203 116 -203 q 69 -225 81 -203 q 57 -283 58 -248 l -50 -283 q -39 -206 -50 -240 q -8 -148 -28 -172 q 38 -112 11 -124 q 96 -100 64 -100 q 157 -114 132 -100 q 202 -145 182 -128 q 238 -177 222 -163 q 273 -191 254 -191 q 305 -170 294 -191 q 317 -109 316 -148 l 424 -109 q 413 -186 424 -152 q 382 -245 401 -221 q 336 -282 363 -269 q 279 -295 309 -295 z "},"Ỉ":{"ha":368,"x_min":58,"x_max":316,"o":"m 81 0 l 81 979 l 286 979 l 286 0 l 81 0 m 58 1303 q 102 1316 76 1312 q 155 1320 128 1320 q 222 1311 192 1320 q 272 1285 252 1302 q 304 1243 293 1268 q 316 1188 316 1219 q 307 1140 316 1164 q 280 1097 297 1117 q 240 1061 263 1077 q 189 1034 216 1044 l 130 1105 q 178 1135 159 1115 q 196 1177 196 1155 q 178 1213 196 1199 q 130 1227 160 1227 q 93 1223 113 1227 q 58 1214 73 1220 l 58 1303 z "},"Ĩ":{"ha":368,"x_min":-50,"x_max":424,"o":"m 81 0 l 81 979 l 286 979 l 286 0 l 81 0 m 279 1045 q 237 1052 256 1045 q 203 1069 218 1059 q 175 1091 188 1079 q 151 1114 163 1103 q 127 1131 139 1124 q 104 1137 116 1137 q 69 1115 81 1137 q 57 1057 58 1093 l -50 1057 q -39 1134 -50 1100 q -8 1192 -28 1168 q 38 1228 11 1216 q 96 1240 64 1240 q 157 1226 132 1240 q 202 1195 182 1212 q 238 1163 222 1177 q 273 1149 254 1149 q 305 1171 294 1149 q 317 1232 316 1192 l 424 1232 q 413 1154 424 1188 q 382 1095 401 1119 q 336 1058 363 1071 q 279 1045 309 1045 z "},"Į":{"ha":368,"x_min":17,"x_max":286,"o":"m 185 -307 q 117 -296 148 -307 q 64 -266 86 -286 q 29 -218 41 -245 q 17 -157 17 -191 q 42 -65 17 -104 q 121 8 66 -26 l 81 8 l 81 979 l 286 979 l 286 5 l 250 5 q 151 -120 151 -45 q 172 -174 151 -154 q 229 -194 194 -194 q 249 -193 239 -194 q 268 -191 258 -192 l 268 -296 q 185 -307 233 -307 z "},"J":{"ha":775,"x_min":21,"x_max":686,"o":"m 220 288 q 230 234 220 258 q 256 193 239 210 q 297 166 273 176 q 350 157 321 157 q 448 195 414 157 q 481 308 481 234 l 481 979 l 686 979 l 686 307 q 664 168 686 229 q 598 65 641 106 q 493 1 555 23 q 352 -20 431 -20 q 216 2 277 -20 q 112 64 155 24 q 45 161 68 104 q 21 288 21 218 l 220 288 z "},"Ĵ":{"ha":775,"x_min":21,"x_max":850,"o":"m 220 288 q 230 234 220 258 q 256 193 239 210 q 297 166 273 176 q 350 157 321 157 q 448 195 414 157 q 481 308 481 234 l 481 979 l 686 979 l 686 307 q 664 168 686 229 q 598 65 641 106 q 493 1 555 23 q 352 -20 431 -20 q 216 2 277 -20 q 112 64 155 24 q 45 161 68 104 q 21 288 21 218 l 220 288 m 664 1262 l 850 1046 l 699 1046 l 589 1180 l 585 1180 l 474 1046 l 323 1046 l 509 1262 l 664 1262 z "},"K":{"ha":918,"x_min":81,"x_max":913,"o":"m 81 0 l 81 979 l 286 979 l 286 532 l 292 532 l 660 979 l 888 979 l 526 545 l 913 0 l 668 0 l 378 409 l 286 299 l 286 0 l 81 0 z "},"Ḱ":{"ha":918,"x_min":81,"x_max":913,"o":"m 371 1053 l 528 1263 l 713 1263 l 526 1053 l 371 1053 m 81 0 l 81 979 l 286 979 l 286 532 l 292 532 l 660 979 l 888 979 l 526 545 l 913 0 l 668 0 l 378 409 l 286 299 l 286 0 l 81 0 z "},"Ǩ":{"ha":918,"x_min":81,"x_max":913,"o":"m 81 0 l 81 979 l 286 979 l 286 532 l 292 532 l 660 979 l 888 979 l 526 545 l 913 0 l 668 0 l 378 409 l 286 299 l 286 0 l 81 0 m 189 1262 l 339 1262 l 450 1128 l 454 1128 l 564 1262 l 715 1262 l 529 1046 l 374 1046 l 189 1262 z "},"Ḳ":{"ha":918,"x_min":81,"x_max":913,"o":"m 452 -311 q 412 -303 430 -311 q 380 -281 393 -295 q 358 -249 366 -267 q 351 -210 351 -231 q 358 -170 351 -189 q 380 -138 366 -152 q 412 -117 393 -125 q 452 -109 430 -109 q 491 -117 473 -109 q 524 -138 510 -125 q 545 -170 537 -152 q 553 -210 553 -189 q 545 -249 553 -231 q 524 -281 537 -267 q 491 -303 510 -295 q 452 -311 473 -311 m 81 0 l 81 979 l 286 979 l 286 532 l 292 532 l 660 979 l 888 979 l 526 545 l 913 0 l 668 0 l 378 409 l 286 299 l 286 0 l 81 0 z "},"Ḵ":{"ha":918,"x_min":81,"x_max":913,"o":"m 81 0 l 81 979 l 286 979 l 286 532 l 292 532 l 660 979 l 888 979 l 526 545 l 913 0 l 668 0 l 378 409 l 286 299 l 286 0 l 81 0 m 686 -253 l 217 -253 l 217 -156 l 686 -156 l 686 -253 z "},"Ķ":{"ha":918,"x_min":81,"x_max":913,"o":"m 81 0 l 81 979 l 286 979 l 286 532 l 292 532 l 660 979 l 888 979 l 526 545 l 913 0 l 668 0 l 378 409 l 286 299 l 286 0 l 81 0 m 290 -339 l 372 -105 l 545 -105 l 437 -339 l 290 -339 z "},"L":{"ha":754,"x_min":81,"x_max":714,"o":"m 714 0 l 81 0 l 81 979 l 286 979 l 286 170 l 714 170 l 714 0 z "},"Ĺ":{"ha":754,"x_min":81,"x_max":714,"o":"m 103 1053 l 260 1263 l 446 1263 l 258 1053 l 103 1053 m 714 0 l 81 0 l 81 979 l 286 979 l 286 170 l 714 170 l 714 0 z "},"Ḽ":{"ha":754,"x_min":81,"x_max":714,"o":"m 714 0 l 81 0 l 81 979 l 286 979 l 286 170 l 714 170 l 714 0 m 469 -109 l 654 -324 l 504 -324 l 393 -191 l 389 -191 l 279 -324 l 128 -324 l 314 -109 l 469 -109 z "},"Ḷ":{"ha":754,"x_min":81,"x_max":714,"o":"m 391 -311 q 351 -303 370 -311 q 319 -281 333 -295 q 298 -249 306 -267 q 290 -210 290 -231 q 298 -170 290 -189 q 319 -138 306 -152 q 351 -117 333 -125 q 391 -109 370 -109 q 431 -117 412 -109 q 463 -138 450 -125 q 485 -170 477 -152 q 492 -210 492 -189 q 485 -249 492 -231 q 463 -281 477 -267 q 431 -303 450 -295 q 391 -311 412 -311 m 714 0 l 81 0 l 81 979 l 286 979 l 286 170 l 714 170 l 714 0 z "},"Ḹ":{"ha":754,"x_min":-51,"x_max":714,"o":"m 391 -311 q 351 -303 370 -311 q 319 -281 333 -295 q 298 -249 306 -267 q 290 -210 290 -231 q 298 -170 290 -189 q 319 -138 306 -152 q 351 -117 333 -125 q 391 -109 370 -109 q 431 -117 412 -109 q 463 -138 450 -125 q 485 -170 477 -152 q 492 -210 492 -189 q 485 -249 492 -231 q 463 -281 477 -267 q 431 -303 450 -295 q 391 -311 412 -311 m 714 0 l 81 0 l 81 979 l 286 979 l 286 170 l 714 170 l 714 0 m 418 1101 l -51 1101 l -51 1198 l 418 1198 l 418 1101 z "},"Ḻ":{"ha":754,"x_min":81,"x_max":714,"o":"m 626 -253 l 157 -253 l 157 -156 l 626 -156 l 626 -253 m 714 0 l 81 0 l 81 979 l 286 979 l 286 170 l 714 170 l 714 0 z "},"Ļ":{"ha":754,"x_min":81,"x_max":714,"o":"m 229 -339 l 311 -105 l 485 -105 l 376 -339 l 229 -339 m 714 0 l 81 0 l 81 979 l 286 979 l 286 170 l 714 170 l 714 0 z "},"Ľ":{"ha":754,"x_min":81,"x_max":714,"o":"m 625 979 l 591 637 l 458 637 l 458 979 l 625 979 m 714 0 l 81 0 l 81 979 l 286 979 l 286 170 l 714 170 l 714 0 z "},"Ł":{"ha":765,"x_min":26,"x_max":725,"o":"m 725 170 l 725 0 l 92 0 l 92 433 l 26 399 l 26 534 l 92 568 l 92 979 l 297 979 l 297 671 l 496 771 l 496 635 l 297 536 l 297 170 l 725 170 z "},"M":{"ha":1199,"x_min":81,"x_max":1118,"o":"m 1118 0 l 935 0 l 935 661 l 930 661 l 664 9 l 535 9 l 269 661 l 264 661 l 264 0 l 81 0 l 81 979 l 319 979 l 597 285 l 602 285 l 880 979 l 1118 979 l 1118 0 z "},"Ḿ":{"ha":1199,"x_min":81,"x_max":1118,"o":"m 1118 0 l 935 0 l 935 661 l 930 661 l 664 9 l 535 9 l 269 661 l 264 661 l 264 0 l 81 0 l 81 979 l 319 979 l 597 285 l 602 285 l 880 979 l 1118 979 l 1118 0 m 519 1053 l 676 1263 l 861 1263 l 673 1053 l 519 1053 z "},"Ṁ":{"ha":1199,"x_min":81,"x_max":1118,"o":"m 1118 0 l 935 0 l 935 661 l 930 661 l 664 9 l 535 9 l 269 661 l 264 661 l 264 0 l 81 0 l 81 979 l 319 979 l 597 285 l 602 285 l 880 979 l 1118 979 l 1118 0 m 600 1059 q 559 1066 578 1059 q 528 1088 541 1074 q 506 1120 514 1102 q 498 1160 498 1139 q 506 1199 498 1181 q 528 1231 514 1217 q 559 1252 541 1244 q 600 1260 578 1260 q 639 1252 621 1260 q 671 1231 658 1244 q 693 1199 685 1217 q 701 1160 701 1181 q 693 1120 701 1139 q 671 1088 685 1102 q 639 1066 658 1074 q 600 1059 621 1059 z "},"Ṃ":{"ha":1199,"x_min":81,"x_max":1118,"o":"m 1118 0 l 935 0 l 935 661 l 930 661 l 664 9 l 535 9 l 269 661 l 264 661 l 264 0 l 81 0 l 81 979 l 319 979 l 597 285 l 602 285 l 880 979 l 1118 979 l 1118 0 m 600 -311 q 559 -303 578 -311 q 528 -281 541 -295 q 506 -249 514 -267 q 498 -210 498 -231 q 506 -170 498 -189 q 528 -138 514 -152 q 559 -117 541 -125 q 600 -109 578 -109 q 639 -117 621 -109 q 671 -138 658 -125 q 693 -170 685 -152 q 701 -210 701 -189 q 693 -249 701 -231 q 671 -281 685 -267 q 639 -303 658 -295 q 600 -311 621 -311 z "},"N":{"ha":992,"x_min":81,"x_max":911,"o":"m 81 0 l 81 979 l 252 979 l 709 341 l 715 341 l 715 979 l 911 979 l 911 0 l 741 0 l 283 641 l 277 641 l 277 0 l 81 0 z "},"Ǹ":{"ha":992,"x_min":81,"x_max":911,"o":"m 233 1267 l 418 1267 l 576 1057 l 422 1057 l 233 1267 m 81 0 l 81 979 l 252 979 l 709 341 l 715 341 l 715 979 l 911 979 l 911 0 l 741 0 l 283 641 l 277 641 l 277 0 l 81 0 z "},"Ń":{"ha":992,"x_min":81,"x_max":911,"o":"m 416 1053 l 573 1263 l 758 1263 l 570 1053 l 416 1053 m 81 0 l 81 979 l 252 979 l 709 341 l 715 341 l 715 979 l 911 979 l 911 0 l 741 0 l 283 641 l 277 641 l 277 0 l 81 0 z "},"Ñ":{"ha":992,"x_min":81,"x_max":911,"o":"m 591 1045 q 550 1052 568 1045 q 516 1069 531 1059 q 488 1091 500 1079 q 464 1114 475 1103 q 440 1131 452 1124 q 416 1137 429 1137 q 382 1115 393 1137 q 370 1057 370 1093 l 262 1057 q 274 1134 262 1100 q 304 1192 285 1168 q 350 1228 323 1216 q 408 1240 377 1240 q 470 1226 444 1240 q 515 1195 495 1212 q 551 1163 534 1177 q 585 1149 567 1149 q 618 1171 607 1149 q 629 1232 629 1192 l 736 1232 q 725 1154 736 1188 q 695 1095 714 1119 q 649 1058 675 1071 q 591 1045 622 1045 m 81 0 l 81 979 l 252 979 l 709 341 l 715 341 l 715 979 l 911 979 l 911 0 l 741 0 l 283 641 l 277 641 l 277 0 l 81 0 z "},"Ṇ":{"ha":992,"x_min":81,"x_max":911,"o":"m 496 -311 q 456 -303 475 -311 q 425 -281 438 -295 q 403 -249 411 -267 q 395 -210 395 -231 q 403 -170 395 -189 q 425 -138 411 -152 q 456 -117 438 -125 q 496 -109 475 -109 q 536 -117 517 -109 q 568 -138 555 -125 q 590 -170 582 -152 q 597 -210 597 -189 q 590 -249 597 -231 q 568 -281 582 -267 q 536 -303 555 -295 q 496 -311 517 -311 m 81 0 l 81 979 l 252 979 l 709 341 l 715 341 l 715 979 l 911 979 l 911 0 l 741 0 l 283 641 l 277 641 l 277 0 l 81 0 z "},"Ṅ":{"ha":992,"x_min":81,"x_max":911,"o":"m 496 1059 q 456 1066 475 1059 q 425 1088 438 1074 q 403 1120 411 1102 q 395 1160 395 1139 q 403 1199 395 1181 q 425 1231 411 1217 q 456 1252 438 1244 q 496 1260 475 1260 q 536 1252 517 1260 q 568 1231 555 1244 q 590 1199 582 1217 q 597 1160 597 1181 q 590 1120 597 1139 q 568 1088 582 1102 q 536 1066 555 1074 q 496 1059 517 1059 m 81 0 l 81 979 l 252 979 l 709 341 l 715 341 l 715 979 l 911 979 l 911 0 l 741 0 l 283 641 l 277 641 l 277 0 l 81 0 z "},"Ň":{"ha":992,"x_min":81,"x_max":911,"o":"m 233 1262 l 384 1262 l 494 1128 l 498 1128 l 609 1262 l 760 1262 l 574 1046 l 419 1046 l 233 1262 m 81 0 l 81 979 l 252 979 l 709 341 l 715 341 l 715 979 l 911 979 l 911 0 l 741 0 l 283 641 l 277 641 l 277 0 l 81 0 z "},"Ṋ":{"ha":992,"x_min":81,"x_max":911,"o":"m 81 0 l 81 979 l 252 979 l 709 341 l 715 341 l 715 979 l 911 979 l 911 0 l 741 0 l 283 641 l 277 641 l 277 0 l 81 0 m 574 -109 l 760 -324 l 609 -324 l 498 -191 l 494 -191 l 384 -324 l 233 -324 l 419 -109 l 574 -109 z "},"Ṉ":{"ha":992,"x_min":81,"x_max":911,"o":"m 731 -253 l 262 -253 l 262 -156 l 731 -156 l 731 -253 m 81 0 l 81 979 l 252 979 l 709 341 l 715 341 l 715 979 l 911 979 l 911 0 l 741 0 l 283 641 l 277 641 l 277 0 l 81 0 z "},"Ņ":{"ha":992,"x_min":81,"x_max":911,"o":"m 334 -339 l 416 -105 l 590 -105 l 481 -339 l 334 -339 m 81 0 l 81 979 l 252 979 l 709 341 l 715 341 l 715 979 l 911 979 l 911 0 l 741 0 l 283 641 l 277 641 l 277 0 l 81 0 z "},"O":{"ha":1045,"x_min":51,"x_max":995,"o":"m 523 996 q 719 960 631 996 q 868 859 806 925 q 962 700 929 793 q 995 489 995 606 q 962 279 995 372 q 868 119 929 185 q 719 18 806 54 q 523 -17 631 -17 q 327 18 414 -17 q 178 119 239 54 q 84 279 117 185 q 51 489 51 372 q 84 700 51 606 q 178 859 117 793 q 327 960 239 925 q 523 996 414 996 m 523 825 q 414 801 463 825 q 331 734 366 778 q 278 628 297 690 q 260 489 260 566 q 278 350 260 412 q 331 245 297 288 q 414 178 366 201 q 523 155 463 155 q 631 178 583 155 q 714 245 680 201 q 767 350 748 288 q 785 489 785 412 q 767 628 785 566 q 714 734 748 690 q 631 801 680 778 q 523 825 583 825 z "},"Ö":{"ha":1045,"x_min":51,"x_max":995,"o":"m 381 1059 q 345 1066 361 1059 q 316 1085 328 1073 q 297 1113 304 1097 q 290 1147 290 1129 q 297 1182 290 1166 q 316 1210 304 1198 q 345 1229 328 1222 q 381 1236 361 1236 q 417 1229 401 1236 q 446 1210 434 1222 q 466 1182 458 1198 q 473 1147 473 1166 q 466 1113 473 1129 q 446 1085 458 1097 q 417 1066 434 1073 q 381 1059 401 1059 m 665 1059 q 629 1066 646 1059 q 600 1085 612 1073 q 581 1113 588 1097 q 574 1147 574 1129 q 581 1182 574 1166 q 600 1210 588 1198 q 629 1229 612 1222 q 665 1236 646 1236 q 702 1229 685 1236 q 730 1210 718 1222 q 750 1182 743 1198 q 757 1147 757 1166 q 750 1113 757 1129 q 730 1085 743 1097 q 702 1066 718 1073 q 665 1059 685 1059 m 523 996 q 719 960 631 996 q 868 859 806 925 q 962 700 929 793 q 995 489 995 606 q 962 279 995 372 q 868 119 929 185 q 719 18 806 54 q 523 -17 631 -17 q 327 18 414 -17 q 178 119 239 54 q 84 279 117 185 q 51 489 51 372 q 84 700 51 606 q 178 859 117 793 q 327 960 239 925 q 523 996 414 996 m 523 825 q 414 801 463 825 q 331 734 366 778 q 278 628 297 690 q 260 489 260 566 q 278 350 260 412 q 331 245 297 288 q 414 178 366 201 q 523 155 463 155 q 631 178 583 155 q 714 245 680 201 q 767 350 748 288 q 785 489 785 412 q 767 628 785 566 q 714 734 748 690 q 631 801 680 778 q 523 825 583 825 z "},"Ø":{"ha":1045,"x_min":51,"x_max":995,"o":"m 391 191 q 452 164 419 174 q 523 155 485 155 q 631 178 583 155 q 714 245 680 201 q 767 350 748 288 q 785 489 785 412 q 772 609 785 555 q 733 706 759 664 l 391 191 m 677 772 q 607 811 646 798 q 523 825 568 825 q 414 801 463 825 q 331 734 366 778 q 278 628 297 690 q 260 489 260 566 q 277 352 260 413 q 328 248 295 292 l 677 772 m 848 879 q 957 714 919 812 q 995 489 995 616 q 962 279 995 372 q 868 119 929 185 q 719 18 806 54 q 523 -17 631 -17 q 396 -3 455 -17 q 288 36 338 10 l 233 -45 l 164 1 l 218 82 q 94 251 138 148 q 51 489 51 353 q 84 700 51 606 q 178 859 117 793 q 327 960 239 925 q 523 996 414 996 q 663 979 598 996 q 781 929 728 962 l 842 1021 l 916 981 l 848 879 z "},"Õ":{"ha":1045,"x_min":51,"x_max":995,"o":"m 523 996 q 719 960 631 996 q 868 859 806 925 q 962 700 929 793 q 995 489 995 606 q 962 279 995 372 q 868 119 929 185 q 719 18 806 54 q 523 -17 631 -17 q 327 18 414 -17 q 178 119 239 54 q 84 279 117 185 q 51 489 51 372 q 84 700 51 606 q 178 859 117 793 q 327 960 239 925 q 523 996 414 996 m 523 825 q 414 801 463 825 q 331 734 366 778 q 278 628 297 690 q 260 489 260 566 q 278 350 260 412 q 331 245 297 288 q 414 178 366 201 q 523 155 463 155 q 631 178 583 155 q 714 245 680 201 q 767 350 748 288 q 785 489 785 412 q 767 628 785 566 q 714 734 748 690 q 631 801 680 778 q 523 825 583 825 m 618 1045 q 576 1052 595 1045 q 542 1069 557 1059 q 514 1091 527 1079 q 490 1114 502 1103 q 467 1131 478 1124 q 443 1137 455 1137 q 408 1115 420 1137 q 396 1057 397 1093 l 289 1057 q 300 1134 289 1100 q 331 1192 311 1168 q 377 1228 350 1216 q 435 1240 404 1240 q 496 1226 471 1240 q 541 1195 522 1212 q 577 1163 561 1177 q 612 1149 593 1149 q 644 1171 633 1149 q 656 1232 655 1192 l 763 1232 q 752 1154 763 1188 q 721 1095 741 1119 q 675 1058 702 1071 q 618 1045 648 1045 z "},"Ó":{"ha":1045,"x_min":51,"x_max":995,"o":"m 442 1053 l 600 1263 l 785 1263 l 597 1053 l 442 1053 m 523 996 q 719 960 631 996 q 868 859 806 925 q 962 700 929 793 q 995 489 995 606 q 962 279 995 372 q 868 119 929 185 q 719 18 806 54 q 523 -17 631 -17 q 327 18 414 -17 q 178 119 239 54 q 84 279 117 185 q 51 489 51 372 q 84 700 51 606 q 178 859 117 793 q 327 960 239 925 q 523 996 414 996 m 523 825 q 414 801 463 825 q 331 734 366 778 q 278 628 297 690 q 260 489 260 566 q 278 350 260 412 q 331 245 297 288 q 414 178 366 201 q 523 155 463 155 q 631 178 583 155 q 714 245 680 201 q 767 350 748 288 q 785 489 785 412 q 767 628 785 566 q 714 734 748 690 q 631 801 680 778 q 523 825 583 825 z "},"Ô":{"ha":1045,"x_min":51,"x_max":995,"o":"m 600 1262 l 786 1046 l 635 1046 l 525 1180 l 521 1180 l 410 1046 l 260 1046 l 446 1262 l 600 1262 m 523 996 q 719 960 631 996 q 868 859 806 925 q 962 700 929 793 q 995 489 995 606 q 962 279 995 372 q 868 119 929 185 q 719 18 806 54 q 523 -17 631 -17 q 327 18 414 -17 q 178 119 239 54 q 84 279 117 185 q 51 489 51 372 q 84 700 51 606 q 178 859 117 793 q 327 960 239 925 q 523 996 414 996 m 523 825 q 414 801 463 825 q 331 734 366 778 q 278 628 297 690 q 260 489 260 566 q 278 350 260 412 q 331 245 297 288 q 414 178 366 201 q 523 155 463 155 q 631 178 583 155 q 714 245 680 201 q 767 350 748 288 q 785 489 785 412 q 767 628 785 566 q 714 734 748 690 q 631 801 680 778 q 523 825 583 825 z "},"Ò":{"ha":1045,"x_min":51,"x_max":995,"o":"m 260 1267 l 445 1267 l 602 1057 l 448 1057 l 260 1267 m 523 996 q 719 960 631 996 q 868 859 806 925 q 962 700 929 793 q 995 489 995 606 q 962 279 995 372 q 868 119 929 185 q 719 18 806 54 q 523 -17 631 -17 q 327 18 414 -17 q 178 119 239 54 q 84 279 117 185 q 51 489 51 372 q 84 700 51 606 q 178 859 117 793 q 327 960 239 925 q 523 996 414 996 m 523 825 q 414 801 463 825 q 331 734 366 778 q 278 628 297 690 q 260 489 260 566 q 278 350 260 412 q 331 245 297 288 q 414 178 366 201 q 523 155 463 155 q 631 178 583 155 q 714 245 680 201 q 767 350 748 288 q 785 489 785 412 q 767 628 785 566 q 714 734 748 690 q 631 801 680 778 q 523 825 583 825 z "},"Ổ":{"ha":1045,"x_min":51,"x_max":995,"o":"m 603 1234 l 779 1055 l 623 1055 l 528 1156 l 519 1156 l 425 1055 l 268 1055 l 445 1234 l 603 1234 m 603 1429 q 644 1442 619 1437 q 694 1447 669 1447 q 757 1438 729 1447 q 805 1412 785 1429 q 835 1371 825 1395 q 846 1318 846 1348 q 839 1275 846 1296 q 819 1235 832 1254 q 787 1202 806 1217 q 743 1178 768 1187 l 681 1244 q 719 1271 707 1254 q 731 1308 731 1289 q 714 1342 731 1329 q 669 1355 698 1355 q 634 1352 652 1355 q 603 1343 616 1349 l 603 1429 m 523 996 q 719 960 631 996 q 868 859 806 925 q 962 700 929 793 q 995 489 995 606 q 962 279 995 372 q 868 119 929 185 q 719 18 806 54 q 523 -17 631 -17 q 327 18 414 -17 q 178 119 239 54 q 84 279 117 185 q 51 489 51 372 q 84 700 51 606 q 178 859 117 793 q 327 960 239 925 q 523 996 414 996 m 523 825 q 414 801 463 825 q 331 734 366 778 q 278 628 297 690 q 260 489 260 566 q 278 350 260 412 q 331 245 297 288 q 414 178 366 201 q 523 155 463 155 q 631 178 583 155 q 714 245 680 201 q 767 350 748 288 q 785 489 785 412 q 767 628 785 566 q 714 734 748 690 q 631 801 680 778 q 523 825 583 825 z "},"Ồ":{"ha":1045,"x_min":51,"x_max":995,"o":"m 602 1234 l 779 1055 l 622 1055 l 527 1156 l 519 1156 l 424 1055 l 267 1055 l 444 1234 l 602 1234 m 613 1280 l 452 1444 l 625 1444 l 756 1280 l 613 1280 m 523 996 q 719 960 631 996 q 868 859 806 925 q 962 700 929 793 q 995 489 995 606 q 962 279 995 372 q 868 119 929 185 q 719 18 806 54 q 523 -17 631 -17 q 327 18 414 -17 q 178 119 239 54 q 84 279 117 185 q 51 489 51 372 q 84 700 51 606 q 178 859 117 793 q 327 960 239 925 q 523 996 414 996 m 523 825 q 414 801 463 825 q 331 734 366 778 q 278 628 297 690 q 260 489 260 566 q 278 350 260 412 q 331 245 297 288 q 414 178 366 201 q 523 155 463 155 q 631 178 583 155 q 714 245 680 201 q 767 350 748 288 q 785 489 785 412 q 767 628 785 566 q 714 734 748 690 q 631 801 680 778 q 523 825 583 825 z "},"Ọ":{"ha":1045,"x_min":51,"x_max":995,"o":"m 523 -311 q 483 -303 501 -311 q 451 -281 465 -295 q 430 -249 437 -267 q 422 -210 422 -231 q 430 -170 422 -189 q 451 -138 437 -152 q 483 -117 465 -125 q 523 -109 501 -109 q 563 -117 544 -109 q 595 -138 581 -125 q 616 -170 608 -152 q 624 -210 624 -189 q 616 -249 624 -231 q 595 -281 608 -267 q 563 -303 581 -295 q 523 -311 544 -311 m 523 996 q 719 960 631 996 q 868 859 806 925 q 962 700 929 793 q 995 489 995 606 q 962 279 995 372 q 868 119 929 185 q 719 18 806 54 q 523 -17 631 -17 q 327 18 414 -17 q 178 119 239 54 q 84 279 117 185 q 51 489 51 372 q 84 700 51 606 q 178 859 117 793 q 327 960 239 925 q 523 996 414 996 m 523 825 q 414 801 463 825 q 331 734 366 778 q 278 628 297 690 q 260 489 260 566 q 278 350 260 412 q 331 245 297 288 q 414 178 366 201 q 523 155 463 155 q 631 178 583 155 q 714 245 680 201 q 767 350 748 288 q 785 489 785 412 q 767 628 785 566 q 714 734 748 690 q 631 801 680 778 q 523 825 583 825 z "},"Ȍ":{"ha":1045,"x_min":51,"x_max":995,"o":"m 395 1263 l 578 1263 l 734 1053 l 584 1053 l 395 1263 m 127 1263 l 309 1263 l 467 1053 l 316 1053 l 127 1263 m 523 996 q 719 960 631 996 q 868 859 806 925 q 962 700 929 793 q 995 489 995 606 q 962 279 995 372 q 868 119 929 185 q 719 18 806 54 q 523 -17 631 -17 q 327 18 414 -17 q 178 119 239 54 q 84 279 117 185 q 51 489 51 372 q 84 700 51 606 q 178 859 117 793 q 327 960 239 925 q 523 996 414 996 m 523 825 q 414 801 463 825 q 331 734 366 778 q 278 628 297 690 q 260 489 260 566 q 278 350 260 412 q 331 245 297 288 q 414 178 366 201 q 523 155 463 155 q 631 178 583 155 q 714 245 680 201 q 767 350 748 288 q 785 489 785 412 q 767 628 785 566 q 714 734 748 690 q 631 801 680 778 q 523 825 583 825 z "},"Ṍ":{"ha":1045,"x_min":51,"x_max":995,"o":"m 523 996 q 719 960 631 996 q 868 859 806 925 q 962 700 929 793 q 995 489 995 606 q 962 279 995 372 q 868 119 929 185 q 719 18 806 54 q 523 -17 631 -17 q 327 18 414 -17 q 178 119 239 54 q 84 279 117 185 q 51 489 51 372 q 84 700 51 606 q 178 859 117 793 q 327 960 239 925 q 523 996 414 996 m 523 825 q 414 801 463 825 q 331 734 366 778 q 278 628 297 690 q 260 489 260 566 q 278 350 260 412 q 331 245 297 288 q 414 178 366 201 q 523 155 463 155 q 631 178 583 155 q 714 245 680 201 q 767 350 748 288 q 785 489 785 412 q 767 628 785 566 q 714 734 748 690 q 631 801 680 778 q 523 825 583 825 m 615 1042 q 573 1048 591 1042 q 539 1065 554 1055 q 511 1088 524 1076 q 486 1110 498 1100 q 463 1127 474 1120 q 439 1134 451 1134 q 404 1112 416 1134 q 392 1053 393 1090 l 285 1053 q 296 1131 285 1097 q 326 1189 307 1166 q 372 1225 345 1213 q 430 1238 398 1238 q 473 1231 454 1238 q 508 1214 492 1224 q 537 1191 524 1203 q 562 1169 550 1179 q 585 1152 574 1158 q 608 1145 596 1145 q 641 1167 630 1145 q 652 1227 652 1189 l 760 1227 q 749 1150 760 1184 q 719 1092 738 1116 q 673 1055 699 1067 q 615 1042 646 1042 m 579 1444 l 751 1444 l 591 1280 l 448 1280 l 579 1444 z "},"Ṓ":{"ha":1045,"x_min":51,"x_max":995,"o":"m 288 1101 l 288 1198 l 758 1198 l 758 1101 l 288 1101 m 578 1444 l 751 1444 l 590 1280 l 447 1280 l 578 1444 m 523 996 q 719 960 631 996 q 868 859 806 925 q 962 700 929 793 q 995 489 995 606 q 962 279 995 372 q 868 119 929 185 q 719 18 806 54 q 523 -17 631 -17 q 327 18 414 -17 q 178 119 239 54 q 84 279 117 185 q 51 489 51 372 q 84 700 51 606 q 178 859 117 793 q 327 960 239 925 q 523 996 414 996 m 523 825 q 414 801 463 825 q 331 734 366 778 q 278 628 297 690 q 260 489 260 566 q 278 350 260 412 q 331 245 297 288 q 414 178 366 201 q 523 155 463 155 q 631 178 583 155 q 714 245 680 201 q 767 350 748 288 q 785 489 785 412 q 767 628 785 566 q 714 734 748 690 q 631 801 680 778 q 523 825 583 825 z "},"Ỗ":{"ha":1045,"x_min":51,"x_max":995,"o":"m 614 1270 q 571 1277 589 1270 q 538 1293 553 1283 q 512 1314 524 1302 q 490 1335 500 1325 q 468 1351 479 1344 q 444 1357 456 1357 q 408 1337 419 1357 q 395 1282 396 1318 l 290 1282 q 300 1356 290 1324 q 331 1411 311 1388 q 377 1444 351 1433 q 436 1456 404 1456 q 479 1450 460 1456 q 513 1434 498 1443 q 540 1413 528 1424 q 563 1392 552 1402 q 583 1376 573 1383 q 606 1370 593 1370 q 641 1390 629 1370 q 654 1446 652 1409 l 759 1446 q 748 1373 759 1405 q 717 1317 736 1340 q 671 1282 698 1295 q 614 1270 645 1270 m 602 1228 l 779 1055 l 622 1055 l 527 1150 l 519 1150 l 424 1055 l 267 1055 l 444 1228 l 602 1228 m 523 996 q 719 960 631 996 q 868 859 806 925 q 962 700 929 793 q 995 489 995 606 q 962 279 995 372 q 868 119 929 185 q 719 18 806 54 q 523 -17 631 -17 q 327 18 414 -17 q 178 119 239 54 q 84 279 117 185 q 51 489 51 372 q 84 700 51 606 q 178 859 117 793 q 327 960 239 925 q 523 996 414 996 m 523 825 q 414 801 463 825 q 331 734 366 778 q 278 628 297 690 q 260 489 260 566 q 278 350 260 412 q 331 245 297 288 q 414 178 366 201 q 523 155 463 155 q 631 178 583 155 q 714 245 680 201 q 767 350 748 288 q 785 489 785 412 q 767 628 785 566 q 714 734 748 690 q 631 801 680 778 q 523 825 583 825 z "},"Ȱ":{"ha":1045,"x_min":51,"x_max":995,"o":"m 523 1055 q 486 1062 503 1055 q 456 1081 469 1069 q 436 1110 444 1093 q 429 1145 429 1126 q 436 1180 429 1164 q 456 1208 444 1196 q 486 1228 469 1221 q 523 1235 503 1235 q 560 1228 543 1235 q 590 1208 577 1221 q 609 1180 602 1196 q 616 1145 616 1164 q 609 1110 616 1126 q 590 1081 602 1093 q 560 1062 577 1069 q 523 1055 543 1055 m 758 1309 l 288 1309 l 288 1406 l 758 1406 l 758 1309 m 523 996 q 719 960 631 996 q 868 859 806 925 q 962 700 929 793 q 995 489 995 606 q 962 279 995 372 q 868 119 929 185 q 719 18 806 54 q 523 -17 631 -17 q 327 18 414 -17 q 178 119 239 54 q 84 279 117 185 q 51 489 51 372 q 84 700 51 606 q 178 859 117 793 q 327 960 239 925 q 523 996 414 996 m 523 825 q 414 801 463 825 q 331 734 366 778 q 278 628 297 690 q 260 489 260 566 q 278 350 260 412 q 331 245 297 288 q 414 178 366 201 q 523 155 463 155 q 631 178 583 155 q 714 245 680 201 q 767 350 748 288 q 785 489 785 412 q 767 628 785 566 q 714 734 748 690 q 631 801 680 778 q 523 825 583 825 z "},"Ṑ":{"ha":1045,"x_min":51,"x_max":995,"o":"m 288 1198 l 758 1198 l 758 1101 l 288 1101 l 288 1198 m 456 1280 l 295 1444 l 467 1444 l 599 1280 l 456 1280 m 523 996 q 719 960 631 996 q 868 859 806 925 q 962 700 929 793 q 995 489 995 606 q 962 279 995 372 q 868 119 929 185 q 719 18 806 54 q 523 -17 631 -17 q 327 18 414 -17 q 178 119 239 54 q 84 279 117 185 q 51 489 51 372 q 84 700 51 606 q 178 859 117 793 q 327 960 239 925 q 523 996 414 996 m 523 825 q 414 801 463 825 q 331 734 366 778 q 278 628 297 690 q 260 489 260 566 q 278 350 260 412 q 331 245 297 288 q 414 178 366 201 q 523 155 463 155 q 631 178 583 155 q 714 245 680 201 q 767 350 748 288 q 785 489 785 412 q 767 628 785 566 q 714 734 748 690 q 631 801 680 778 q 523 825 583 825 z "},"Ǒ":{"ha":1045,"x_min":51,"x_max":995,"o":"m 260 1262 l 410 1262 l 521 1128 l 525 1128 l 635 1262 l 786 1262 l 600 1046 l 446 1046 l 260 1262 m 523 996 q 719 960 631 996 q 868 859 806 925 q 962 700 929 793 q 995 489 995 606 q 962 279 995 372 q 868 119 929 185 q 719 18 806 54 q 523 -17 631 -17 q 327 18 414 -17 q 178 119 239 54 q 84 279 117 185 q 51 489 51 372 q 84 700 51 606 q 178 859 117 793 q 327 960 239 925 q 523 996 414 996 m 523 825 q 414 801 463 825 q 331 734 366 778 q 278 628 297 690 q 260 489 260 566 q 278 350 260 412 q 331 245 297 288 q 414 178 366 201 q 523 155 463 155 q 631 178 583 155 q 714 245 680 201 q 767 350 748 288 q 785 489 785 412 q 767 628 785 566 q 714 734 748 690 q 631 801 680 778 q 523 825 583 825 z "},"Ǿ":{"ha":1045,"x_min":51,"x_max":995,"o":"m 614 1053 l 459 1053 l 616 1263 l 802 1263 l 614 1053 m 391 191 q 452 164 419 174 q 523 155 485 155 q 631 178 583 155 q 714 245 680 201 q 767 350 748 288 q 785 489 785 412 q 772 609 785 555 q 733 706 759 664 l 391 191 m 677 772 q 607 811 646 798 q 523 825 568 825 q 414 801 463 825 q 331 734 366 778 q 278 628 297 690 q 260 489 260 566 q 277 352 260 413 q 328 248 295 292 l 677 772 m 848 879 q 957 714 919 812 q 995 489 995 616 q 962 279 995 372 q 868 119 929 185 q 719 18 806 54 q 523 -17 631 -17 q 396 -3 455 -17 q 288 36 338 10 l 233 -45 l 164 1 l 218 82 q 94 251 138 148 q 51 489 51 353 q 84 700 51 606 q 178 859 117 793 q 327 960 239 925 q 523 996 414 996 q 663 979 598 996 q 781 929 728 962 l 842 1021 l 916 981 l 848 879 z "},"Ő":{"ha":1045,"x_min":51,"x_max":995,"o":"m 579 1053 l 736 1263 l 918 1263 l 730 1053 l 579 1053 m 311 1053 l 468 1263 l 650 1263 l 462 1053 l 311 1053 m 523 996 q 719 960 631 996 q 868 859 806 925 q 962 700 929 793 q 995 489 995 606 q 962 279 995 372 q 868 119 929 185 q 719 18 806 54 q 523 -17 631 -17 q 327 18 414 -17 q 178 119 239 54 q 84 279 117 185 q 51 489 51 372 q 84 700 51 606 q 178 859 117 793 q 327 960 239 925 q 523 996 414 996 m 523 825 q 414 801 463 825 q 331 734 366 778 q 278 628 297 690 q 260 489 260 566 q 278 350 260 412 q 331 245 297 288 q 414 178 366 201 q 523 155 463 155 q 631 178 583 155 q 714 245 680 201 q 767 350 748 288 q 785 489 785 412 q 767 628 785 566 q 714 734 748 690 q 631 801 680 778 q 523 825 583 825 z "},"Ŏ":{"ha":1045,"x_min":51,"x_max":995,"o":"m 523 996 q 719 960 631 996 q 868 859 806 925 q 962 700 929 793 q 995 489 995 606 q 962 279 995 372 q 868 119 929 185 q 719 18 806 54 q 523 -17 631 -17 q 327 18 414 -17 q 178 119 239 54 q 84 279 117 185 q 51 489 51 372 q 84 700 51 606 q 178 859 117 793 q 327 960 239 925 q 523 996 414 996 m 523 825 q 414 801 463 825 q 331 734 366 778 q 278 628 297 690 q 260 489 260 566 q 278 350 260 412 q 331 245 297 288 q 414 178 366 201 q 523 155 463 155 q 631 178 583 155 q 714 245 680 201 q 767 350 748 288 q 785 489 785 412 q 767 628 785 566 q 714 734 748 690 q 631 801 680 778 q 523 825 583 825 m 404 1261 q 413 1215 405 1236 q 437 1178 422 1194 q 475 1154 453 1162 q 523 1145 496 1145 q 571 1154 549 1145 q 608 1178 593 1162 q 632 1215 624 1194 q 642 1261 641 1236 l 762 1261 q 745 1177 762 1216 q 697 1108 728 1137 q 623 1063 667 1080 q 523 1046 578 1046 q 423 1063 467 1046 q 348 1108 379 1080 q 301 1177 317 1137 q 283 1261 284 1216 l 404 1261 z "},"Ȏ":{"ha":1045,"x_min":51,"x_max":995,"o":"m 283 1046 q 301 1131 284 1092 q 348 1199 317 1170 q 423 1245 379 1228 q 523 1261 467 1261 q 623 1245 578 1261 q 697 1199 667 1228 q 745 1131 728 1170 q 762 1046 762 1092 l 642 1046 q 632 1093 641 1072 q 608 1130 624 1114 q 571 1154 593 1145 q 523 1163 549 1163 q 475 1154 496 1163 q 437 1130 453 1145 q 413 1093 422 1114 q 404 1046 405 1072 l 283 1046 m 523 996 q 719 960 631 996 q 868 859 806 925 q 962 700 929 793 q 995 489 995 606 q 962 279 995 372 q 868 119 929 185 q 719 18 806 54 q 523 -17 631 -17 q 327 18 414 -17 q 178 119 239 54 q 84 279 117 185 q 51 489 51 372 q 84 700 51 606 q 178 859 117 793 q 327 960 239 925 q 523 996 414 996 m 523 825 q 414 801 463 825 q 331 734 366 778 q 278 628 297 690 q 260 489 260 566 q 278 350 260 412 q 331 245 297 288 q 414 178 366 201 q 523 155 463 155 q 631 178 583 155 q 714 245 680 201 q 767 350 748 288 q 785 489 785 412 q 767 628 785 566 q 714 734 748 690 q 631 801 680 778 q 523 825 583 825 z "},"Ỏ":{"ha":1045,"x_min":51,"x_max":995,"o":"m 397 1303 q 441 1316 415 1312 q 494 1320 467 1320 q 561 1311 531 1320 q 611 1285 591 1302 q 644 1243 632 1268 q 655 1188 655 1219 q 646 1140 655 1164 q 619 1097 636 1117 q 579 1061 602 1077 q 528 1034 555 1044 l 469 1105 q 517 1135 498 1115 q 535 1177 535 1155 q 517 1213 535 1199 q 469 1227 499 1227 q 432 1223 452 1227 q 397 1214 412 1220 l 397 1303 m 523 996 q 719 960 631 996 q 868 859 806 925 q 962 700 929 793 q 995 489 995 606 q 962 279 995 372 q 868 119 929 185 q 719 18 806 54 q 523 -17 631 -17 q 327 18 414 -17 q 178 119 239 54 q 84 279 117 185 q 51 489 51 372 q 84 700 51 606 q 178 859 117 793 q 327 960 239 925 q 523 996 414 996 m 523 825 q 414 801 463 825 q 331 734 366 778 q 278 628 297 690 q 260 489 260 566 q 278 350 260 412 q 331 245 297 288 q 414 178 366 201 q 523 155 463 155 q 631 178 583 155 q 714 245 680 201 q 767 350 748 288 q 785 489 785 412 q 767 628 785 566 q 714 734 748 690 q 631 801 680 778 q 523 825 583 825 z "},"Ȫ":{"ha":1045,"x_min":51,"x_max":995,"o":"m 523 996 q 719 960 631 996 q 868 859 806 925 q 962 700 929 793 q 995 489 995 606 q 962 279 995 372 q 868 119 929 185 q 719 18 806 54 q 523 -17 631 -17 q 327 18 414 -17 q 178 119 239 54 q 84 279 117 185 q 51 489 51 372 q 84 700 51 606 q 178 859 117 793 q 327 960 239 925 q 523 996 414 996 m 523 825 q 414 801 463 825 q 331 734 366 778 q 278 628 297 690 q 260 489 260 566 q 278 350 260 412 q 331 245 297 288 q 414 178 366 201 q 523 155 463 155 q 631 178 583 155 q 714 245 680 201 q 767 350 748 288 q 785 489 785 412 q 767 628 785 566 q 714 734 748 690 q 631 801 680 778 q 523 825 583 825 m 385 1230 q 419 1223 403 1230 q 446 1205 435 1216 q 465 1178 458 1194 q 471 1145 471 1162 q 465 1113 471 1128 q 446 1086 458 1097 q 419 1067 435 1074 q 385 1061 403 1061 q 350 1067 366 1061 q 322 1086 334 1074 q 303 1113 310 1097 q 297 1145 297 1128 q 303 1178 297 1162 q 322 1205 310 1194 q 350 1223 334 1216 q 385 1230 366 1230 m 758 1406 l 758 1309 l 288 1309 l 288 1406 l 758 1406 m 661 1230 q 696 1223 680 1230 q 724 1205 712 1216 q 742 1178 735 1194 q 749 1145 749 1162 q 742 1113 749 1128 q 724 1086 735 1097 q 696 1067 712 1074 q 661 1061 680 1061 q 627 1067 643 1061 q 600 1086 611 1074 q 581 1113 588 1097 q 574 1145 574 1128 q 581 1178 574 1162 q 600 1205 588 1194 q 627 1223 611 1216 q 661 1230 643 1230 z "},"Ȭ":{"ha":1045,"x_min":51,"x_max":995,"o":"m 614 1042 q 572 1048 591 1042 q 538 1065 553 1055 q 510 1088 523 1076 q 485 1110 497 1100 q 462 1127 473 1120 q 438 1134 450 1134 q 404 1112 415 1134 q 391 1053 392 1090 l 284 1053 q 295 1131 284 1097 q 325 1189 306 1166 q 371 1225 345 1213 q 429 1238 397 1238 q 472 1231 453 1238 q 508 1214 492 1224 q 536 1191 524 1203 q 561 1169 549 1179 q 584 1152 573 1158 q 608 1145 595 1145 q 640 1167 629 1145 q 652 1227 651 1189 l 759 1227 q 748 1150 759 1184 q 718 1092 737 1116 q 672 1055 699 1067 q 614 1042 646 1042 m 758 1309 l 288 1309 l 288 1406 l 758 1406 l 758 1309 m 523 996 q 719 960 631 996 q 868 859 806 925 q 962 700 929 793 q 995 489 995 606 q 962 279 995 372 q 868 119 929 185 q 719 18 806 54 q 523 -17 631 -17 q 327 18 414 -17 q 178 119 239 54 q 84 279 117 185 q 51 489 51 372 q 84 700 51 606 q 178 859 117 793 q 327 960 239 925 q 523 996 414 996 m 523 825 q 414 801 463 825 q 331 734 366 778 q 278 628 297 690 q 260 489 260 566 q 278 350 260 412 q 331 245 297 288 q 414 178 366 201 q 523 155 463 155 q 631 178 583 155 q 714 245 680 201 q 767 350 748 288 q 785 489 785 412 q 767 628 785 566 q 714 734 748 690 q 631 801 680 778 q 523 825 583 825 z "},"Ȯ":{"ha":1045,"x_min":51,"x_max":995,"o":"m 523 1059 q 483 1066 501 1059 q 451 1088 465 1074 q 430 1120 437 1102 q 422 1160 422 1139 q 430 1199 422 1181 q 451 1231 437 1217 q 483 1252 465 1244 q 523 1260 501 1260 q 563 1252 544 1260 q 595 1231 581 1244 q 616 1199 608 1217 q 624 1160 624 1181 q 616 1120 624 1139 q 595 1088 608 1102 q 563 1066 581 1074 q 523 1059 544 1059 m 523 996 q 719 960 631 996 q 868 859 806 925 q 962 700 929 793 q 995 489 995 606 q 962 279 995 372 q 868 119 929 185 q 719 18 806 54 q 523 -17 631 -17 q 327 18 414 -17 q 178 119 239 54 q 84 279 117 185 q 51 489 51 372 q 84 700 51 606 q 178 859 117 793 q 327 960 239 925 q 523 996 414 996 m 523 825 q 414 801 463 825 q 331 734 366 778 q 278 628 297 690 q 260 489 260 566 q 278 350 260 412 q 331 245 297 288 q 414 178 366 201 q 523 155 463 155 q 631 178 583 155 q 714 245 680 201 q 767 350 748 288 q 785 489 785 412 q 767 628 785 566 q 714 734 748 690 q 631 801 680 778 q 523 825 583 825 z "},"Ộ":{"ha":1045,"x_min":51,"x_max":995,"o":"m 523 -311 q 483 -303 501 -311 q 451 -281 465 -295 q 430 -249 437 -267 q 422 -210 422 -231 q 430 -170 422 -189 q 451 -138 437 -152 q 483 -117 465 -125 q 523 -109 501 -109 q 563 -117 544 -109 q 595 -138 581 -125 q 616 -170 608 -152 q 624 -210 624 -189 q 616 -249 624 -231 q 595 -281 608 -267 q 563 -303 581 -295 q 523 -311 544 -311 m 600 1262 l 786 1046 l 635 1046 l 525 1180 l 521 1180 l 410 1046 l 260 1046 l 446 1262 l 600 1262 m 523 996 q 719 960 631 996 q 868 859 806 925 q 962 700 929 793 q 995 489 995 606 q 962 279 995 372 q 868 119 929 185 q 719 18 806 54 q 523 -17 631 -17 q 327 18 414 -17 q 178 119 239 54 q 84 279 117 185 q 51 489 51 372 q 84 700 51 606 q 178 859 117 793 q 327 960 239 925 q 523 996 414 996 m 523 825 q 414 801 463 825 q 331 734 366 778 q 278 628 297 690 q 260 489 260 566 q 278 350 260 412 q 331 245 297 288 q 414 178 366 201 q 523 155 463 155 q 631 178 583 155 q 714 245 680 201 q 767 350 748 288 q 785 489 785 412 q 767 628 785 566 q 714 734 748 690 q 631 801 680 778 q 523 825 583 825 z "},"Ố":{"ha":1045,"x_min":51,"x_max":995,"o":"m 603 1234 l 780 1055 l 623 1055 l 528 1156 l 520 1156 l 425 1055 l 268 1055 l 445 1234 l 603 1234 m 713 1444 l 886 1444 l 725 1280 l 582 1280 l 713 1444 m 523 996 q 719 960 631 996 q 868 859 806 925 q 962 700 929 793 q 995 489 995 606 q 962 279 995 372 q 868 119 929 185 q 719 18 806 54 q 523 -17 631 -17 q 327 18 414 -17 q 178 119 239 54 q 84 279 117 185 q 51 489 51 372 q 84 700 51 606 q 178 859 117 793 q 327 960 239 925 q 523 996 414 996 m 523 825 q 414 801 463 825 q 331 734 366 778 q 278 628 297 690 q 260 489 260 566 q 278 350 260 412 q 331 245 297 288 q 414 178 366 201 q 523 155 463 155 q 631 178 583 155 q 714 245 680 201 q 767 350 748 288 q 785 489 785 412 q 767 628 785 566 q 714 734 748 690 q 631 801 680 778 q 523 825 583 825 z "},"Ṏ":{"ha":1045,"x_min":51,"x_max":995,"o":"m 616 1042 q 573 1048 592 1042 q 539 1065 555 1055 q 511 1088 524 1076 q 487 1110 498 1100 q 463 1127 475 1120 q 439 1134 452 1134 q 405 1112 416 1134 q 393 1053 393 1090 l 286 1053 q 296 1131 286 1097 q 327 1189 307 1166 q 372 1225 346 1213 q 431 1238 399 1238 q 474 1231 454 1238 q 509 1214 493 1224 q 538 1191 525 1203 q 563 1169 551 1179 q 586 1152 574 1158 q 609 1145 597 1145 q 642 1166 631 1145 q 653 1224 652 1187 l 760 1224 q 749 1148 760 1182 q 719 1091 739 1115 q 673 1055 700 1067 q 616 1042 647 1042 m 385 1466 q 419 1459 403 1466 q 446 1441 435 1452 q 465 1414 458 1430 q 471 1381 471 1398 q 465 1349 471 1364 q 446 1322 458 1333 q 419 1303 435 1310 q 385 1297 403 1297 q 350 1303 366 1297 q 322 1322 334 1310 q 303 1349 310 1333 q 297 1381 297 1364 q 303 1414 297 1398 q 322 1441 310 1430 q 350 1459 334 1452 q 385 1466 366 1466 m 661 1466 q 696 1459 680 1466 q 724 1441 712 1452 q 742 1414 735 1430 q 749 1381 749 1398 q 742 1349 749 1364 q 724 1322 735 1333 q 696 1303 712 1310 q 661 1297 680 1297 q 627 1303 643 1297 q 600 1322 611 1310 q 581 1349 588 1333 q 574 1381 574 1364 q 581 1414 574 1398 q 600 1441 588 1430 q 627 1459 611 1452 q 661 1466 643 1466 m 523 996 q 719 960 631 996 q 868 859 806 925 q 962 700 929 793 q 995 489 995 606 q 962 279 995 372 q 868 119 929 185 q 719 18 806 54 q 523 -17 631 -17 q 327 18 414 -17 q 178 119 239 54 q 84 279 117 185 q 51 489 51 372 q 84 700 51 606 q 178 859 117 793 q 327 960 239 925 q 523 996 414 996 m 523 825 q 414 801 463 825 q 331 734 366 778 q 278 628 297 690 q 260 489 260 566 q 278 350 260 412 q 331 245 297 288 q 414 178 366 201 q 523 155 463 155 q 631 178 583 155 q 714 245 680 201 q 767 350 748 288 q 785 489 785 412 q 767 628 785 566 q 714 734 748 690 q 631 801 680 778 q 523 825 583 825 z "},"Ō":{"ha":1045,"x_min":51,"x_max":995,"o":"m 523 996 q 719 960 631 996 q 868 859 806 925 q 962 700 929 793 q 995 489 995 606 q 962 279 995 372 q 868 119 929 185 q 719 18 806 54 q 523 -17 631 -17 q 327 18 414 -17 q 178 119 239 54 q 84 279 117 185 q 51 489 51 372 q 84 700 51 606 q 178 859 117 793 q 327 960 239 925 q 523 996 414 996 m 523 825 q 414 801 463 825 q 331 734 366 778 q 278 628 297 690 q 260 489 260 566 q 278 350 260 412 q 331 245 297 288 q 414 178 366 201 q 523 155 463 155 q 631 178 583 155 q 714 245 680 201 q 767 350 748 288 q 785 489 785 412 q 767 628 785 566 q 714 734 748 690 q 631 801 680 778 q 523 825 583 825 m 758 1101 l 288 1101 l 288 1198 l 758 1198 l 758 1101 z "},"Ǫ":{"ha":1045,"x_min":51,"x_max":994,"o":"m 764 -296 q 723 -306 747 -302 q 675 -309 699 -309 q 604 -299 636 -309 q 550 -270 572 -289 q 515 -225 528 -252 q 503 -167 503 -199 q 523 -80 503 -118 q 586 -12 543 -42 l 586 -9 q 554 -15 571 -14 q 523 -17 537 -17 q 326 18 413 -17 q 177 119 238 53 q 83 278 116 184 q 51 490 51 372 q 84 700 51 606 q 178 860 117 794 q 326 960 239 925 q 523 996 414 996 q 719 961 632 996 q 867 860 806 926 q 961 701 928 794 q 994 490 994 607 q 979 338 994 404 q 938 223 964 273 q 881 137 913 173 q 815 72 848 100 q 749 21 781 43 q 692 -24 718 -2 q 652 -70 667 -46 q 637 -124 637 -94 q 658 -176 637 -157 q 716 -195 680 -195 q 741 -194 728 -195 q 764 -190 754 -193 l 764 -296 m 523 825 q 414 801 463 825 q 331 734 365 778 q 278 628 296 690 q 260 490 260 566 q 278 350 260 412 q 331 245 296 288 q 413 178 365 201 q 523 155 462 155 q 632 178 583 155 q 714 245 680 201 q 767 350 749 288 q 785 490 785 412 q 767 629 785 567 q 714 734 749 690 q 632 801 680 778 q 523 825 583 825 z "},"Ǭ":{"ha":1045,"x_min":51,"x_max":994,"o":"m 764 -296 q 723 -306 747 -302 q 675 -309 699 -309 q 604 -299 636 -309 q 550 -270 572 -289 q 515 -225 528 -252 q 503 -167 503 -199 q 523 -80 503 -118 q 586 -12 543 -42 l 586 -9 q 554 -15 571 -14 q 523 -17 537 -17 q 326 18 413 -17 q 177 119 238 53 q 83 278 116 184 q 51 490 51 372 q 84 700 51 606 q 178 860 117 794 q 326 960 239 925 q 523 996 414 996 q 719 961 632 996 q 867 860 806 926 q 961 701 928 794 q 994 490 994 607 q 979 338 994 404 q 938 223 964 273 q 881 137 913 173 q 815 72 848 100 q 749 21 781 43 q 692 -24 718 -2 q 652 -70 667 -46 q 637 -124 637 -94 q 658 -176 637 -157 q 716 -195 680 -195 q 741 -194 728 -195 q 764 -190 754 -193 l 764 -296 m 523 825 q 414 801 463 825 q 331 734 365 778 q 278 628 296 690 q 260 490 260 566 q 278 350 260 412 q 331 245 296 288 q 413 178 365 201 q 523 155 462 155 q 632 178 583 155 q 714 245 680 201 q 767 350 749 288 q 785 490 785 412 q 767 629 785 567 q 714 734 749 690 q 632 801 680 778 q 523 825 583 825 m 758 1101 l 288 1101 l 288 1198 l 758 1198 l 758 1101 z "},"Ơ":{"ha":1080,"x_min":51,"x_max":1086,"o":"m 523 825 q 414 801 463 825 q 331 734 366 778 q 278 628 297 690 q 260 489 260 566 q 278 350 260 412 q 331 245 297 288 q 414 178 366 201 q 523 155 463 155 q 631 178 583 155 q 714 245 680 201 q 767 350 748 288 q 785 489 785 412 q 767 628 785 566 q 714 734 748 690 q 631 801 680 778 q 523 825 583 825 m 995 486 q 962 278 995 371 q 867 119 928 185 q 718 18 805 54 q 522 -17 631 -17 q 327 19 414 -17 q 178 120 239 54 q 84 279 117 186 q 51 490 51 373 q 84 699 51 606 q 177 859 117 793 q 325 960 238 924 q 518 996 411 996 q 605 988 566 996 q 675 970 644 981 q 732 947 707 960 q 781 924 758 935 q 824 906 803 913 q 866 899 844 899 q 929 986 929 899 l 929 1109 l 1086 1109 l 1086 926 q 1078 863 1086 891 q 1055 816 1069 836 q 1019 786 1040 796 q 971 775 998 775 q 948 777 960 775 q 930 782 936 779 l 927 779 q 977 643 960 718 q 995 486 995 568 z "},"Ợ":{"ha":1080,"x_min":51,"x_max":1086,"o":"m 523 -311 q 483 -303 501 -311 q 451 -281 465 -295 q 430 -249 437 -267 q 422 -210 422 -231 q 430 -170 422 -189 q 451 -138 437 -152 q 483 -117 465 -125 q 523 -109 501 -109 q 563 -117 544 -109 q 595 -138 581 -125 q 616 -170 608 -152 q 624 -210 624 -189 q 616 -249 624 -231 q 595 -281 608 -267 q 563 -303 581 -295 q 523 -311 544 -311 m 523 825 q 414 801 463 825 q 331 734 366 778 q 278 628 297 690 q 260 489 260 566 q 278 350 260 412 q 331 245 297 288 q 414 178 366 201 q 523 155 463 155 q 631 178 583 155 q 714 245 680 201 q 767 350 748 288 q 785 489 785 412 q 767 628 785 566 q 714 734 748 690 q 631 801 680 778 q 523 825 583 825 m 995 486 q 962 278 995 371 q 867 119 928 185 q 718 18 805 54 q 522 -17 631 -17 q 327 19 414 -17 q 178 120 239 54 q 84 279 117 186 q 51 490 51 373 q 84 699 51 606 q 177 859 117 793 q 325 960 238 924 q 518 996 411 996 q 605 988 566 996 q 675 970 644 981 q 732 947 707 960 q 781 924 758 935 q 824 906 803 913 q 866 899 844 899 q 929 986 929 899 l 929 1109 l 1086 1109 l 1086 926 q 1078 863 1086 891 q 1055 816 1069 836 q 1019 786 1040 796 q 971 775 998 775 q 948 777 960 775 q 930 782 936 779 l 927 779 q 977 643 960 718 q 995 486 995 568 z "},"Ở":{"ha":1080,"x_min":51,"x_max":1086,"o":"m 397 1303 q 441 1316 415 1312 q 494 1320 467 1320 q 561 1311 531 1320 q 611 1285 591 1302 q 644 1243 632 1268 q 655 1188 655 1219 q 646 1140 655 1164 q 619 1097 636 1117 q 579 1061 602 1077 q 528 1034 555 1044 l 469 1105 q 517 1135 498 1115 q 535 1177 535 1155 q 517 1213 535 1199 q 469 1227 499 1227 q 432 1223 452 1227 q 397 1214 412 1220 l 397 1303 m 523 825 q 414 801 463 825 q 331 734 366 778 q 278 628 297 690 q 260 489 260 566 q 278 350 260 412 q 331 245 297 288 q 414 178 366 201 q 523 155 463 155 q 631 178 583 155 q 714 245 680 201 q 767 350 748 288 q 785 489 785 412 q 767 628 785 566 q 714 734 748 690 q 631 801 680 778 q 523 825 583 825 m 995 486 q 962 278 995 371 q 867 119 928 185 q 718 18 805 54 q 522 -17 631 -17 q 327 19 414 -17 q 178 120 239 54 q 84 279 117 186 q 51 490 51 373 q 84 699 51 606 q 177 859 117 793 q 325 960 238 924 q 518 996 411 996 q 605 988 566 996 q 675 970 644 981 q 732 947 707 960 q 781 924 758 935 q 824 906 803 913 q 866 899 844 899 q 929 986 929 899 l 929 1109 l 1086 1109 l 1086 926 q 1078 863 1086 891 q 1055 816 1069 836 q 1019 786 1040 796 q 971 775 998 775 q 948 777 960 775 q 930 782 936 779 l 927 779 q 977 643 960 718 q 995 486 995 568 z "},"Ỡ":{"ha":1080,"x_min":51,"x_max":1086,"o":"m 523 825 q 414 801 463 825 q 331 734 366 778 q 278 628 297 690 q 260 489 260 566 q 278 350 260 412 q 331 245 297 288 q 414 178 366 201 q 523 155 463 155 q 631 178 583 155 q 714 245 680 201 q 767 350 748 288 q 785 489 785 412 q 767 628 785 566 q 714 734 748 690 q 631 801 680 778 q 523 825 583 825 m 995 486 q 962 278 995 371 q 867 119 928 185 q 718 18 805 54 q 522 -17 631 -17 q 327 19 414 -17 q 178 120 239 54 q 84 279 117 186 q 51 490 51 373 q 84 699 51 606 q 177 859 117 793 q 325 960 238 924 q 518 996 411 996 q 605 988 566 996 q 675 970 644 981 q 732 947 707 960 q 781 924 758 935 q 824 906 803 913 q 866 899 844 899 q 929 986 929 899 l 929 1109 l 1086 1109 l 1086 926 q 1078 863 1086 891 q 1055 816 1069 836 q 1019 786 1040 796 q 971 775 998 775 q 948 777 960 775 q 930 782 936 779 l 927 779 q 977 643 960 718 q 995 486 995 568 m 618 1045 q 576 1052 595 1045 q 542 1069 557 1059 q 514 1091 527 1079 q 490 1114 502 1103 q 467 1131 478 1124 q 443 1137 455 1137 q 408 1115 420 1137 q 396 1057 397 1093 l 289 1057 q 300 1134 289 1100 q 331 1192 311 1168 q 377 1228 350 1216 q 435 1240 404 1240 q 496 1226 471 1240 q 541 1195 522 1212 q 577 1163 561 1177 q 612 1149 593 1149 q 644 1171 633 1149 q 656 1232 655 1192 l 763 1232 q 752 1154 763 1188 q 721 1095 741 1119 q 675 1058 702 1071 q 618 1045 648 1045 z "},"Ờ":{"ha":1080,"x_min":51,"x_max":1086,"o":"m 260 1267 l 445 1267 l 602 1057 l 448 1057 l 260 1267 m 523 825 q 414 801 463 825 q 331 734 366 778 q 278 628 297 690 q 260 489 260 566 q 278 350 260 412 q 331 245 297 288 q 414 178 366 201 q 523 155 463 155 q 631 178 583 155 q 714 245 680 201 q 767 350 748 288 q 785 489 785 412 q 767 628 785 566 q 714 734 748 690 q 631 801 680 778 q 523 825 583 825 m 995 486 q 962 278 995 371 q 867 119 928 185 q 718 18 805 54 q 522 -17 631 -17 q 327 19 414 -17 q 178 120 239 54 q 84 279 117 186 q 51 490 51 373 q 84 699 51 606 q 177 859 117 793 q 325 960 238 924 q 518 996 411 996 q 605 988 566 996 q 675 970 644 981 q 732 947 707 960 q 781 924 758 935 q 824 906 803 913 q 866 899 844 899 q 929 986 929 899 l 929 1109 l 1086 1109 l 1086 926 q 1078 863 1086 891 q 1055 816 1069 836 q 1019 786 1040 796 q 971 775 998 775 q 948 777 960 775 q 930 782 936 779 l 927 779 q 977 643 960 718 q 995 486 995 568 z "},"Ớ":{"ha":1080,"x_min":51,"x_max":1086,"o":"m 442 1053 l 600 1263 l 785 1263 l 597 1053 l 442 1053 m 523 825 q 414 801 463 825 q 331 734 366 778 q 278 628 297 690 q 260 489 260 566 q 278 350 260 412 q 331 245 297 288 q 414 178 366 201 q 523 155 463 155 q 631 178 583 155 q 714 245 680 201 q 767 350 748 288 q 785 489 785 412 q 767 628 785 566 q 714 734 748 690 q 631 801 680 778 q 523 825 583 825 m 995 486 q 962 278 995 371 q 867 119 928 185 q 718 18 805 54 q 522 -17 631 -17 q 327 19 414 -17 q 178 120 239 54 q 84 279 117 186 q 51 490 51 373 q 84 699 51 606 q 177 859 117 793 q 325 960 238 924 q 518 996 411 996 q 605 988 566 996 q 675 970 644 981 q 732 947 707 960 q 781 924 758 935 q 824 906 803 913 q 866 899 844 899 q 929 986 929 899 l 929 1109 l 1086 1109 l 1086 926 q 1078 863 1086 891 q 1055 816 1069 836 q 1019 786 1040 796 q 971 775 998 775 q 948 777 960 775 q 930 782 936 779 l 927 779 q 977 643 960 718 q 995 486 995 568 z "},"P":{"ha":868,"x_min":81,"x_max":829,"o":"m 490 979 q 627 955 565 979 q 734 887 690 930 q 804 781 779 843 q 829 644 829 719 q 803 507 829 568 q 731 401 778 445 q 621 333 685 357 q 479 309 557 309 l 286 309 l 286 0 l 81 0 l 81 979 l 490 979 m 286 469 l 435 469 q 572 513 524 469 q 621 643 621 558 q 572 772 621 727 q 435 817 524 817 l 286 817 l 286 469 z "},"Ṗ":{"ha":868,"x_min":81,"x_max":829,"o":"m 490 979 q 627 955 565 979 q 734 887 690 930 q 804 781 779 843 q 829 644 829 719 q 803 507 829 568 q 731 401 778 445 q 621 333 685 357 q 479 309 557 309 l 286 309 l 286 0 l 81 0 l 81 979 l 490 979 m 286 469 l 435 469 q 572 513 524 469 q 621 643 621 558 q 572 772 621 727 q 435 817 524 817 l 286 817 l 286 469 m 399 1059 q 359 1066 378 1059 q 328 1088 341 1074 q 306 1120 314 1102 q 298 1160 298 1139 q 306 1199 298 1181 q 328 1231 314 1217 q 359 1252 341 1244 q 399 1260 378 1260 q 439 1252 420 1260 q 471 1231 458 1244 q 493 1199 485 1217 q 500 1160 500 1181 q 493 1120 500 1139 q 471 1088 485 1102 q 439 1066 458 1074 q 399 1059 420 1059 z "},"Ṕ":{"ha":868,"x_min":81,"x_max":829,"o":"m 319 1053 l 476 1263 l 661 1263 l 473 1053 l 319 1053 m 490 979 q 627 955 565 979 q 734 887 690 930 q 804 781 779 843 q 829 644 829 719 q 803 507 829 568 q 731 401 778 445 q 621 333 685 357 q 479 309 557 309 l 286 309 l 286 0 l 81 0 l 81 979 l 490 979 m 286 469 l 435 469 q 572 513 524 469 q 621 643 621 558 q 572 772 621 727 q 435 817 524 817 l 286 817 l 286 469 z "},"Q":{"ha":1045,"x_min":51,"x_max":994,"o":"m 764 -92 l 694 10 q 523 -17 616 -17 q 327 18 414 -17 q 178 118 239 53 q 84 277 117 184 q 51 489 51 371 q 84 700 51 606 q 178 859 117 793 q 327 960 239 925 q 523 996 414 996 q 719 960 631 996 q 867 859 806 925 q 961 700 928 793 q 994 489 994 606 q 954 258 994 359 q 838 95 914 158 l 962 -92 l 764 -92 m 523 153 q 593 162 559 153 l 486 322 l 671 322 l 713 264 q 767 361 748 304 q 785 489 785 418 q 767 629 785 566 q 714 735 748 691 q 631 803 680 779 q 523 827 583 827 q 414 803 463 827 q 331 735 366 779 q 278 629 297 691 q 260 489 260 566 q 278 350 260 412 q 331 244 297 288 q 414 176 366 200 q 523 153 463 153 z "},"R":{"ha":892,"x_min":81,"x_max":868,"o":"m 286 507 l 466 507 q 587 548 544 507 q 629 663 629 589 q 618 727 629 698 q 585 776 606 755 q 533 807 564 796 q 464 819 502 819 l 286 819 l 286 507 m 286 0 l 81 0 l 81 979 l 486 979 q 636 957 570 979 q 747 895 702 935 q 816 797 792 854 q 840 667 840 739 q 828 576 840 620 q 793 497 816 533 q 737 433 770 461 q 662 389 704 405 l 868 0 l 636 0 l 454 358 l 286 358 l 286 0 z "},"Ř":{"ha":892,"x_min":81,"x_max":868,"o":"m 286 507 l 466 507 q 587 548 544 507 q 629 663 629 589 q 618 727 629 698 q 585 776 606 755 q 533 807 564 796 q 464 819 502 819 l 286 819 l 286 507 m 286 0 l 81 0 l 81 979 l 486 979 q 636 957 570 979 q 747 895 702 935 q 816 797 792 854 q 840 667 840 739 q 828 576 840 620 q 793 497 816 533 q 737 433 770 461 q 662 389 704 405 l 868 0 l 636 0 l 454 358 l 286 358 l 286 0 m 155 1262 l 305 1262 l 416 1128 l 420 1128 l 530 1262 l 681 1262 l 495 1046 l 340 1046 l 155 1262 z "},"Ṟ":{"ha":892,"x_min":81,"x_max":868,"o":"m 286 507 l 466 507 q 587 548 544 507 q 629 663 629 589 q 618 727 629 698 q 585 776 606 755 q 533 807 564 796 q 464 819 502 819 l 286 819 l 286 507 m 286 0 l 81 0 l 81 979 l 486 979 q 636 957 570 979 q 747 895 702 935 q 816 797 792 854 q 840 667 840 739 q 828 576 840 620 q 793 497 816 533 q 737 433 770 461 q 662 389 704 405 l 868 0 l 636 0 l 454 358 l 286 358 l 286 0 m 652 -253 l 183 -253 l 183 -156 l 652 -156 l 652 -253 z "},"Ṝ":{"ha":892,"x_min":81,"x_max":868,"o":"m 418 -311 q 378 -303 396 -311 q 346 -281 359 -295 q 325 -249 332 -267 q 317 -210 317 -231 q 325 -170 317 -189 q 346 -138 332 -152 q 378 -117 359 -125 q 418 -109 396 -109 q 457 -117 439 -109 q 490 -138 476 -125 q 511 -170 503 -152 q 519 -210 519 -189 q 511 -249 519 -231 q 490 -281 503 -267 q 457 -303 476 -295 q 418 -311 439 -311 m 286 507 l 466 507 q 587 548 544 507 q 629 663 629 589 q 618 727 629 698 q 585 776 606 755 q 533 807 564 796 q 464 819 502 819 l 286 819 l 286 507 m 286 0 l 81 0 l 81 979 l 486 979 q 636 957 570 979 q 747 895 702 935 q 816 797 792 854 q 840 667 840 739 q 828 576 840 620 q 793 497 816 533 q 737 433 770 461 q 662 389 704 405 l 868 0 l 636 0 l 454 358 l 286 358 l 286 0 m 652 1101 l 183 1101 l 183 1198 l 652 1198 l 652 1101 z "},"Ȑ":{"ha":892,"x_min":22,"x_max":868,"o":"m 290 1263 l 473 1263 l 629 1053 l 479 1053 l 290 1263 m 22 1263 l 204 1263 l 361 1053 l 211 1053 l 22 1263 m 286 507 l 466 507 q 587 548 544 507 q 629 663 629 589 q 618 727 629 698 q 585 776 606 755 q 533 807 564 796 q 464 819 502 819 l 286 819 l 286 507 m 286 0 l 81 0 l 81 979 l 486 979 q 636 957 570 979 q 747 895 702 935 q 816 797 792 854 q 840 667 840 739 q 828 576 840 620 q 793 497 816 533 q 737 433 770 461 q 662 389 704 405 l 868 0 l 636 0 l 454 358 l 286 358 l 286 0 z "},"Ȓ":{"ha":892,"x_min":81,"x_max":868,"o":"m 286 507 l 466 507 q 587 548 544 507 q 629 663 629 589 q 618 727 629 698 q 585 776 606 755 q 533 807 564 796 q 464 819 502 819 l 286 819 l 286 507 m 286 0 l 81 0 l 81 979 l 486 979 q 636 957 570 979 q 747 895 702 935 q 816 797 792 854 q 840 667 840 739 q 828 576 840 620 q 793 497 816 533 q 737 433 770 461 q 662 389 704 405 l 868 0 l 636 0 l 454 358 l 286 358 l 286 0 m 178 1046 q 196 1131 179 1092 q 243 1199 212 1170 q 318 1245 274 1228 q 418 1261 362 1261 q 517 1245 473 1261 q 592 1199 562 1228 q 640 1131 623 1170 q 657 1046 656 1092 l 536 1046 q 527 1093 536 1072 q 503 1130 519 1114 q 466 1154 488 1145 q 418 1163 444 1163 q 370 1154 391 1163 q 332 1130 348 1145 q 308 1093 317 1114 q 299 1046 300 1072 l 178 1046 z "},"Ŕ":{"ha":892,"x_min":81,"x_max":868,"o":"m 337 1053 l 494 1263 l 680 1263 l 492 1053 l 337 1053 m 286 507 l 466 507 q 587 548 544 507 q 629 663 629 589 q 618 727 629 698 q 585 776 606 755 q 533 807 564 796 q 464 819 502 819 l 286 819 l 286 507 m 286 0 l 81 0 l 81 979 l 486 979 q 636 957 570 979 q 747 895 702 935 q 816 797 792 854 q 840 667 840 739 q 828 576 840 620 q 793 497 816 533 q 737 433 770 461 q 662 389 704 405 l 868 0 l 636 0 l 454 358 l 286 358 l 286 0 z "},"Ṛ":{"ha":892,"x_min":81,"x_max":868,"o":"m 418 -311 q 378 -303 396 -311 q 346 -281 359 -295 q 325 -249 332 -267 q 317 -210 317 -231 q 325 -170 317 -189 q 346 -138 332 -152 q 378 -117 359 -125 q 418 -109 396 -109 q 457 -117 439 -109 q 490 -138 476 -125 q 511 -170 503 -152 q 519 -210 519 -189 q 511 -249 519 -231 q 490 -281 503 -267 q 457 -303 476 -295 q 418 -311 439 -311 m 286 507 l 466 507 q 587 548 544 507 q 629 663 629 589 q 618 727 629 698 q 585 776 606 755 q 533 807 564 796 q 464 819 502 819 l 286 819 l 286 507 m 286 0 l 81 0 l 81 979 l 486 979 q 636 957 570 979 q 747 895 702 935 q 816 797 792 854 q 840 667 840 739 q 828 576 840 620 q 793 497 816 533 q 737 433 770 461 q 662 389 704 405 l 868 0 l 636 0 l 454 358 l 286 358 l 286 0 z "},"Ṙ":{"ha":892,"x_min":81,"x_max":868,"o":"m 418 1059 q 378 1066 396 1059 q 346 1088 359 1074 q 325 1120 332 1102 q 317 1160 317 1139 q 325 1199 317 1181 q 346 1231 332 1217 q 378 1252 359 1244 q 418 1260 396 1260 q 457 1252 439 1260 q 490 1231 476 1244 q 511 1199 503 1217 q 519 1160 519 1181 q 511 1120 519 1139 q 490 1088 503 1102 q 457 1066 476 1074 q 418 1059 439 1059 m 286 507 l 466 507 q 587 548 544 507 q 629 663 629 589 q 618 727 629 698 q 585 776 606 755 q 533 807 564 796 q 464 819 502 819 l 286 819 l 286 507 m 286 0 l 81 0 l 81 979 l 486 979 q 636 957 570 979 q 747 895 702 935 q 816 797 792 854 q 840 667 840 739 q 828 576 840 620 q 793 497 816 533 q 737 433 770 461 q 662 389 704 405 l 868 0 l 636 0 l 454 358 l 286 358 l 286 0 z "},"Ŗ":{"ha":892,"x_min":81,"x_max":868,"o":"m 286 507 l 466 507 q 587 548 544 507 q 629 663 629 589 q 618 727 629 698 q 585 776 606 755 q 533 807 564 796 q 464 819 502 819 l 286 819 l 286 507 m 286 0 l 81 0 l 81 979 l 486 979 q 636 957 570 979 q 747 895 702 935 q 816 797 792 854 q 840 667 840 739 q 828 576 840 620 q 793 497 816 533 q 737 433 770 461 q 662 389 704 405 l 868 0 l 636 0 l 454 358 l 286 358 l 286 0 m 256 -339 l 338 -105 l 511 -105 l 403 -339 l 256 -339 z "},"S":{"ha":877,"x_min":45,"x_max":833,"o":"m 242 279 q 262 224 245 248 q 306 182 279 199 q 368 155 333 164 q 444 145 404 145 q 519 154 485 145 q 577 180 553 163 q 615 219 602 197 q 628 269 628 242 q 590 346 628 317 q 463 395 551 375 l 336 422 q 66 696 66 480 q 94 819 66 764 q 172 913 122 874 q 290 974 222 953 q 441 996 359 996 q 595 975 526 996 q 712 915 664 954 q 787 822 761 876 q 815 701 814 768 l 623 701 q 606 757 621 732 q 568 799 592 781 q 512 825 545 816 q 441 834 480 834 q 372 825 404 834 q 319 801 341 817 q 285 763 297 785 q 273 713 273 741 q 310 640 273 668 q 433 593 348 612 l 551 568 q 678 529 625 553 q 766 471 731 505 q 817 393 800 437 q 833 293 833 349 q 805 164 833 222 q 726 67 777 107 q 601 5 674 26 q 436 -17 527 -17 q 277 3 348 -17 q 155 62 205 24 q 75 155 104 100 q 45 279 47 210 l 242 279 z "},"Š":{"ha":877,"x_min":45,"x_max":833,"o":"m 242 279 q 262 224 245 248 q 306 182 279 199 q 368 155 333 164 q 444 145 404 145 q 519 154 485 145 q 577 180 553 163 q 615 219 602 197 q 628 269 628 242 q 590 346 628 317 q 463 395 551 375 l 336 422 q 66 696 66 480 q 94 819 66 764 q 172 913 122 874 q 290 974 222 953 q 441 996 359 996 q 595 975 526 996 q 712 915 664 954 q 787 822 761 876 q 815 701 814 768 l 623 701 q 606 757 621 732 q 568 799 592 781 q 512 825 545 816 q 441 834 480 834 q 372 825 404 834 q 319 801 341 817 q 285 763 297 785 q 273 713 273 741 q 310 640 273 668 q 433 593 348 612 l 551 568 q 678 529 625 553 q 766 471 731 505 q 817 393 800 437 q 833 293 833 349 q 805 164 833 222 q 726 67 777 107 q 601 5 674 26 q 436 -17 527 -17 q 277 3 348 -17 q 155 62 205 24 q 75 155 104 100 q 45 279 47 210 l 242 279 m 180 1262 l 331 1262 l 441 1128 l 446 1128 l 556 1262 l 707 1262 l 521 1046 l 366 1046 l 180 1262 z "},"Ş":{"ha":877,"x_min":45,"x_max":833,"o":"m 551 568 q 678 529 625 553 q 766 471 731 505 q 817 393 800 437 q 833 293 833 349 q 809 174 833 228 q 742 80 786 120 q 635 17 698 41 q 494 -14 572 -7 l 467 -79 q 560 -107 527 -79 q 593 -186 593 -135 q 550 -279 593 -245 q 429 -313 507 -312 q 377 -310 401 -313 q 334 -302 353 -307 l 334 -220 q 368 -227 346 -224 q 410 -230 389 -230 q 482 -193 482 -230 q 463 -163 482 -172 q 397 -155 444 -155 l 359 -155 l 359 -86 l 391 -16 q 250 12 313 -11 q 142 72 186 35 q 72 162 97 110 q 45 279 47 214 l 242 279 q 262 224 245 248 q 306 182 279 199 q 368 155 333 164 q 444 145 404 145 q 519 154 485 145 q 577 180 553 163 q 615 219 602 197 q 628 269 628 242 q 590 346 628 317 q 463 395 551 375 l 336 422 q 66 696 66 480 q 94 819 66 764 q 172 913 122 874 q 290 974 222 953 q 441 996 359 996 q 595 975 526 996 q 712 915 664 954 q 787 822 761 876 q 815 701 814 768 l 623 701 q 606 757 621 732 q 568 799 592 781 q 512 825 545 816 q 441 834 480 834 q 372 825 404 834 q 319 801 341 817 q 285 763 297 785 q 273 713 273 741 q 310 640 273 668 q 433 593 348 612 l 551 568 z "},"Ṡ":{"ha":877,"x_min":45,"x_max":833,"o":"m 444 1059 q 404 1066 422 1059 q 372 1088 385 1074 q 350 1120 358 1102 q 342 1160 342 1139 q 350 1199 342 1181 q 372 1231 358 1217 q 404 1252 385 1244 q 444 1260 422 1260 q 483 1252 465 1260 q 515 1231 502 1244 q 537 1199 529 1217 q 545 1160 545 1181 q 537 1120 545 1139 q 515 1088 529 1102 q 483 1066 502 1074 q 444 1059 465 1059 m 242 279 q 262 224 245 248 q 306 182 279 199 q 368 155 333 164 q 444 145 404 145 q 519 154 485 145 q 577 180 553 163 q 615 219 602 197 q 628 269 628 242 q 590 346 628 317 q 463 395 551 375 l 336 422 q 66 696 66 480 q 94 819 66 764 q 172 913 122 874 q 290 974 222 953 q 441 996 359 996 q 595 975 526 996 q 712 915 664 954 q 787 822 761 876 q 815 701 814 768 l 623 701 q 606 757 621 732 q 568 799 592 781 q 512 825 545 816 q 441 834 480 834 q 372 825 404 834 q 319 801 341 817 q 285 763 297 785 q 273 713 273 741 q 310 640 273 668 q 433 593 348 612 l 551 568 q 678 529 625 553 q 766 471 731 505 q 817 393 800 437 q 833 293 833 349 q 805 164 833 222 q 726 67 777 107 q 601 5 674 26 q 436 -17 527 -17 q 277 3 348 -17 q 155 62 205 24 q 75 155 104 100 q 45 279 47 210 l 242 279 z "},"Ṣ":{"ha":877,"x_min":45,"x_max":833,"o":"m 438 -311 q 398 -303 416 -311 q 366 -281 380 -295 q 345 -249 353 -267 q 337 -210 337 -231 q 345 -170 337 -189 q 366 -138 353 -152 q 398 -117 380 -125 q 438 -109 416 -109 q 478 -117 459 -109 q 510 -138 496 -125 q 531 -170 524 -152 q 539 -210 539 -189 q 531 -249 539 -231 q 510 -281 524 -267 q 478 -303 496 -295 q 438 -311 459 -311 m 242 279 q 262 224 245 248 q 306 182 279 199 q 368 155 333 164 q 444 145 404 145 q 519 154 485 145 q 577 180 553 163 q 615 219 602 197 q 628 269 628 242 q 590 346 628 317 q 463 395 551 375 l 336 422 q 66 696 66 480 q 94 819 66 764 q 172 913 122 874 q 290 974 222 953 q 441 996 359 996 q 595 975 526 996 q 712 915 664 954 q 787 822 761 876 q 815 701 814 768 l 623 701 q 606 757 621 732 q 568 799 592 781 q 512 825 545 816 q 441 834 480 834 q 372 825 404 834 q 319 801 341 817 q 285 763 297 785 q 273 713 273 741 q 310 640 273 668 q 433 593 348 612 l 551 568 q 678 529 625 553 q 766 471 731 505 q 817 393 800 437 q 833 293 833 349 q 805 164 833 222 q 726 67 777 107 q 601 5 674 26 q 436 -17 527 -17 q 277 3 348 -17 q 155 62 205 24 q 75 155 104 100 q 45 279 47 210 l 242 279 z "},"Ș":{"ha":877,"x_min":45,"x_max":833,"o":"m 242 279 q 262 224 245 248 q 306 182 279 199 q 368 155 333 164 q 444 145 404 145 q 519 154 485 145 q 577 180 553 163 q 615 219 602 197 q 628 269 628 242 q 590 346 628 317 q 463 395 551 375 l 336 422 q 66 696 66 480 q 94 819 66 764 q 172 913 122 874 q 290 974 222 953 q 441 996 359 996 q 595 975 526 996 q 712 915 664 954 q 787 822 761 876 q 815 701 814 768 l 623 701 q 606 757 621 732 q 568 799 592 781 q 512 825 545 816 q 441 834 480 834 q 372 825 404 834 q 319 801 341 817 q 285 763 297 785 q 273 713 273 741 q 310 640 273 668 q 433 593 348 612 l 551 568 q 678 529 625 553 q 766 471 731 505 q 817 393 800 437 q 833 293 833 349 q 805 164 833 222 q 726 67 777 107 q 601 5 674 26 q 436 -17 527 -17 q 277 3 348 -17 q 155 62 205 24 q 75 155 104 100 q 45 279 47 210 l 242 279 m 276 -339 l 358 -105 l 532 -105 l 423 -339 l 276 -339 z "},"Ṩ":{"ha":877,"x_min":45,"x_max":833,"o":"m 438 -311 q 398 -303 416 -311 q 366 -281 380 -295 q 345 -249 353 -267 q 337 -210 337 -231 q 345 -170 337 -189 q 366 -138 353 -152 q 398 -117 380 -125 q 438 -109 416 -109 q 478 -117 459 -109 q 510 -138 496 -125 q 531 -170 524 -152 q 539 -210 539 -189 q 531 -249 539 -231 q 510 -281 524 -267 q 478 -303 496 -295 q 438 -311 459 -311 m 242 279 q 262 224 245 248 q 306 182 279 199 q 368 155 333 164 q 444 145 404 145 q 519 154 485 145 q 577 180 553 163 q 615 219 602 197 q 628 269 628 242 q 590 346 628 317 q 463 395 551 375 l 336 422 q 66 696 66 480 q 94 819 66 764 q 172 913 122 874 q 290 974 222 953 q 441 996 359 996 q 595 975 526 996 q 712 915 664 954 q 787 822 761 876 q 815 701 814 768 l 623 701 q 606 757 621 732 q 568 799 592 781 q 512 825 545 816 q 441 834 480 834 q 372 825 404 834 q 319 801 341 817 q 285 763 297 785 q 273 713 273 741 q 310 640 273 668 q 433 593 348 612 l 551 568 q 678 529 625 553 q 766 471 731 505 q 817 393 800 437 q 833 293 833 349 q 805 164 833 222 q 726 67 777 107 q 601 5 674 26 q 436 -17 527 -17 q 277 3 348 -17 q 155 62 205 24 q 75 155 104 100 q 45 279 47 210 l 242 279 m 444 1059 q 404 1066 422 1059 q 372 1088 385 1074 q 350 1120 358 1102 q 342 1160 342 1139 q 350 1199 342 1181 q 372 1231 358 1217 q 404 1252 385 1244 q 444 1260 422 1260 q 483 1252 465 1260 q 515 1231 502 1244 q 537 1199 529 1217 q 545 1160 545 1181 q 537 1120 545 1139 q 515 1088 529 1102 q 483 1066 502 1074 q 444 1059 465 1059 z "},"Ṧ":{"ha":877,"x_min":45,"x_max":833,"o":"m 188 1234 l 345 1234 l 439 1133 l 448 1133 l 543 1234 l 699 1234 l 522 1055 l 365 1055 l 188 1234 m 444 1256 q 407 1263 424 1256 q 378 1282 391 1270 q 359 1310 366 1294 q 353 1344 353 1326 q 359 1378 353 1362 q 378 1407 366 1394 q 407 1426 391 1419 q 444 1432 424 1432 q 480 1426 463 1432 q 509 1407 496 1419 q 528 1378 521 1394 q 534 1344 534 1362 q 528 1310 534 1326 q 509 1282 521 1294 q 480 1263 496 1270 q 444 1256 463 1256 m 242 279 q 262 224 245 248 q 306 182 279 199 q 368 155 333 164 q 444 145 404 145 q 519 154 485 145 q 577 180 553 163 q 615 219 602 197 q 628 269 628 242 q 590 346 628 317 q 463 395 551 375 l 336 422 q 66 696 66 480 q 94 819 66 764 q 172 913 122 874 q 290 974 222 953 q 441 996 359 996 q 595 975 526 996 q 712 915 664 954 q 787 822 761 876 q 815 701 814 768 l 623 701 q 606 757 621 732 q 568 799 592 781 q 512 825 545 816 q 441 834 480 834 q 372 825 404 834 q 319 801 341 817 q 285 763 297 785 q 273 713 273 741 q 310 640 273 668 q 433 593 348 612 l 551 568 q 678 529 625 553 q 766 471 731 505 q 817 393 800 437 q 833 293 833 349 q 805 164 833 222 q 726 67 777 107 q 601 5 674 26 q 436 -17 527 -17 q 277 3 348 -17 q 155 62 205 24 q 75 155 104 100 q 45 279 47 210 l 242 279 z "},"Ŝ":{"ha":877,"x_min":45,"x_max":833,"o":"m 242 279 q 262 224 245 248 q 306 182 279 199 q 368 155 333 164 q 444 145 404 145 q 519 154 485 145 q 577 180 553 163 q 615 219 602 197 q 628 269 628 242 q 590 346 628 317 q 463 395 551 375 l 336 422 q 66 696 66 480 q 94 819 66 764 q 172 913 122 874 q 290 974 222 953 q 441 996 359 996 q 595 975 526 996 q 712 915 664 954 q 787 822 761 876 q 815 701 814 768 l 623 701 q 606 757 621 732 q 568 799 592 781 q 512 825 545 816 q 441 834 480 834 q 372 825 404 834 q 319 801 341 817 q 285 763 297 785 q 273 713 273 741 q 310 640 273 668 q 433 593 348 612 l 551 568 q 678 529 625 553 q 766 471 731 505 q 817 393 800 437 q 833 293 833 349 q 805 164 833 222 q 726 67 777 107 q 601 5 674 26 q 436 -17 527 -17 q 277 3 348 -17 q 155 62 205 24 q 75 155 104 100 q 45 279 47 210 l 242 279 m 521 1262 l 707 1046 l 556 1046 l 446 1180 l 441 1180 l 331 1046 l 180 1046 l 366 1262 l 521 1262 z "},"Ṥ":{"ha":877,"x_min":45,"x_max":833,"o":"m 444 1053 l 601 1263 l 786 1263 l 598 1053 l 444 1053 m 290 1064 q 250 1072 268 1064 q 218 1094 231 1080 q 196 1126 204 1107 q 189 1165 189 1144 q 196 1204 189 1186 q 218 1236 204 1223 q 250 1258 231 1250 q 290 1265 268 1265 q 329 1258 311 1265 q 361 1236 348 1250 q 383 1204 375 1223 q 391 1165 391 1186 q 383 1126 391 1144 q 361 1094 375 1107 q 329 1072 348 1080 q 290 1064 311 1064 m 242 279 q 262 224 245 248 q 306 182 279 199 q 368 155 333 164 q 444 145 404 145 q 519 154 485 145 q 577 180 553 163 q 615 219 602 197 q 628 269 628 242 q 590 346 628 317 q 463 395 551 375 l 336 422 q 66 696 66 480 q 94 819 66 764 q 172 913 122 874 q 290 974 222 953 q 441 996 359 996 q 595 975 526 996 q 712 915 664 954 q 787 822 761 876 q 815 701 814 768 l 623 701 q 606 757 621 732 q 568 799 592 781 q 512 825 545 816 q 441 834 480 834 q 372 825 404 834 q 319 801 341 817 q 285 763 297 785 q 273 713 273 741 q 310 640 273 668 q 433 593 348 612 l 551 568 q 678 529 625 553 q 766 471 731 505 q 817 393 800 437 q 833 293 833 349 q 805 164 833 222 q 726 67 777 107 q 601 5 674 26 q 436 -17 527 -17 q 277 3 348 -17 q 155 62 205 24 q 75 155 104 100 q 45 279 47 210 l 242 279 z "},"Ś":{"ha":877,"x_min":45,"x_max":833,"o":"m 363 1053 l 520 1263 l 705 1263 l 517 1053 l 363 1053 m 242 279 q 262 224 245 248 q 306 182 279 199 q 368 155 333 164 q 444 145 404 145 q 519 154 485 145 q 577 180 553 163 q 615 219 602 197 q 628 269 628 242 q 590 346 628 317 q 463 395 551 375 l 336 422 q 66 696 66 480 q 94 819 66 764 q 172 913 122 874 q 290 974 222 953 q 441 996 359 996 q 595 975 526 996 q 712 915 664 954 q 787 822 761 876 q 815 701 814 768 l 623 701 q 606 757 621 732 q 568 799 592 781 q 512 825 545 816 q 441 834 480 834 q 372 825 404 834 q 319 801 341 817 q 285 763 297 785 q 273 713 273 741 q 310 640 273 668 q 433 593 348 612 l 551 568 q 678 529 625 553 q 766 471 731 505 q 817 393 800 437 q 833 293 833 349 q 805 164 833 222 q 726 67 777 107 q 601 5 674 26 q 436 -17 527 -17 q 277 3 348 -17 q 155 62 205 24 q 75 155 104 100 q 45 279 47 210 l 242 279 z "},"T":{"ha":842,"x_min":33,"x_max":810,"o":"m 319 0 l 319 810 l 33 810 l 33 979 l 810 979 l 810 810 l 524 810 l 524 0 l 319 0 z "},"Ṱ":{"ha":842,"x_min":33,"x_max":810,"o":"m 319 0 l 319 810 l 33 810 l 33 979 l 810 979 l 810 810 l 524 810 l 524 0 l 319 0 m 498 -109 l 684 -324 l 534 -324 l 423 -191 l 419 -191 l 309 -324 l 158 -324 l 344 -109 l 498 -109 z "},"Ṭ":{"ha":842,"x_min":33,"x_max":810,"o":"m 421 -311 q 381 -303 399 -311 q 349 -281 363 -295 q 328 -249 336 -267 q 320 -210 320 -231 q 328 -170 320 -189 q 349 -138 336 -152 q 381 -117 363 -125 q 421 -109 399 -109 q 461 -117 442 -109 q 493 -138 479 -125 q 514 -170 507 -152 q 522 -210 522 -189 q 514 -249 522 -231 q 493 -281 507 -267 q 461 -303 479 -295 q 421 -311 442 -311 m 319 0 l 319 810 l 33 810 l 33 979 l 810 979 l 810 810 l 524 810 l 524 0 l 319 0 z "},"Ț":{"ha":842,"x_min":33,"x_max":810,"o":"m 259 -339 l 341 -105 l 515 -105 l 406 -339 l 259 -339 m 319 0 l 319 810 l 33 810 l 33 979 l 810 979 l 810 810 l 524 810 l 524 0 l 319 0 z "},"Ṫ":{"ha":842,"x_min":33,"x_max":810,"o":"m 421 1059 q 381 1066 399 1059 q 349 1088 363 1074 q 328 1120 336 1102 q 320 1160 320 1139 q 328 1199 320 1181 q 349 1231 336 1217 q 381 1252 363 1244 q 421 1260 399 1260 q 461 1252 442 1260 q 493 1231 479 1244 q 514 1199 507 1217 q 522 1160 522 1181 q 514 1120 522 1139 q 493 1088 507 1102 q 461 1066 479 1074 q 421 1059 442 1059 m 319 0 l 319 810 l 33 810 l 33 979 l 810 979 l 810 810 l 524 810 l 524 0 l 319 0 z "},"Ţ":{"ha":842,"x_min":33,"x_max":810,"o":"m 484 0 l 450 -79 q 543 -107 510 -79 q 576 -186 576 -135 q 533 -279 576 -245 q 412 -313 490 -312 q 360 -310 384 -313 q 317 -302 336 -307 l 317 -220 q 351 -227 329 -224 q 393 -230 372 -230 q 465 -193 465 -230 q 446 -163 465 -172 q 380 -155 427 -155 l 342 -155 l 342 -86 l 382 0 l 319 0 l 319 810 l 33 810 l 33 979 l 810 979 l 810 810 l 524 810 l 524 0 l 484 0 z "},"Ṯ":{"ha":842,"x_min":33,"x_max":810,"o":"m 656 -253 l 186 -253 l 186 -156 l 656 -156 l 656 -253 m 319 0 l 319 810 l 33 810 l 33 979 l 810 979 l 810 810 l 524 810 l 524 0 l 319 0 z "},"Ť":{"ha":842,"x_min":33,"x_max":810,"o":"m 158 1262 l 309 1262 l 419 1128 l 423 1128 l 534 1262 l 684 1262 l 498 1046 l 344 1046 l 158 1262 m 319 0 l 319 810 l 33 810 l 33 979 l 810 979 l 810 810 l 524 810 l 524 0 l 319 0 z "},"Ŧ":{"ha":880,"x_min":39,"x_max":817,"o":"m 530 810 l 530 543 l 734 543 l 734 399 l 530 399 l 530 0 l 326 0 l 326 399 l 146 399 l 146 543 l 326 543 l 326 810 l 39 810 l 39 979 l 817 979 l 817 810 l 530 810 z "},"U":{"ha":983,"x_min":81,"x_max":901,"o":"m 286 366 q 300 281 286 319 q 339 216 313 243 q 404 174 366 189 q 492 159 442 159 q 579 174 541 159 q 643 216 617 189 q 683 281 669 243 q 696 366 696 319 l 696 979 l 901 979 l 901 346 q 872 198 901 265 q 790 84 844 132 q 661 9 737 36 q 492 -17 585 -17 q 321 9 397 -17 q 192 84 245 36 q 110 198 139 132 q 81 346 81 265 l 81 979 l 286 979 l 286 366 z "},"Ù":{"ha":983,"x_min":81,"x_max":901,"o":"m 229 1267 l 414 1267 l 571 1057 l 417 1057 l 229 1267 m 286 366 q 300 281 286 319 q 339 216 313 243 q 404 174 366 189 q 492 159 442 159 q 579 174 541 159 q 643 216 617 189 q 683 281 669 243 q 696 366 696 319 l 696 979 l 901 979 l 901 346 q 872 198 901 265 q 790 84 844 132 q 661 9 737 36 q 492 -17 585 -17 q 321 9 397 -17 q 192 84 245 36 q 110 198 139 132 q 81 346 81 265 l 81 979 l 286 979 l 286 366 z "},"Ȕ":{"ha":983,"x_min":81,"x_max":901,"o":"m 364 1263 l 547 1263 l 703 1053 l 553 1053 l 364 1263 m 96 1263 l 278 1263 l 435 1053 l 285 1053 l 96 1263 m 286 366 q 300 281 286 319 q 339 216 313 243 q 404 174 366 189 q 492 159 442 159 q 579 174 541 159 q 643 216 617 189 q 683 281 669 243 q 696 366 696 319 l 696 979 l 901 979 l 901 346 q 872 198 901 265 q 790 84 844 132 q 661 9 737 36 q 492 -17 585 -17 q 321 9 397 -17 q 192 84 245 36 q 110 198 139 132 q 81 346 81 265 l 81 979 l 286 979 l 286 366 z "},"Ú":{"ha":983,"x_min":81,"x_max":901,"o":"m 411 1053 l 568 1263 l 753 1263 l 566 1053 l 411 1053 m 286 366 q 300 281 286 319 q 339 216 313 243 q 404 174 366 189 q 492 159 442 159 q 579 174 541 159 q 643 216 617 189 q 683 281 669 243 q 696 366 696 319 l 696 979 l 901 979 l 901 346 q 872 198 901 265 q 790 84 844 132 q 661 9 737 36 q 492 -17 585 -17 q 321 9 397 -17 q 192 84 245 36 q 110 198 139 132 q 81 346 81 265 l 81 979 l 286 979 l 286 366 z "},"Ű":{"ha":983,"x_min":81,"x_max":901,"o":"m 286 366 q 300 281 286 319 q 339 216 313 243 q 404 174 366 189 q 492 159 442 159 q 579 174 541 159 q 643 216 617 189 q 683 281 669 243 q 696 366 696 319 l 696 979 l 901 979 l 901 346 q 872 198 901 265 q 790 84 844 132 q 661 9 737 36 q 492 -17 585 -17 q 321 9 397 -17 q 192 84 245 36 q 110 198 139 132 q 81 346 81 265 l 81 979 l 286 979 l 286 366 m 548 1053 l 705 1263 l 887 1263 l 699 1053 l 548 1053 m 280 1053 l 437 1263 l 619 1263 l 431 1053 l 280 1053 z "},"Û":{"ha":983,"x_min":81,"x_max":901,"o":"m 569 1262 l 755 1046 l 604 1046 l 494 1180 l 490 1180 l 379 1046 l 229 1046 l 414 1262 l 569 1262 m 286 366 q 300 281 286 319 q 339 216 313 243 q 404 174 366 189 q 492 159 442 159 q 579 174 541 159 q 643 216 617 189 q 683 281 669 243 q 696 366 696 319 l 696 979 l 901 979 l 901 346 q 872 198 901 265 q 790 84 844 132 q 661 9 737 36 q 492 -17 585 -17 q 321 9 397 -17 q 192 84 245 36 q 110 198 139 132 q 81 346 81 265 l 81 979 l 286 979 l 286 366 z "},"Ǔ":{"ha":983,"x_min":81,"x_max":901,"o":"m 229 1262 l 379 1262 l 490 1128 l 494 1128 l 604 1262 l 755 1262 l 569 1046 l 414 1046 l 229 1262 m 286 366 q 300 281 286 319 q 339 216 313 243 q 404 174 366 189 q 492 159 442 159 q 579 174 541 159 q 643 216 617 189 q 683 281 669 243 q 696 366 696 319 l 696 979 l 901 979 l 901 346 q 872 198 901 265 q 790 84 844 132 q 661 9 737 36 q 492 -17 585 -17 q 321 9 397 -17 q 192 84 245 36 q 110 198 139 132 q 81 346 81 265 l 81 979 l 286 979 l 286 366 z "},"Ṷ":{"ha":983,"x_min":81,"x_max":901,"o":"m 286 366 q 300 281 286 319 q 339 216 313 243 q 404 174 366 189 q 492 159 442 159 q 579 174 541 159 q 643 216 617 189 q 683 281 669 243 q 696 366 696 319 l 696 979 l 901 979 l 901 346 q 872 198 901 265 q 790 84 844 132 q 661 9 737 36 q 492 -17 585 -17 q 321 9 397 -17 q 192 84 245 36 q 110 198 139 132 q 81 346 81 265 l 81 979 l 286 979 l 286 366 m 569 -109 l 755 -324 l 604 -324 l 494 -191 l 490 -191 l 379 -324 l 229 -324 l 414 -109 l 569 -109 z "},"Ü":{"ha":983,"x_min":81,"x_max":901,"o":"m 350 1059 q 314 1066 330 1059 q 285 1085 297 1073 q 266 1113 273 1097 q 258 1147 258 1129 q 266 1182 258 1166 q 285 1210 273 1198 q 314 1229 297 1222 q 350 1236 330 1236 q 386 1229 370 1236 q 415 1210 403 1222 q 434 1182 427 1198 q 441 1147 441 1166 q 434 1113 441 1129 q 415 1085 427 1097 q 386 1066 403 1073 q 350 1059 370 1059 m 634 1059 q 598 1066 614 1059 q 569 1085 581 1073 q 550 1113 557 1097 q 543 1147 543 1129 q 550 1182 543 1166 q 569 1210 557 1198 q 598 1229 581 1222 q 634 1236 614 1236 q 670 1229 654 1236 q 699 1210 687 1222 q 719 1182 711 1198 q 726 1147 726 1166 q 719 1113 726 1129 q 699 1085 711 1097 q 670 1066 687 1073 q 634 1059 654 1059 m 286 366 q 300 281 286 319 q 339 216 313 243 q 404 174 366 189 q 492 159 442 159 q 579 174 541 159 q 643 216 617 189 q 683 281 669 243 q 696 366 696 319 l 696 979 l 901 979 l 901 346 q 872 198 901 265 q 790 84 844 132 q 661 9 737 36 q 492 -17 585 -17 q 321 9 397 -17 q 192 84 245 36 q 110 198 139 132 q 81 346 81 265 l 81 979 l 286 979 l 286 366 z "},"Ǜ":{"ha":983,"x_min":81,"x_max":901,"o":"m 425 1280 l 264 1444 l 436 1444 l 568 1280 l 425 1280 m 353 1061 q 318 1067 334 1061 q 291 1086 302 1074 q 272 1113 279 1097 q 266 1145 266 1128 q 272 1178 266 1162 q 291 1205 279 1194 q 318 1223 302 1216 q 353 1230 334 1230 q 388 1223 372 1230 q 415 1205 404 1216 q 433 1178 427 1194 q 440 1145 440 1162 q 433 1113 440 1128 q 415 1086 427 1097 q 388 1067 404 1074 q 353 1061 372 1061 m 630 1061 q 596 1067 612 1061 q 568 1086 580 1074 q 550 1113 557 1097 q 543 1145 543 1128 q 550 1178 543 1162 q 568 1205 557 1194 q 596 1223 580 1216 q 630 1230 612 1230 q 665 1223 649 1230 q 692 1205 681 1216 q 711 1178 704 1194 q 718 1145 718 1162 q 711 1113 718 1128 q 692 1086 704 1097 q 665 1067 681 1074 q 630 1061 649 1061 m 286 366 q 300 281 286 319 q 339 216 313 243 q 404 174 366 189 q 492 159 442 159 q 579 174 541 159 q 643 216 617 189 q 683 281 669 243 q 696 366 696 319 l 696 979 l 901 979 l 901 346 q 872 198 901 265 q 790 84 844 132 q 661 9 737 36 q 492 -17 585 -17 q 321 9 397 -17 q 192 84 245 36 q 110 198 139 132 q 81 346 81 265 l 81 979 l 286 979 l 286 366 z "},"Ǘ":{"ha":983,"x_min":81,"x_max":901,"o":"m 547 1444 l 720 1444 l 559 1280 l 416 1280 l 547 1444 m 353 1061 q 318 1067 334 1061 q 291 1086 302 1074 q 272 1113 279 1097 q 266 1145 266 1128 q 272 1178 266 1162 q 291 1205 279 1194 q 318 1223 302 1216 q 353 1230 334 1230 q 388 1223 372 1230 q 415 1205 404 1216 q 433 1178 427 1194 q 440 1145 440 1162 q 433 1113 440 1128 q 415 1086 427 1097 q 388 1067 404 1074 q 353 1061 372 1061 m 630 1061 q 596 1067 612 1061 q 568 1086 580 1074 q 550 1113 557 1097 q 543 1145 543 1128 q 550 1178 543 1162 q 568 1205 557 1194 q 596 1223 580 1216 q 630 1230 612 1230 q 665 1223 649 1230 q 692 1205 681 1216 q 711 1178 704 1194 q 718 1145 718 1162 q 711 1113 718 1128 q 692 1086 704 1097 q 665 1067 681 1074 q 630 1061 649 1061 m 286 366 q 300 281 286 319 q 339 216 313 243 q 404 174 366 189 q 492 159 442 159 q 579 174 541 159 q 643 216 617 189 q 683 281 669 243 q 696 366 696 319 l 696 979 l 901 979 l 901 346 q 872 198 901 265 q 790 84 844 132 q 661 9 737 36 q 492 -17 585 -17 q 321 9 397 -17 q 192 84 245 36 q 110 198 139 132 q 81 346 81 265 l 81 979 l 286 979 l 286 366 z "},"Ǖ":{"ha":983,"x_min":81,"x_max":901,"o":"m 286 366 q 300 281 286 319 q 339 216 313 243 q 404 174 366 189 q 492 159 442 159 q 579 174 541 159 q 643 216 617 189 q 683 281 669 243 q 696 366 696 319 l 696 979 l 901 979 l 901 346 q 872 198 901 265 q 790 84 844 132 q 661 9 737 36 q 492 -17 585 -17 q 321 9 397 -17 q 192 84 245 36 q 110 198 139 132 q 81 346 81 265 l 81 979 l 286 979 l 286 366 m 353 1230 q 388 1223 372 1230 q 415 1205 404 1216 q 433 1178 427 1194 q 440 1145 440 1162 q 433 1113 440 1128 q 415 1086 427 1097 q 388 1067 404 1074 q 353 1061 372 1061 q 318 1067 334 1061 q 291 1086 302 1074 q 272 1113 279 1097 q 266 1145 266 1128 q 272 1178 266 1162 q 291 1205 279 1194 q 318 1223 302 1216 q 353 1230 334 1230 m 726 1406 l 726 1309 l 257 1309 l 257 1406 l 726 1406 m 630 1230 q 665 1223 649 1230 q 692 1205 681 1216 q 711 1178 704 1194 q 718 1145 718 1162 q 711 1113 718 1128 q 692 1086 704 1097 q 665 1067 681 1074 q 630 1061 649 1061 q 596 1067 612 1061 q 568 1086 580 1074 q 550 1113 557 1097 q 543 1145 543 1128 q 550 1178 543 1162 q 568 1205 557 1194 q 596 1223 580 1216 q 630 1230 612 1230 z "},"Ǚ":{"ha":983,"x_min":81,"x_max":901,"o":"m 243 1453 l 395 1453 l 486 1360 l 498 1360 l 588 1453 l 741 1453 l 566 1280 l 417 1280 l 243 1453 m 353 1230 q 388 1223 372 1230 q 415 1205 404 1216 q 433 1178 427 1194 q 440 1145 440 1162 q 433 1113 440 1128 q 415 1086 427 1097 q 388 1067 404 1074 q 353 1061 372 1061 q 318 1067 334 1061 q 291 1086 302 1074 q 272 1113 279 1097 q 266 1145 266 1128 q 272 1178 266 1162 q 291 1205 279 1194 q 318 1223 302 1216 q 353 1230 334 1230 m 630 1230 q 665 1223 649 1230 q 692 1205 681 1216 q 711 1178 704 1194 q 718 1145 718 1162 q 711 1113 718 1128 q 692 1086 704 1097 q 665 1067 681 1074 q 630 1061 649 1061 q 596 1067 612 1061 q 568 1086 580 1074 q 550 1113 557 1097 q 543 1145 543 1128 q 550 1178 543 1162 q 568 1205 557 1194 q 596 1223 580 1216 q 630 1230 612 1230 m 286 366 q 300 281 286 319 q 339 216 313 243 q 404 174 366 189 q 492 159 442 159 q 579 174 541 159 q 643 216 617 189 q 683 281 669 243 q 696 366 696 319 l 696 979 l 901 979 l 901 346 q 872 198 901 265 q 790 84 844 132 q 661 9 737 36 q 492 -17 585 -17 q 321 9 397 -17 q 192 84 245 36 q 110 198 139 132 q 81 346 81 265 l 81 979 l 286 979 l 286 366 z "},"Ṳ":{"ha":983,"x_min":81,"x_max":901,"o":"m 286 366 q 300 281 286 319 q 339 216 313 243 q 404 174 366 189 q 492 159 442 159 q 579 174 541 159 q 643 216 617 189 q 683 281 669 243 q 696 366 696 319 l 696 979 l 901 979 l 901 346 q 872 198 901 265 q 790 84 844 132 q 661 9 737 36 q 492 -17 585 -17 q 321 9 397 -17 q 192 84 245 36 q 110 198 139 132 q 81 346 81 265 l 81 979 l 286 979 l 286 366 m 350 -292 q 314 -284 330 -292 q 285 -266 297 -277 q 266 -237 273 -254 q 258 -203 258 -221 q 266 -168 258 -184 q 285 -140 273 -152 q 314 -121 297 -128 q 350 -114 330 -114 q 386 -121 370 -114 q 415 -140 403 -128 q 434 -168 427 -152 q 441 -203 441 -184 q 434 -237 441 -221 q 415 -266 427 -254 q 386 -284 403 -277 q 350 -292 370 -292 m 634 -292 q 598 -284 614 -292 q 569 -266 581 -277 q 550 -237 557 -254 q 543 -203 543 -221 q 550 -168 543 -184 q 569 -140 557 -152 q 598 -121 581 -128 q 634 -114 614 -114 q 670 -121 654 -114 q 699 -140 687 -128 q 719 -168 711 -152 q 726 -203 726 -184 q 719 -237 726 -221 q 699 -266 711 -254 q 670 -284 687 -277 q 634 -292 654 -292 z "},"Ṵ":{"ha":983,"x_min":81,"x_max":901,"o":"m 587 -295 q 545 -288 564 -295 q 511 -271 526 -281 q 483 -249 496 -261 q 459 -227 471 -237 q 435 -210 447 -216 q 412 -203 424 -203 q 377 -225 389 -203 q 365 -283 366 -248 l 258 -283 q 269 -206 258 -240 q 299 -148 280 -172 q 346 -112 319 -124 q 404 -100 372 -100 q 465 -114 439 -100 q 510 -145 490 -128 q 546 -177 530 -163 q 581 -191 562 -191 q 613 -170 602 -191 q 625 -109 624 -148 l 732 -109 q 721 -186 732 -152 q 690 -245 709 -221 q 644 -282 671 -269 q 587 -295 617 -295 m 286 366 q 300 281 286 319 q 339 216 313 243 q 404 174 366 189 q 492 159 442 159 q 579 174 541 159 q 643 216 617 189 q 683 281 669 243 q 696 366 696 319 l 696 979 l 901 979 l 901 346 q 872 198 901 265 q 790 84 844 132 q 661 9 737 36 q 492 -17 585 -17 q 321 9 397 -17 q 192 84 245 36 q 110 198 139 132 q 81 346 81 265 l 81 979 l 286 979 l 286 366 z "},"Ủ":{"ha":983,"x_min":81,"x_max":901,"o":"m 286 366 q 300 281 286 319 q 339 216 313 243 q 404 174 366 189 q 492 159 442 159 q 579 174 541 159 q 643 216 617 189 q 683 281 669 243 q 696 366 696 319 l 696 979 l 901 979 l 901 346 q 872 198 901 265 q 790 84 844 132 q 661 9 737 36 q 492 -17 585 -17 q 321 9 397 -17 q 192 84 245 36 q 110 198 139 132 q 81 346 81 265 l 81 979 l 286 979 l 286 366 m 366 1303 q 410 1316 384 1312 q 463 1320 436 1320 q 530 1311 500 1320 q 580 1285 559 1302 q 612 1243 601 1268 q 624 1188 624 1219 q 614 1140 624 1164 q 588 1097 605 1117 q 548 1061 571 1077 q 496 1034 524 1044 l 438 1105 q 486 1135 467 1115 q 504 1177 504 1155 q 486 1213 504 1199 q 438 1227 468 1227 q 401 1223 421 1227 q 366 1214 381 1220 l 366 1303 z "},"Ŭ":{"ha":983,"x_min":81,"x_max":901,"o":"m 286 366 q 300 281 286 319 q 339 216 313 243 q 404 174 366 189 q 492 159 442 159 q 579 174 541 159 q 643 216 617 189 q 683 281 669 243 q 696 366 696 319 l 696 979 l 901 979 l 901 346 q 872 198 901 265 q 790 84 844 132 q 661 9 737 36 q 492 -17 585 -17 q 321 9 397 -17 q 192 84 245 36 q 110 198 139 132 q 81 346 81 265 l 81 979 l 286 979 l 286 366 m 373 1261 q 382 1215 374 1236 q 406 1178 391 1194 q 444 1154 422 1162 q 492 1145 465 1145 q 540 1154 518 1145 q 577 1178 562 1162 q 601 1215 593 1194 q 610 1261 610 1236 l 731 1261 q 714 1177 730 1216 q 666 1108 697 1137 q 591 1063 635 1080 q 492 1046 547 1046 q 392 1063 436 1046 q 317 1108 348 1080 q 270 1177 286 1137 q 252 1261 253 1216 l 373 1261 z "},"Ȗ":{"ha":983,"x_min":81,"x_max":901,"o":"m 286 366 q 300 281 286 319 q 339 216 313 243 q 404 174 366 189 q 492 159 442 159 q 579 174 541 159 q 643 216 617 189 q 683 281 669 243 q 696 366 696 319 l 696 979 l 901 979 l 901 346 q 872 198 901 265 q 790 84 844 132 q 661 9 737 36 q 492 -17 585 -17 q 321 9 397 -17 q 192 84 245 36 q 110 198 139 132 q 81 346 81 265 l 81 979 l 286 979 l 286 366 m 252 1046 q 270 1131 253 1092 q 317 1199 286 1170 q 392 1245 348 1228 q 492 1261 436 1261 q 591 1245 547 1261 q 666 1199 635 1228 q 714 1131 697 1170 q 731 1046 730 1092 l 610 1046 q 601 1093 610 1072 q 577 1130 593 1114 q 540 1154 562 1145 q 492 1163 518 1163 q 444 1154 465 1163 q 406 1130 422 1145 q 382 1093 391 1114 q 373 1046 374 1072 l 252 1046 z "},"Ṹ":{"ha":983,"x_min":81,"x_max":901,"o":"m 286 366 q 300 281 286 319 q 339 216 313 243 q 404 174 366 189 q 492 159 442 159 q 579 174 541 159 q 643 216 617 189 q 683 281 669 243 q 696 366 696 319 l 696 979 l 901 979 l 901 346 q 872 198 901 265 q 790 84 844 132 q 661 9 737 36 q 492 -17 585 -17 q 321 9 397 -17 q 192 84 245 36 q 110 198 139 132 q 81 346 81 265 l 81 979 l 286 979 l 286 366 m 584 1042 q 542 1048 560 1042 q 508 1065 523 1055 q 479 1088 492 1076 q 455 1110 467 1100 q 431 1127 443 1120 q 408 1134 420 1134 q 373 1112 385 1134 q 361 1053 361 1090 l 254 1053 q 264 1131 254 1097 q 295 1189 275 1166 q 340 1225 314 1213 q 399 1238 367 1238 q 442 1231 422 1238 q 477 1214 461 1224 q 506 1191 493 1203 q 531 1169 519 1179 q 554 1152 543 1158 q 577 1145 565 1145 q 610 1167 599 1145 q 621 1227 621 1189 l 728 1227 q 718 1150 728 1184 q 687 1092 707 1116 q 642 1055 668 1067 q 584 1042 615 1042 m 548 1444 l 720 1444 l 559 1280 l 416 1280 l 548 1444 z "},"Ụ":{"ha":983,"x_min":81,"x_max":901,"o":"m 492 -311 q 452 -303 470 -311 q 420 -281 433 -295 q 398 -249 406 -267 q 391 -210 391 -231 q 398 -170 391 -189 q 420 -138 406 -152 q 452 -117 433 -125 q 492 -109 470 -109 q 531 -117 513 -109 q 564 -138 550 -125 q 585 -170 577 -152 q 593 -210 593 -189 q 585 -249 593 -231 q 564 -281 577 -267 q 531 -303 550 -295 q 492 -311 513 -311 m 286 366 q 300 281 286 319 q 339 216 313 243 q 404 174 366 189 q 492 159 442 159 q 579 174 541 159 q 643 216 617 189 q 683 281 669 243 q 696 366 696 319 l 696 979 l 901 979 l 901 346 q 872 198 901 265 q 790 84 844 132 q 661 9 737 36 q 492 -17 585 -17 q 321 9 397 -17 q 192 84 245 36 q 110 198 139 132 q 81 346 81 265 l 81 979 l 286 979 l 286 366 z "},"Ũ":{"ha":983,"x_min":81,"x_max":901,"o":"m 286 366 q 300 281 286 319 q 339 216 313 243 q 404 174 366 189 q 492 159 442 159 q 579 174 541 159 q 643 216 617 189 q 683 281 669 243 q 696 366 696 319 l 696 979 l 901 979 l 901 346 q 872 198 901 265 q 790 84 844 132 q 661 9 737 36 q 492 -17 585 -17 q 321 9 397 -17 q 192 84 245 36 q 110 198 139 132 q 81 346 81 265 l 81 979 l 286 979 l 286 366 m 587 1045 q 545 1052 564 1045 q 511 1069 526 1059 q 483 1091 496 1079 q 459 1114 471 1103 q 435 1131 447 1124 q 412 1137 424 1137 q 377 1115 389 1137 q 365 1057 366 1093 l 258 1057 q 269 1134 258 1100 q 299 1192 280 1168 q 346 1228 319 1216 q 404 1240 372 1240 q 465 1226 439 1240 q 510 1195 490 1212 q 546 1163 530 1177 q 581 1149 562 1149 q 613 1171 602 1149 q 625 1232 624 1192 l 732 1232 q 721 1154 732 1188 q 690 1095 709 1119 q 644 1058 671 1071 q 587 1045 617 1045 z "},"Ū":{"ha":983,"x_min":81,"x_max":901,"o":"m 286 366 q 300 281 286 319 q 339 216 313 243 q 404 174 366 189 q 492 159 442 159 q 579 174 541 159 q 643 216 617 189 q 683 281 669 243 q 696 366 696 319 l 696 979 l 901 979 l 901 346 q 872 198 901 265 q 790 84 844 132 q 661 9 737 36 q 492 -17 585 -17 q 321 9 397 -17 q 192 84 245 36 q 110 198 139 132 q 81 346 81 265 l 81 979 l 286 979 l 286 366 m 726 1101 l 257 1101 l 257 1198 l 726 1198 l 726 1101 z "},"Ṻ":{"ha":983,"x_min":81,"x_max":901,"o":"m 257 1101 l 257 1198 l 726 1198 l 726 1101 l 257 1101 m 353 1291 q 318 1298 334 1291 q 291 1316 302 1305 q 272 1343 279 1328 q 266 1376 266 1358 q 272 1409 266 1394 q 291 1436 279 1424 q 318 1454 302 1447 q 353 1460 334 1460 q 388 1454 372 1460 q 415 1436 404 1447 q 433 1409 427 1424 q 440 1376 440 1394 q 433 1343 440 1358 q 415 1316 427 1328 q 388 1298 404 1305 q 353 1291 372 1291 m 630 1291 q 596 1298 612 1291 q 568 1316 580 1305 q 550 1343 557 1328 q 543 1376 543 1358 q 550 1409 543 1394 q 568 1436 557 1424 q 596 1454 580 1447 q 630 1460 612 1460 q 665 1454 649 1460 q 692 1436 681 1447 q 711 1409 704 1424 q 718 1376 718 1394 q 711 1343 718 1358 q 692 1316 704 1328 q 665 1298 681 1305 q 630 1291 649 1291 m 286 366 q 300 281 286 319 q 339 216 313 243 q 404 174 366 189 q 492 159 442 159 q 579 174 541 159 q 643 216 617 189 q 683 281 669 243 q 696 366 696 319 l 696 979 l 901 979 l 901 346 q 872 198 901 265 q 790 84 844 132 q 661 9 737 36 q 492 -17 585 -17 q 321 9 397 -17 q 192 84 245 36 q 110 198 139 132 q 81 346 81 265 l 81 979 l 286 979 l 286 366 z "},"Ů":{"ha":983,"x_min":81,"x_max":901,"o":"m 492 1026 q 434 1038 461 1026 q 386 1069 407 1049 q 354 1116 366 1089 q 342 1173 342 1143 q 354 1231 342 1204 q 386 1277 366 1257 q 434 1309 407 1297 q 492 1320 461 1320 q 550 1309 522 1320 q 597 1277 577 1297 q 630 1231 618 1257 q 642 1173 642 1204 q 630 1116 642 1143 q 597 1069 618 1089 q 550 1038 577 1049 q 492 1026 522 1026 m 492 1105 q 518 1111 506 1105 q 541 1125 531 1116 q 555 1147 550 1135 q 561 1173 561 1159 q 555 1200 561 1187 q 541 1221 550 1212 q 518 1236 531 1231 q 492 1242 506 1242 q 465 1236 477 1242 q 443 1221 452 1231 q 428 1200 433 1212 q 422 1173 422 1187 q 428 1147 422 1159 q 443 1125 433 1135 q 465 1111 452 1116 q 492 1105 477 1105 m 286 366 q 300 281 286 319 q 339 216 313 243 q 404 174 366 189 q 492 159 442 159 q 579 174 541 159 q 643 216 617 189 q 683 281 669 243 q 696 366 696 319 l 696 979 l 901 979 l 901 346 q 872 198 901 265 q 790 84 844 132 q 661 9 737 36 q 492 -17 585 -17 q 321 9 397 -17 q 192 84 245 36 q 110 198 139 132 q 81 346 81 265 l 81 979 l 286 979 l 286 366 z "},"Ų":{"ha":983,"x_min":81,"x_max":901,"o":"m 643 -309 q 574 -299 605 -309 q 520 -270 543 -289 q 486 -225 498 -251 q 473 -168 473 -199 q 557 -11 473 -77 l 557 -9 q 529 -15 547 -13 q 492 -17 511 -17 q 323 9 399 -17 q 194 82 248 35 q 111 197 140 130 q 81 346 81 264 l 81 979 l 286 979 l 286 366 q 300 279 286 317 q 341 214 315 241 q 406 173 368 187 q 492 159 444 159 q 577 173 539 159 q 642 214 615 187 q 682 279 668 241 q 696 366 696 317 l 696 979 l 901 979 l 901 346 q 889 243 901 288 q 855 163 876 199 q 808 101 834 128 q 754 51 781 73 q 700 8 726 28 q 653 -32 673 -12 q 620 -75 632 -52 q 607 -125 607 -97 q 629 -176 607 -156 q 687 -195 652 -195 q 734 -191 710 -195 l 734 -296 q 693 -306 717 -302 q 643 -309 669 -309 z "},"Ư":{"ha":1124,"x_min":81,"x_max":1156,"o":"m 903 942 q 957 931 931 927 q 994 952 983 933 q 1004 1015 1004 972 l 1004 1114 l 1156 1114 l 1156 976 q 1143 897 1156 932 q 1108 838 1131 862 q 1051 801 1084 814 q 975 788 1017 788 q 957 789 968 788 q 936 792 947 790 q 916 797 925 794 q 901 803 906 800 l 901 346 q 872 197 901 264 q 789 82 843 130 q 660 9 736 35 q 492 -17 585 -17 q 323 9 399 -17 q 194 82 248 35 q 111 197 140 130 q 81 346 81 264 l 81 979 l 286 979 l 286 366 q 300 280 286 318 q 341 215 315 241 q 406 174 368 188 q 492 159 444 159 q 577 174 539 159 q 642 214 615 188 q 682 279 668 241 q 696 366 696 317 l 696 979 l 903 979 l 903 942 l 903 942 z "},"Ừ":{"ha":1124,"x_min":81,"x_max":1156,"o":"m 229 1267 l 414 1267 l 571 1057 l 417 1057 l 229 1267 m 903 942 q 957 931 931 927 q 994 952 983 933 q 1004 1015 1004 972 l 1004 1114 l 1156 1114 l 1156 976 q 1143 897 1156 932 q 1108 838 1131 862 q 1051 801 1084 814 q 975 788 1017 788 q 957 789 968 788 q 936 792 947 790 q 916 797 925 794 q 901 803 906 800 l 901 346 q 872 197 901 264 q 789 82 843 130 q 660 9 736 35 q 492 -17 585 -17 q 323 9 399 -17 q 194 82 248 35 q 111 197 140 130 q 81 346 81 264 l 81 979 l 286 979 l 286 366 q 300 280 286 318 q 341 215 315 241 q 406 174 368 188 q 492 159 444 159 q 577 174 539 159 q 642 214 615 188 q 682 279 668 241 q 696 366 696 317 l 696 979 l 903 979 l 903 942 z "},"Ứ":{"ha":1124,"x_min":81,"x_max":1156,"o":"m 411 1053 l 568 1263 l 753 1263 l 566 1053 l 411 1053 m 903 942 q 957 931 931 927 q 994 952 983 933 q 1004 1015 1004 972 l 1004 1114 l 1156 1114 l 1156 976 q 1143 897 1156 932 q 1108 838 1131 862 q 1051 801 1084 814 q 975 788 1017 788 q 957 789 968 788 q 936 792 947 790 q 916 797 925 794 q 901 803 906 800 l 901 346 q 872 197 901 264 q 789 82 843 130 q 660 9 736 35 q 492 -17 585 -17 q 323 9 399 -17 q 194 82 248 35 q 111 197 140 130 q 81 346 81 264 l 81 979 l 286 979 l 286 366 q 300 280 286 318 q 341 215 315 241 q 406 174 368 188 q 492 159 444 159 q 577 174 539 159 q 642 214 615 188 q 682 279 668 241 q 696 366 696 317 l 696 979 l 903 979 l 903 942 z "},"Ự":{"ha":1124,"x_min":81,"x_max":1156,"o":"m 492 -311 q 452 -303 470 -311 q 420 -281 433 -295 q 398 -249 406 -267 q 391 -210 391 -231 q 398 -170 391 -189 q 420 -138 406 -152 q 452 -117 433 -125 q 492 -109 470 -109 q 531 -117 513 -109 q 564 -138 550 -125 q 585 -170 577 -152 q 593 -210 593 -189 q 585 -249 593 -231 q 564 -281 577 -267 q 531 -303 550 -295 q 492 -311 513 -311 m 903 942 q 957 931 931 927 q 994 952 983 933 q 1004 1015 1004 972 l 1004 1114 l 1156 1114 l 1156 976 q 1143 897 1156 932 q 1108 838 1131 862 q 1051 801 1084 814 q 975 788 1017 788 q 957 789 968 788 q 936 792 947 790 q 916 797 925 794 q 901 803 906 800 l 901 346 q 872 197 901 264 q 789 82 843 130 q 660 9 736 35 q 492 -17 585 -17 q 323 9 399 -17 q 194 82 248 35 q 111 197 140 130 q 81 346 81 264 l 81 979 l 286 979 l 286 366 q 300 280 286 318 q 341 215 315 241 q 406 174 368 188 q 492 159 444 159 q 577 174 539 159 q 642 214 615 188 q 682 279 668 241 q 696 366 696 317 l 696 979 l 903 979 l 903 942 z "},"Ử":{"ha":1124,"x_min":81,"x_max":1156,"o":"m 366 1303 q 410 1316 384 1312 q 463 1320 436 1320 q 530 1311 500 1320 q 580 1285 559 1302 q 612 1243 601 1268 q 624 1188 624 1219 q 614 1140 624 1164 q 588 1097 605 1117 q 548 1061 571 1077 q 496 1034 524 1044 l 438 1105 q 486 1135 467 1115 q 504 1177 504 1155 q 486 1213 504 1199 q 438 1227 468 1227 q 401 1223 421 1227 q 366 1214 381 1220 l 366 1303 m 903 942 q 957 931 931 927 q 994 952 983 933 q 1004 1015 1004 972 l 1004 1114 l 1156 1114 l 1156 976 q 1143 897 1156 932 q 1108 838 1131 862 q 1051 801 1084 814 q 975 788 1017 788 q 957 789 968 788 q 936 792 947 790 q 916 797 925 794 q 901 803 906 800 l 901 346 q 872 197 901 264 q 789 82 843 130 q 660 9 736 35 q 492 -17 585 -17 q 323 9 399 -17 q 194 82 248 35 q 111 197 140 130 q 81 346 81 264 l 81 979 l 286 979 l 286 366 q 300 280 286 318 q 341 215 315 241 q 406 174 368 188 q 492 159 444 159 q 577 174 539 159 q 642 214 615 188 q 682 279 668 241 q 696 366 696 317 l 696 979 l 903 979 l 903 942 z "},"Ữ":{"ha":1124,"x_min":81,"x_max":1156,"o":"m 587 1045 q 545 1052 564 1045 q 511 1069 526 1059 q 483 1091 496 1079 q 459 1114 471 1103 q 435 1131 447 1124 q 412 1137 424 1137 q 377 1115 389 1137 q 365 1057 366 1093 l 258 1057 q 269 1134 258 1100 q 299 1192 280 1168 q 346 1228 319 1216 q 404 1240 372 1240 q 465 1226 439 1240 q 510 1195 490 1212 q 546 1163 530 1177 q 581 1149 562 1149 q 613 1171 602 1149 q 625 1232 624 1192 l 732 1232 q 721 1154 732 1188 q 690 1095 709 1119 q 644 1058 671 1071 q 587 1045 617 1045 m 903 942 q 957 931 931 927 q 994 952 983 933 q 1004 1015 1004 972 l 1004 1114 l 1156 1114 l 1156 976 q 1143 897 1156 932 q 1108 838 1131 862 q 1051 801 1084 814 q 975 788 1017 788 q 957 789 968 788 q 936 792 947 790 q 916 797 925 794 q 901 803 906 800 l 901 346 q 872 197 901 264 q 789 82 843 130 q 660 9 736 35 q 492 -17 585 -17 q 323 9 399 -17 q 194 82 248 35 q 111 197 140 130 q 81 346 81 264 l 81 979 l 286 979 l 286 366 q 300 280 286 318 q 341 215 315 241 q 406 174 368 188 q 492 159 444 159 q 577 174 539 159 q 642 214 615 188 q 682 279 668 241 q 696 366 696 317 l 696 979 l 903 979 l 903 942 z "},"V":{"ha":942,"x_min":19,"x_max":924,"o":"m 348 0 l 19 979 l 248 979 l 472 211 l 477 211 l 701 979 l 924 979 l 595 0 l 348 0 z "},"Ṽ":{"ha":942,"x_min":19,"x_max":924,"o":"m 566 1045 q 525 1052 543 1045 q 491 1069 506 1059 q 463 1091 475 1079 q 438 1114 450 1103 q 415 1131 427 1124 q 391 1137 404 1137 q 357 1115 368 1137 q 345 1057 345 1093 l 237 1057 q 249 1134 237 1100 q 279 1192 260 1168 q 325 1228 298 1216 q 383 1240 352 1240 q 445 1226 419 1240 q 490 1195 470 1212 q 526 1163 509 1177 q 560 1149 542 1149 q 593 1171 582 1149 q 604 1232 604 1192 l 711 1232 q 700 1154 711 1188 q 670 1095 689 1119 q 624 1058 650 1071 q 566 1045 597 1045 m 348 0 l 19 979 l 248 979 l 472 211 l 477 211 l 701 979 l 924 979 l 595 0 l 348 0 z "},"Ṿ":{"ha":942,"x_min":19,"x_max":924,"o":"m 471 -311 q 431 -303 450 -311 q 399 -281 413 -295 q 378 -249 386 -267 q 370 -210 370 -231 q 378 -170 370 -189 q 399 -138 386 -152 q 431 -117 413 -125 q 471 -109 450 -109 q 511 -117 492 -109 q 543 -138 530 -125 q 565 -170 557 -152 q 572 -210 572 -189 q 565 -249 572 -231 q 543 -281 557 -267 q 511 -303 530 -295 q 471 -311 492 -311 m 348 0 l 19 979 l 248 979 l 472 211 l 477 211 l 701 979 l 924 979 l 595 0 l 348 0 z "},"W":{"ha":1341,"x_min":29,"x_max":1312,"o":"m 481 0 l 288 0 l 29 979 l 241 979 l 395 270 l 401 270 l 584 979 l 757 979 l 940 270 l 945 270 l 1100 979 l 1312 979 l 1053 0 l 859 0 l 673 669 l 667 669 l 481 0 z "},"Ẁ":{"ha":1341,"x_min":29,"x_max":1312,"o":"m 408 1267 l 593 1267 l 750 1057 l 596 1057 l 408 1267 m 481 0 l 288 0 l 29 979 l 241 979 l 395 270 l 401 270 l 584 979 l 757 979 l 940 270 l 945 270 l 1100 979 l 1312 979 l 1053 0 l 859 0 l 673 669 l 667 669 l 481 0 z "},"Ẃ":{"ha":1341,"x_min":29,"x_max":1312,"o":"m 590 1053 l 747 1263 l 932 1263 l 745 1053 l 590 1053 m 481 0 l 288 0 l 29 979 l 241 979 l 395 270 l 401 270 l 584 979 l 757 979 l 940 270 l 945 270 l 1100 979 l 1312 979 l 1053 0 l 859 0 l 673 669 l 667 669 l 481 0 z "},"Ẇ":{"ha":1341,"x_min":29,"x_max":1312,"o":"m 671 1059 q 631 1066 649 1059 q 599 1088 612 1074 q 577 1120 585 1102 q 570 1160 570 1139 q 577 1199 570 1181 q 599 1231 585 1217 q 631 1252 612 1244 q 671 1260 649 1260 q 710 1252 692 1260 q 743 1231 729 1244 q 764 1199 756 1217 q 772 1160 772 1181 q 764 1120 772 1139 q 743 1088 756 1102 q 710 1066 729 1074 q 671 1059 692 1059 m 481 0 l 288 0 l 29 979 l 241 979 l 395 270 l 401 270 l 584 979 l 757 979 l 940 270 l 945 270 l 1100 979 l 1312 979 l 1053 0 l 859 0 l 673 669 l 667 669 l 481 0 z "},"Ẉ":{"ha":1341,"x_min":29,"x_max":1312,"o":"m 671 -311 q 631 -303 649 -311 q 599 -281 612 -295 q 577 -249 585 -267 q 570 -210 570 -231 q 577 -170 570 -189 q 599 -138 585 -152 q 631 -117 612 -125 q 671 -109 649 -109 q 710 -117 692 -109 q 743 -138 729 -125 q 764 -170 756 -152 q 772 -210 772 -189 q 764 -249 772 -231 q 743 -281 756 -267 q 710 -303 729 -295 q 671 -311 692 -311 m 481 0 l 288 0 l 29 979 l 241 979 l 395 270 l 401 270 l 584 979 l 757 979 l 940 270 l 945 270 l 1100 979 l 1312 979 l 1053 0 l 859 0 l 673 669 l 667 669 l 481 0 z "},"Ẅ":{"ha":1341,"x_min":29,"x_max":1312,"o":"m 529 1059 q 493 1066 509 1059 q 464 1085 476 1073 q 445 1113 452 1097 q 437 1147 437 1129 q 445 1182 437 1166 q 464 1210 452 1198 q 493 1229 476 1222 q 529 1236 509 1236 q 565 1229 549 1236 q 594 1210 582 1222 q 613 1182 606 1198 q 621 1147 621 1166 q 613 1113 621 1129 q 594 1085 606 1097 q 565 1066 582 1073 q 529 1059 549 1059 m 813 1059 q 777 1066 793 1059 q 748 1085 760 1073 q 729 1113 736 1097 q 722 1147 722 1129 q 729 1182 722 1166 q 748 1210 736 1198 q 777 1229 760 1222 q 813 1236 793 1236 q 849 1229 833 1236 q 878 1210 866 1222 q 898 1182 890 1198 q 905 1147 905 1166 q 898 1113 905 1129 q 878 1085 890 1097 q 849 1066 866 1073 q 813 1059 833 1059 m 481 0 l 288 0 l 29 979 l 241 979 l 395 270 l 401 270 l 584 979 l 757 979 l 940 270 l 945 270 l 1100 979 l 1312 979 l 1053 0 l 859 0 l 673 669 l 667 669 l 481 0 z "},"Ŵ":{"ha":1341,"x_min":29,"x_max":1312,"o":"m 748 1262 l 934 1046 l 783 1046 l 673 1180 l 669 1180 l 558 1046 l 408 1046 l 593 1262 l 748 1262 m 481 0 l 288 0 l 29 979 l 241 979 l 395 270 l 401 270 l 584 979 l 757 979 l 940 270 l 945 270 l 1100 979 l 1312 979 l 1053 0 l 859 0 l 673 669 l 667 669 l 481 0 z "},"X":{"ha":952,"x_min":29,"x_max":923,"o":"m 340 490 l 340 496 l 31 979 l 272 979 l 479 626 l 485 626 l 694 979 l 923 979 l 603 492 l 603 487 l 919 0 l 686 0 l 471 342 l 466 342 l 250 0 l 29 0 l 340 490 z "},"Ẋ":{"ha":952,"x_min":29,"x_max":923,"o":"m 340 490 l 340 496 l 31 979 l 272 979 l 479 626 l 485 626 l 694 979 l 923 979 l 603 492 l 603 487 l 919 0 l 686 0 l 471 342 l 466 342 l 250 0 l 29 0 l 340 490 m 476 1059 q 436 1066 454 1059 q 404 1088 418 1074 q 383 1120 391 1102 q 375 1160 375 1139 q 383 1199 375 1181 q 404 1231 391 1217 q 436 1252 418 1244 q 476 1260 454 1260 q 516 1252 497 1260 q 548 1231 534 1244 q 569 1199 562 1217 q 577 1160 577 1181 q 569 1120 577 1139 q 548 1088 562 1102 q 516 1066 534 1074 q 476 1059 497 1059 z "},"Ẍ":{"ha":952,"x_min":29,"x_max":923,"o":"m 340 490 l 340 496 l 31 979 l 272 979 l 479 626 l 485 626 l 694 979 l 923 979 l 603 492 l 603 487 l 919 0 l 686 0 l 471 342 l 466 342 l 250 0 l 29 0 l 340 490 m 334 1059 q 298 1066 315 1059 q 269 1085 281 1073 q 250 1113 257 1097 q 243 1147 243 1129 q 250 1182 243 1166 q 269 1210 257 1198 q 298 1229 281 1222 q 334 1236 315 1236 q 371 1229 354 1236 q 399 1210 387 1222 q 419 1182 412 1198 q 426 1147 426 1166 q 419 1113 426 1129 q 399 1085 412 1097 q 371 1066 387 1073 q 334 1059 354 1059 m 618 1059 q 582 1066 599 1059 q 553 1085 566 1073 q 534 1113 541 1097 q 527 1147 527 1129 q 534 1182 527 1166 q 553 1210 541 1198 q 582 1229 566 1222 q 618 1236 599 1236 q 655 1229 638 1236 q 684 1210 671 1222 q 703 1182 696 1198 q 710 1147 710 1166 q 703 1113 710 1129 q 684 1085 696 1097 q 655 1066 671 1073 q 618 1059 638 1059 z "},"Y":{"ha":924,"x_min":19,"x_max":905,"o":"m 359 0 l 359 366 l 19 979 l 242 979 l 461 561 l 466 561 l 686 979 l 905 979 l 564 366 l 564 0 l 359 0 z "},"Ỳ":{"ha":924,"x_min":19,"x_max":905,"o":"m 359 0 l 359 366 l 19 979 l 242 979 l 461 561 l 466 561 l 686 979 l 905 979 l 564 366 l 564 0 l 359 0 m 199 1267 l 384 1267 l 541 1057 l 387 1057 l 199 1267 z "},"Ý":{"ha":924,"x_min":19,"x_max":905,"o":"m 359 0 l 359 366 l 19 979 l 242 979 l 461 561 l 466 561 l 686 979 l 905 979 l 564 366 l 564 0 l 359 0 m 381 1053 l 538 1263 l 724 1263 l 536 1053 l 381 1053 z "},"Ẏ":{"ha":924,"x_min":19,"x_max":905,"o":"m 359 0 l 359 366 l 19 979 l 242 979 l 461 561 l 466 561 l 686 979 l 905 979 l 564 366 l 564 0 l 359 0 m 462 1059 q 422 1066 440 1059 q 390 1088 404 1074 q 369 1120 376 1102 q 361 1160 361 1139 q 369 1199 361 1181 q 390 1231 376 1217 q 422 1252 404 1244 q 462 1260 440 1260 q 502 1252 483 1260 q 534 1231 520 1244 q 555 1199 547 1217 q 563 1160 563 1181 q 555 1120 563 1139 q 534 1088 547 1102 q 502 1066 520 1074 q 462 1059 483 1059 z "},"Ỵ":{"ha":924,"x_min":19,"x_max":905,"o":"m 359 0 l 359 366 l 19 979 l 242 979 l 461 561 l 466 561 l 686 979 l 905 979 l 564 366 l 564 0 l 359 0 m 462 -311 q 422 -303 440 -311 q 390 -281 404 -295 q 369 -249 376 -267 q 361 -210 361 -231 q 369 -170 361 -189 q 390 -138 376 -152 q 422 -117 404 -125 q 462 -109 440 -109 q 502 -117 483 -109 q 534 -138 520 -125 q 555 -170 547 -152 q 563 -210 563 -189 q 555 -249 563 -231 q 534 -281 547 -267 q 502 -303 520 -295 q 462 -311 483 -311 z "},"Ÿ":{"ha":924,"x_min":19,"x_max":905,"o":"m 359 0 l 359 366 l 19 979 l 242 979 l 461 561 l 466 561 l 686 979 l 905 979 l 564 366 l 564 0 l 359 0 m 320 1059 q 284 1066 300 1059 q 255 1085 267 1073 q 236 1113 243 1097 q 229 1147 229 1129 q 236 1182 229 1166 q 255 1210 243 1198 q 284 1229 267 1222 q 320 1236 300 1236 q 356 1229 340 1236 q 385 1210 373 1222 q 405 1182 397 1198 q 412 1147 412 1166 q 405 1113 412 1129 q 385 1085 397 1097 q 356 1066 373 1073 q 320 1059 340 1059 m 604 1059 q 568 1066 585 1059 q 539 1085 551 1073 q 520 1113 527 1097 q 513 1147 513 1129 q 520 1182 513 1166 q 539 1210 527 1198 q 568 1229 551 1222 q 604 1236 585 1236 q 641 1229 624 1236 q 669 1210 657 1222 q 689 1182 682 1198 q 696 1147 696 1166 q 689 1113 696 1129 q 669 1085 682 1097 q 641 1066 657 1073 q 604 1059 624 1059 z "},"Ỹ":{"ha":924,"x_min":19,"x_max":905,"o":"m 359 0 l 359 366 l 19 979 l 242 979 l 461 561 l 466 561 l 686 979 l 905 979 l 564 366 l 564 0 l 359 0 m 557 1045 q 515 1052 534 1045 q 481 1069 496 1059 q 453 1091 466 1079 q 429 1114 441 1103 q 406 1131 417 1124 q 382 1137 394 1137 q 347 1115 359 1137 q 335 1057 336 1093 l 228 1057 q 239 1134 228 1100 q 270 1192 250 1168 q 316 1228 289 1216 q 374 1240 342 1240 q 435 1226 410 1240 q 480 1195 460 1212 q 516 1163 500 1177 q 551 1149 532 1149 q 583 1171 572 1149 q 595 1232 594 1192 l 702 1232 q 691 1154 702 1188 q 660 1095 680 1119 q 614 1058 641 1071 q 557 1045 587 1045 z "},"Ŷ":{"ha":924,"x_min":19,"x_max":905,"o":"m 359 0 l 359 366 l 19 979 l 242 979 l 461 561 l 466 561 l 686 979 l 905 979 l 564 366 l 564 0 l 359 0 m 539 1262 l 725 1046 l 574 1046 l 464 1180 l 460 1180 l 349 1046 l 199 1046 l 385 1262 l 539 1262 z "},"Ȳ":{"ha":924,"x_min":19,"x_max":905,"o":"m 359 0 l 359 366 l 19 979 l 242 979 l 461 561 l 466 561 l 686 979 l 905 979 l 564 366 l 564 0 l 359 0 m 696 1101 l 227 1101 l 227 1198 l 696 1198 l 696 1101 z "},"Ỷ":{"ha":924,"x_min":19,"x_max":905,"o":"m 359 0 l 359 366 l 19 979 l 242 979 l 461 561 l 466 561 l 686 979 l 905 979 l 564 366 l 564 0 l 359 0 m 336 1303 q 380 1316 354 1312 q 433 1320 406 1320 q 500 1311 470 1320 q 550 1285 530 1302 q 583 1243 571 1268 q 594 1188 594 1219 q 585 1140 594 1164 q 558 1097 575 1117 q 518 1061 541 1077 q 467 1034 494 1044 l 408 1105 q 456 1135 437 1115 q 474 1177 474 1155 q 456 1213 474 1199 q 408 1227 438 1227 q 371 1223 391 1227 q 336 1214 351 1220 l 336 1303 z "},"Z":{"ha":876,"x_min":60,"x_max":816,"o":"m 60 134 l 557 804 l 557 810 l 72 810 l 72 979 l 802 979 l 802 846 l 307 174 l 307 170 l 816 170 l 816 0 l 60 0 l 60 134 z "},"Ź":{"ha":876,"x_min":60,"x_max":816,"o":"m 357 1053 l 515 1263 l 700 1263 l 512 1053 l 357 1053 m 60 134 l 557 804 l 557 810 l 72 810 l 72 979 l 802 979 l 802 846 l 307 174 l 307 170 l 816 170 l 816 0 l 60 0 l 60 134 z "},"Ž":{"ha":876,"x_min":60,"x_max":816,"o":"m 60 134 l 557 804 l 557 810 l 72 810 l 72 979 l 802 979 l 802 846 l 307 174 l 307 170 l 816 170 l 816 0 l 60 0 l 60 134 m 175 1262 l 326 1262 l 436 1128 l 440 1128 l 551 1262 l 701 1262 l 515 1046 l 361 1046 l 175 1262 z "},"Ẑ":{"ha":876,"x_min":60,"x_max":816,"o":"m 60 134 l 557 804 l 557 810 l 72 810 l 72 979 l 802 979 l 802 846 l 307 174 l 307 170 l 816 170 l 816 0 l 60 0 l 60 134 m 515 1262 l 701 1046 l 551 1046 l 440 1180 l 436 1180 l 326 1046 l 175 1046 l 361 1262 l 515 1262 z "},"Ẕ":{"ha":876,"x_min":60,"x_max":816,"o":"m 60 134 l 557 804 l 557 810 l 72 810 l 72 979 l 802 979 l 802 846 l 307 174 l 307 170 l 816 170 l 816 0 l 60 0 l 60 134 m 673 -253 l 203 -253 l 203 -156 l 673 -156 l 673 -253 z "},"Ẓ":{"ha":876,"x_min":60,"x_max":816,"o":"m 438 -311 q 398 -303 416 -311 q 366 -281 380 -295 q 345 -249 353 -267 q 337 -210 337 -231 q 345 -170 337 -189 q 366 -138 353 -152 q 398 -117 380 -125 q 438 -109 416 -109 q 478 -117 459 -109 q 510 -138 496 -125 q 531 -170 524 -152 q 539 -210 539 -189 q 531 -249 539 -231 q 510 -281 524 -267 q 478 -303 496 -295 q 438 -311 459 -311 m 60 134 l 557 804 l 557 810 l 72 810 l 72 979 l 802 979 l 802 846 l 307 174 l 307 170 l 816 170 l 816 0 l 60 0 l 60 134 z "},"Ż":{"ha":876,"x_min":60,"x_max":816,"o":"m 438 1059 q 398 1066 416 1059 q 366 1088 380 1074 q 345 1120 353 1102 q 337 1160 337 1139 q 345 1199 337 1181 q 366 1231 353 1217 q 398 1252 380 1244 q 438 1260 416 1260 q 478 1252 459 1260 q 510 1231 496 1244 q 531 1199 524 1217 q 539 1160 539 1181 q 531 1120 539 1139 q 510 1088 524 1102 q 478 1066 496 1074 q 438 1059 459 1059 m 60 134 l 557 804 l 557 810 l 72 810 l 72 979 l 802 979 l 802 846 l 307 174 l 307 170 l 816 170 l 816 0 l 60 0 l 60 134 z "},"Æ":{"ha":1383,"x_min":19,"x_max":1296,"o":"m 390 406 l 655 406 l 655 821 l 563 821 l 390 406 m 655 253 l 330 253 l 223 0 l 19 0 l 435 979 l 1296 979 l 1296 810 l 842 810 l 842 570 l 1271 570 l 1271 413 l 842 413 l 842 169 l 1296 169 l 1296 0 l 655 0 l 655 253 z "},"Ǣ":{"ha":1383,"x_min":19,"x_max":1296,"o":"m 390 406 l 655 406 l 655 821 l 563 821 l 390 406 m 655 253 l 330 253 l 223 0 l 19 0 l 435 979 l 1296 979 l 1296 810 l 842 810 l 842 570 l 1271 570 l 1271 413 l 842 413 l 842 169 l 1296 169 l 1296 0 l 655 0 l 655 253 m 1217 1101 l 747 1101 l 747 1198 l 1217 1198 l 1217 1101 z "},"Ǽ":{"ha":1383,"x_min":19,"x_max":1296,"o":"m 901 1053 l 1059 1263 l 1244 1263 l 1056 1053 l 901 1053 m 390 406 l 655 406 l 655 821 l 563 821 l 390 406 m 655 253 l 330 253 l 223 0 l 19 0 l 435 979 l 1296 979 l 1296 810 l 842 810 l 842 570 l 1271 570 l 1271 413 l 842 413 l 842 169 l 1296 169 l 1296 0 l 655 0 l 655 253 z "},"Œ":{"ha":1503,"x_min":54,"x_max":1437,"o":"m 528 827 q 419 803 468 827 q 335 735 370 779 q 282 629 300 691 q 263 489 263 566 q 282 350 263 412 q 335 244 300 288 q 419 176 370 200 q 528 153 468 153 q 638 176 589 153 q 722 244 687 200 q 775 350 756 288 q 793 489 793 412 q 774 629 793 566 q 721 735 755 691 q 637 803 686 779 q 528 827 589 827 m 816 160 q 765 86 798 119 q 691 28 733 52 q 600 -9 650 4 q 496 -22 549 -22 q 317 15 398 -22 q 177 119 235 52 q 86 280 119 186 q 54 489 54 374 q 87 699 54 604 q 178 860 119 793 q 318 964 236 927 q 498 1000 399 1000 q 601 988 552 1000 q 690 952 649 976 q 762 894 730 928 q 816 817 794 860 l 816 979 l 1437 979 l 1437 810 l 1000 810 l 1000 574 l 1411 574 l 1411 416 l 1000 416 l 1000 170 l 1437 170 l 1437 0 l 816 0 l 816 160 z "},"Ð":{"ha":1003,"x_min":22,"x_max":925,"o":"m 434 170 q 644 251 572 170 q 716 492 716 333 q 697 628 716 569 q 643 728 679 688 q 554 789 607 768 q 434 810 502 810 l 286 810 l 286 572 l 466 572 l 466 422 l 286 422 l 286 170 l 434 170 m 458 979 q 655 946 568 979 q 802 852 742 914 q 893 700 862 790 q 925 493 925 610 q 893 285 925 376 q 802 130 862 193 q 655 33 742 66 q 458 0 568 0 l 81 0 l 81 422 l 22 422 l 22 572 l 81 572 l 81 979 l 458 979 z "},"Þ":{"ha":902,"x_min":102,"x_max":839,"o":"m 309 979 l 309 819 l 517 819 q 645 798 586 819 q 747 737 704 777 q 814 640 790 697 q 839 509 839 582 q 814 379 839 437 q 744 282 789 322 q 638 221 699 242 q 507 199 578 199 l 307 199 l 307 0 l 102 0 l 102 979 l 309 979 m 307 360 l 460 360 q 585 397 538 360 q 631 509 631 435 q 585 620 631 583 q 461 656 538 656 l 307 656 l 307 360 z "},"Α":{"ha":958,"x_min":19,"x_max":940,"o":"m 648 237 l 304 237 l 229 0 l 19 0 l 359 979 l 600 979 l 940 0 l 722 0 l 648 237 m 348 391 l 604 391 l 478 791 l 473 791 l 348 391 z "},"Β":{"ha":903,"x_min":81,"x_max":859,"o":"m 81 0 l 81 979 l 513 979 q 638 962 583 979 q 732 913 693 945 q 791 836 770 881 q 812 734 812 791 q 798 659 812 694 q 759 594 784 623 q 701 547 734 566 q 629 522 667 528 l 629 517 q 721 494 678 513 q 794 443 763 475 q 842 370 825 412 q 859 280 859 329 q 836 164 859 216 q 768 76 812 112 q 662 20 724 39 q 521 0 599 0 l 81 0 m 286 572 l 439 572 q 566 606 522 572 q 611 703 611 640 q 572 794 611 762 q 460 826 532 826 l 286 826 l 286 572 m 469 153 q 604 189 557 153 q 650 296 650 226 q 603 401 650 366 q 464 437 555 437 l 286 437 l 286 153 l 469 153 z "},"Γ":{"ha":755,"x_min":89,"x_max":716,"o":"m 89 0 l 89 979 l 716 979 l 716 810 l 294 810 l 294 0 l 89 0 z "},"Δ":{"ha":945,"x_min":36,"x_max":910,"o":"m 36 0 l 36 117 l 353 979 l 593 979 l 910 117 l 910 0 l 36 0 m 251 169 l 680 169 l 680 174 l 469 798 l 465 798 l 251 174 l 251 169 z "},"Ε":{"ha":804,"x_min":81,"x_max":730,"o":"m 730 0 l 81 0 l 81 979 l 730 979 l 730 810 l 286 810 l 286 574 l 705 574 l 705 416 l 286 416 l 286 170 l 730 170 l 730 0 z "},"Ζ":{"ha":877,"x_min":60,"x_max":816,"o":"m 60 134 l 557 804 l 557 810 l 72 810 l 72 979 l 802 979 l 802 846 l 307 174 l 307 170 l 816 170 l 816 0 l 60 0 l 60 134 z "},"Η":{"ha":1028,"x_min":81,"x_max":932,"o":"m 727 0 l 727 412 l 286 412 l 286 0 l 81 0 l 81 979 l 286 979 l 286 581 l 727 581 l 727 979 l 932 979 l 932 0 l 727 0 z "},"Θ":{"ha":1076,"x_min":51,"x_max":1025,"o":"m 364 409 l 364 564 l 711 564 l 711 409 l 364 409 m 538 996 q 745 960 654 996 q 898 858 836 924 q 992 699 960 792 q 1025 490 1025 605 q 991 280 1025 374 q 896 120 958 186 q 743 19 833 54 q 538 -17 652 -17 q 333 19 424 -17 q 180 120 243 54 q 84 280 117 186 q 51 490 51 374 q 83 699 51 605 q 178 858 116 792 q 331 960 241 924 q 538 996 422 996 m 538 825 q 419 802 471 825 q 332 735 368 779 q 277 630 296 692 q 258 490 258 568 q 277 349 258 411 q 332 244 296 287 q 419 178 368 201 q 538 155 471 155 q 656 178 604 155 q 744 244 708 201 q 799 349 780 287 q 818 490 818 411 q 799 630 818 568 q 744 735 780 692 q 656 802 708 779 q 538 825 604 825 z "},"Ι":{"ha":382,"x_min":81,"x_max":286,"o":"m 81 0 l 81 979 l 286 979 l 286 0 l 81 0 z "},"Κ":{"ha":925,"x_min":81,"x_max":913,"o":"m 81 0 l 81 979 l 286 979 l 286 532 l 292 532 l 660 979 l 888 979 l 526 545 l 913 0 l 668 0 l 378 409 l 286 299 l 286 0 l 81 0 z "},"Λ":{"ha":938,"x_min":19,"x_max":919,"o":"m 468 788 l 463 788 l 229 0 l 19 0 l 349 979 l 589 979 l 919 0 l 702 0 l 468 788 z "},"Μ":{"ha":1214,"x_min":81,"x_max":1118,"o":"m 1118 0 l 935 0 l 935 661 l 930 661 l 664 9 l 535 9 l 269 661 l 264 661 l 264 0 l 81 0 l 81 979 l 319 979 l 597 285 l 602 285 l 880 979 l 1118 979 l 1118 0 z "},"Ν":{"ha":1007,"x_min":81,"x_max":911,"o":"m 81 0 l 81 979 l 252 979 l 709 341 l 715 341 l 715 979 l 911 979 l 911 0 l 741 0 l 283 641 l 277 641 l 277 0 l 81 0 z "},"Ξ":{"ha":870,"x_min":66,"x_max":804,"o":"m 804 979 l 804 806 l 66 806 l 66 979 l 804 979 m 125 413 l 125 574 l 745 574 l 745 413 l 125 413 m 804 173 l 804 0 l 66 0 l 66 173 l 804 173 z "},"Ο":{"ha":1045,"x_min":51,"x_max":995,"o":"m 523 996 q 719 960 631 996 q 868 859 806 925 q 962 700 929 793 q 995 489 995 606 q 962 279 995 372 q 868 119 929 185 q 719 18 806 54 q 523 -17 631 -17 q 327 18 414 -17 q 178 119 239 54 q 84 279 117 185 q 51 489 51 372 q 84 700 51 606 q 178 859 117 793 q 327 960 239 925 q 523 996 414 996 m 523 825 q 414 801 463 825 q 331 734 366 778 q 278 628 297 690 q 260 489 260 566 q 278 350 260 412 q 331 245 297 288 q 414 178 366 201 q 523 155 463 155 q 631 178 583 155 q 714 245 680 201 q 767 350 748 288 q 785 489 785 412 q 767 628 785 566 q 714 734 748 690 q 631 801 680 778 q 523 825 583 825 z "},"Π":{"ha":1015,"x_min":89,"x_max":926,"o":"m 721 0 l 721 810 l 294 810 l 294 0 l 89 0 l 89 979 l 926 979 l 926 0 l 721 0 z "},"Ρ":{"ha":876,"x_min":81,"x_max":829,"o":"m 490 979 q 627 955 565 979 q 734 887 690 930 q 804 781 779 843 q 829 644 829 719 q 803 507 829 568 q 731 401 778 445 q 621 333 685 357 q 479 309 557 309 l 286 309 l 286 0 l 81 0 l 81 979 l 490 979 m 286 469 l 435 469 q 572 513 524 469 q 621 643 621 558 q 572 772 621 727 q 435 817 524 817 l 286 817 l 286 469 z "},"Σ":{"ha":864,"x_min":61,"x_max":803,"o":"m 312 170 l 803 170 l 803 0 l 61 0 l 61 125 l 320 491 l 75 834 l 75 979 l 785 979 l 785 810 l 331 810 l 331 804 l 543 500 l 543 496 l 312 174 l 312 170 z "},"Τ":{"ha":853,"x_min":33,"x_max":810,"o":"m 319 0 l 319 810 l 33 810 l 33 979 l 810 979 l 810 810 l 524 810 l 524 0 l 319 0 z "},"Υ":{"ha":924,"x_min":19,"x_max":905,"o":"m 359 0 l 359 366 l 19 979 l 242 979 l 461 561 l 466 561 l 686 979 l 905 979 l 564 366 l 564 0 l 359 0 z "},"Φ":{"ha":1205,"x_min":39,"x_max":1166,"o":"m 966 484 q 947 601 966 549 q 895 690 929 652 q 810 749 860 727 q 696 776 760 771 l 696 193 q 810 219 760 197 q 895 279 860 241 q 947 368 929 316 q 966 484 966 420 m 239 484 q 258 368 239 420 q 311 279 276 316 q 395 219 345 241 q 509 193 445 197 l 509 776 q 395 749 445 771 q 311 690 345 727 q 258 601 276 652 q 239 484 239 549 m 509 -72 l 509 31 q 317 70 404 35 q 169 165 231 105 q 73 306 106 224 q 39 484 39 387 q 73 663 39 582 q 169 804 106 745 q 317 898 231 863 q 509 938 404 933 l 509 1041 l 696 1041 l 696 938 q 888 898 802 933 q 1037 804 975 863 q 1133 663 1099 745 q 1166 484 1166 582 q 1133 306 1166 387 q 1037 165 1099 224 q 888 70 975 105 q 696 31 802 35 l 696 -72 l 509 -72 z "},"Χ":{"ha":953,"x_min":29,"x_max":923,"o":"m 340 490 l 340 496 l 31 979 l 272 979 l 479 626 l 485 626 l 694 979 l 923 979 l 603 492 l 603 487 l 919 0 l 686 0 l 471 342 l 466 342 l 250 0 l 29 0 l 340 490 z "},"Ψ":{"ha":1130,"x_min":62,"x_max":1068,"o":"m 468 0 l 468 210 q 298 240 374 212 q 171 322 223 269 q 90 448 118 374 q 62 612 62 522 l 62 979 l 256 979 l 256 611 q 309 443 256 503 q 468 376 362 384 l 468 979 l 663 979 l 663 376 q 821 443 768 384 q 873 611 873 503 l 873 979 l 1068 979 l 1068 612 q 1040 448 1068 522 q 959 322 1012 374 q 832 240 907 269 q 663 210 757 211 l 663 0 l 468 0 z "},"Ω":{"ha":1066,"x_min":60,"x_max":1007,"o":"m 801 534 q 782 656 801 602 q 728 747 763 710 q 643 805 692 785 q 533 825 594 825 q 423 805 472 825 q 338 747 374 785 q 284 656 303 710 q 265 534 265 602 q 312 339 265 419 q 451 203 359 260 l 451 0 l 60 0 l 60 162 l 258 162 l 258 168 q 176 234 212 195 q 113 322 139 273 q 74 428 87 371 q 60 549 60 486 q 94 731 60 649 q 191 872 128 813 q 340 963 253 930 q 533 996 427 996 q 726 963 639 996 q 876 872 813 930 q 973 731 939 813 q 1007 549 1007 649 q 993 428 1007 486 q 953 322 979 371 q 890 234 927 273 q 809 168 854 195 l 809 162 l 1007 162 l 1007 0 l 616 0 l 616 203 q 754 339 707 260 q 801 534 801 419 z "},"Ά":{"ha":1048,"x_min":63,"x_max":1000,"o":"m 707 237 l 363 237 l 289 0 l 79 0 l 418 979 l 659 979 l 1000 0 l 782 0 l 707 237 m 408 391 l 663 391 l 538 791 l 533 791 l 408 391 m 63 758 l 115 979 l 322 979 l 214 758 l 63 758 z "},"Έ":{"ha":1094,"x_min":31,"x_max":1020,"o":"m 31 758 l 82 979 l 290 979 l 181 758 l 31 758 m 1020 0 l 372 0 l 372 979 l 1020 979 l 1020 810 l 576 810 l 576 574 l 995 574 l 995 416 l 576 416 l 576 170 l 1020 170 l 1020 0 z "},"Ή":{"ha":1318,"x_min":31,"x_max":1222,"o":"m 31 758 l 82 979 l 290 979 l 181 758 l 31 758 m 1017 0 l 1017 412 l 576 412 l 576 0 l 372 0 l 372 979 l 576 979 l 576 581 l 1017 581 l 1017 979 l 1222 979 l 1222 0 l 1017 0 z "},"Ί":{"ha":673,"x_min":31,"x_max":576,"o":"m 372 0 l 372 979 l 576 979 l 576 0 l 372 0 m 31 758 l 82 979 l 290 979 l 181 758 l 31 758 z "},"Ϊ":{"ha":320,"x_min":-81,"x_max":387,"o":"m 50 0 l 50 979 l 255 979 l 255 0 l 50 0 m 11 1059 q -25 1066 -9 1059 q -54 1085 -42 1073 q -74 1113 -66 1097 q -81 1147 -81 1129 q -74 1182 -81 1166 q -54 1210 -66 1198 q -25 1229 -42 1222 q 11 1236 -9 1236 q 47 1229 31 1236 q 76 1210 64 1222 q 95 1182 88 1198 q 102 1147 102 1166 q 95 1113 102 1129 q 76 1085 88 1097 q 47 1066 64 1073 q 11 1059 31 1059 m 295 1059 q 259 1066 275 1059 q 230 1085 242 1073 q 211 1113 218 1097 q 203 1147 203 1129 q 211 1182 203 1166 q 230 1210 218 1198 q 259 1229 242 1222 q 295 1236 275 1236 q 331 1229 315 1236 q 360 1210 348 1222 q 379 1182 372 1198 q 387 1147 387 1166 q 379 1113 387 1129 q 360 1085 372 1097 q 331 1066 348 1073 q 295 1059 315 1059 z "},"Ό":{"ha":1223,"x_min":22,"x_max":1173,"o":"m 701 996 q 897 960 810 996 q 1046 859 985 925 q 1140 700 1107 793 q 1173 489 1173 606 q 1140 279 1173 372 q 1046 119 1107 185 q 897 18 985 54 q 701 -17 810 -17 q 505 18 592 -17 q 356 119 418 54 q 262 279 295 185 q 229 489 229 372 q 262 700 229 606 q 356 859 295 793 q 505 960 418 925 q 701 996 592 996 m 701 825 q 592 801 641 825 q 510 734 544 778 q 457 628 475 690 q 438 489 438 566 q 457 350 438 412 q 510 245 475 288 q 592 178 544 201 q 701 155 641 155 q 810 178 761 155 q 892 245 859 201 q 945 350 926 288 q 964 489 964 412 q 945 628 964 566 q 892 734 926 690 q 810 801 859 778 q 701 825 761 825 m 22 758 l 74 979 l 281 979 l 173 758 l 22 758 z "},"Ύ":{"ha":1227,"x_min":24,"x_max":1209,"o":"m 24 758 l 75 979 l 283 979 l 174 758 l 24 758 m 663 0 l 663 366 l 323 979 l 546 979 l 765 561 l 770 561 l 989 979 l 1209 979 l 868 366 l 868 0 l 663 0 z "},"Ϋ":{"ha":924,"x_min":19,"x_max":905,"o":"m 359 0 l 359 366 l 19 979 l 242 979 l 461 561 l 466 561 l 686 979 l 905 979 l 564 366 l 564 0 l 359 0 m 320 1059 q 284 1066 300 1059 q 255 1085 267 1073 q 236 1113 243 1097 q 229 1147 229 1129 q 236 1182 229 1166 q 255 1210 243 1198 q 284 1229 267 1222 q 320 1236 300 1236 q 356 1229 340 1236 q 385 1210 373 1222 q 405 1182 397 1198 q 412 1147 412 1166 q 405 1113 412 1129 q 385 1085 397 1097 q 356 1066 373 1073 q 320 1059 340 1059 m 604 1059 q 568 1066 585 1059 q 539 1085 551 1073 q 520 1113 527 1097 q 513 1147 513 1129 q 520 1182 513 1166 q 539 1210 527 1198 q 568 1229 551 1222 q 604 1236 585 1236 q 641 1229 624 1236 q 669 1210 657 1222 q 689 1182 682 1198 q 696 1147 696 1166 q 689 1113 696 1129 q 669 1085 682 1097 q 641 1066 657 1073 q 604 1059 624 1059 z "},"Ώ":{"ha":1244,"x_min":22,"x_max":1185,"o":"m 979 534 q 960 656 979 602 q 905 747 941 710 q 821 805 870 785 q 711 825 772 825 q 601 805 650 825 q 516 747 551 785 q 462 656 481 710 q 443 534 443 602 q 490 339 443 419 q 629 203 537 260 l 629 0 l 237 0 l 237 162 l 435 162 l 435 168 q 353 234 390 195 q 291 322 317 273 q 251 428 265 371 q 237 549 237 486 q 272 731 237 649 q 368 872 306 813 q 518 963 431 930 q 711 996 605 996 q 904 963 817 996 q 1054 872 991 930 q 1151 731 1116 813 q 1185 549 1185 649 q 1171 428 1185 486 q 1131 322 1157 371 q 1068 234 1105 273 q 987 168 1031 195 l 987 162 l 1185 162 l 1185 0 l 793 0 l 793 203 q 932 339 885 260 q 979 534 979 419 m 22 758 l 74 979 l 281 979 l 173 758 l 22 758 z "},"А":{"ha":972,"x_min":26,"x_max":947,"o":"m 654 237 l 311 237 l 236 0 l 26 0 l 366 979 l 606 979 l 947 0 l 729 0 l 654 237 m 355 391 l 610 391 l 485 791 l 480 791 l 355 391 z "},"Б":{"ha":894,"x_min":96,"x_max":836,"o":"m 836 309 q 811 182 836 239 q 742 85 787 125 q 635 22 697 44 q 497 0 572 0 l 96 0 l 96 979 l 746 979 l 746 810 l 300 810 l 300 611 l 490 611 q 630 589 567 611 q 740 528 694 568 q 811 432 785 488 q 836 309 836 376 m 446 163 q 579 200 532 163 q 627 309 627 237 q 579 418 627 380 q 446 455 532 455 l 300 455 l 300 163 l 446 163 z "},"В":{"ha":916,"x_min":88,"x_max":866,"o":"m 88 0 l 88 979 l 520 979 q 645 962 589 979 q 739 913 700 945 q 798 836 777 881 q 819 734 819 791 q 805 659 819 694 q 766 594 791 623 q 708 547 741 566 q 635 522 674 528 l 635 517 q 727 494 685 513 q 801 443 770 475 q 849 370 831 412 q 866 280 866 329 q 843 164 866 216 q 775 76 819 112 q 668 20 731 39 q 528 0 606 0 l 88 0 m 293 572 l 446 572 q 573 606 528 572 q 618 703 618 640 q 578 794 618 762 q 467 826 539 826 l 293 826 l 293 572 m 475 153 q 611 189 564 153 q 657 296 657 226 q 609 401 657 366 q 471 437 562 437 l 293 437 l 293 153 l 475 153 z "},"Г":{"ha":769,"x_min":96,"x_max":726,"o":"m 96 0 l 96 979 l 726 979 l 726 809 l 301 809 l 301 0 l 96 0 z "},"Д":{"ha":1059,"x_min":17,"x_max":1031,"o":"m 370 410 q 351 271 365 328 q 305 175 338 213 l 305 170 l 705 170 l 705 810 l 396 810 l 370 410 m 203 -193 l 17 -193 l 17 170 l 85 170 q 128 211 111 187 q 156 265 145 234 q 173 336 167 296 q 182 426 178 376 l 216 979 l 909 979 l 909 170 l 1031 170 l 1031 -193 l 846 -193 l 846 0 l 203 0 l 203 -193 z "},"Е":{"ha":817,"x_min":88,"x_max":736,"o":"m 736 0 l 88 0 l 88 979 l 736 979 l 736 810 l 293 810 l 293 574 l 711 574 l 711 416 l 293 416 l 293 170 l 736 170 l 736 0 z "},"Ё":{"ha":817,"x_min":88,"x_max":736,"o":"m 271 1059 q 234 1066 251 1059 q 205 1085 218 1073 q 186 1113 193 1097 q 179 1147 179 1129 q 186 1182 179 1166 q 205 1210 193 1198 q 234 1229 218 1222 q 271 1236 251 1236 q 307 1229 290 1236 q 336 1210 323 1222 q 355 1182 348 1198 q 362 1147 362 1166 q 355 1113 362 1129 q 336 1085 348 1097 q 307 1066 323 1073 q 271 1059 290 1059 m 555 1059 q 518 1066 535 1059 q 490 1085 502 1073 q 470 1113 477 1097 q 463 1147 463 1129 q 470 1182 463 1166 q 490 1210 477 1198 q 518 1229 502 1222 q 555 1236 535 1236 q 591 1229 574 1236 q 620 1210 608 1222 q 639 1182 632 1198 q 646 1147 646 1166 q 639 1113 646 1129 q 620 1085 632 1097 q 591 1066 608 1073 q 555 1059 574 1059 m 736 0 l 88 0 l 88 979 l 736 979 l 736 810 l 293 810 l 293 574 l 711 574 l 711 416 l 293 416 l 293 170 l 736 170 l 736 0 z "},"Ж":{"ha":1400,"x_min":12,"x_max":1388,"o":"m 1388 0 l 1137 0 l 804 430 l 798 430 l 798 0 l 599 0 l 599 430 l 593 430 l 258 0 l 12 0 l 412 511 l 35 979 l 267 979 l 593 564 l 599 564 l 599 979 l 798 979 l 798 564 l 804 564 l 1131 979 l 1358 979 l 984 515 l 1388 0 z "},"З":{"ha":872,"x_min":50,"x_max":823,"o":"m 302 580 l 431 580 q 498 590 468 580 q 550 617 528 600 q 584 660 572 635 q 596 715 596 684 q 553 810 596 775 q 434 844 510 844 q 365 834 396 844 q 311 806 334 825 q 276 762 289 788 q 260 704 262 736 l 71 704 q 101 829 74 773 q 175 923 127 884 q 290 983 223 962 q 439 1004 357 1004 q 583 984 518 1004 q 694 930 648 965 q 766 846 741 895 q 791 739 791 798 q 778 660 791 697 q 741 594 765 623 q 682 544 716 564 q 607 515 648 524 l 607 509 q 696 484 656 504 q 764 433 736 465 q 807 361 792 402 q 823 271 823 319 q 794 152 823 206 q 713 58 765 98 q 590 -3 661 19 q 435 -25 519 -25 q 281 -3 351 -25 q 161 58 212 18 q 82 154 111 98 q 50 278 53 210 l 245 278 q 262 221 248 246 q 302 178 277 195 q 361 150 327 160 q 437 140 395 140 q 509 151 476 140 q 564 180 541 161 q 600 226 587 199 q 612 284 612 252 q 565 385 612 349 q 433 420 518 420 l 302 420 l 302 580 z "},"И":{"ha":1045,"x_min":96,"x_max":949,"o":"m 745 662 l 737 662 l 293 0 l 96 0 l 96 979 l 300 979 l 300 316 l 308 316 l 752 979 l 949 979 l 949 0 l 745 0 l 745 662 z "},"Й":{"ha":1045,"x_min":96,"x_max":949,"o":"m 403 1246 q 412 1200 404 1221 q 436 1164 420 1179 q 472 1141 451 1149 q 519 1133 493 1133 q 565 1141 544 1133 q 602 1164 587 1149 q 626 1200 617 1179 q 635 1246 634 1221 l 754 1246 q 737 1160 754 1198 q 689 1094 720 1121 q 614 1051 658 1066 q 519 1036 571 1036 q 423 1051 467 1036 q 349 1094 380 1066 q 301 1160 318 1121 q 283 1246 283 1198 l 403 1246 m 745 662 l 737 662 l 293 0 l 96 0 l 96 979 l 300 979 l 300 316 l 308 316 l 752 979 l 949 979 l 949 0 l 745 0 l 745 662 z "},"К":{"ha":945,"x_min":96,"x_max":930,"o":"m 930 0 l 675 0 l 306 430 l 300 430 l 300 0 l 96 0 l 96 979 l 300 979 l 300 564 l 306 564 l 667 979 l 899 979 l 493 515 l 930 0 z "},"Л":{"ha":1004,"x_min":31,"x_max":908,"o":"m 703 0 l 703 810 l 418 810 l 394 387 q 370 218 389 292 q 317 94 352 144 q 230 17 283 43 q 104 -9 178 -9 q 60 -6 79 -9 q 31 1 41 -3 l 31 180 q 50 176 38 178 q 76 174 62 174 q 133 189 110 174 q 172 232 157 203 q 195 303 187 260 q 205 400 203 345 l 235 979 l 908 979 l 908 0 l 703 0 z "},"М":{"ha":1227,"x_min":88,"x_max":1124,"o":"m 1124 0 l 942 0 l 942 661 l 937 661 l 671 9 l 542 9 l 276 661 l 271 661 l 271 0 l 88 0 l 88 979 l 326 979 l 604 285 l 609 285 l 887 979 l 1124 979 l 1124 0 z "},"Н":{"ha":1042,"x_min":88,"x_max":939,"o":"m 734 0 l 734 412 l 293 412 l 293 0 l 88 0 l 88 979 l 293 979 l 293 581 l 734 581 l 734 979 l 939 979 l 939 0 l 734 0 z "},"О":{"ha":1062,"x_min":58,"x_max":1002,"o":"m 530 996 q 726 960 638 996 q 874 859 813 925 q 969 700 936 793 q 1002 489 1002 606 q 969 279 1002 372 q 874 119 936 185 q 726 18 813 54 q 530 -17 638 -17 q 333 18 420 -17 q 185 119 246 54 q 91 279 123 185 q 58 489 58 372 q 91 700 58 606 q 185 859 123 793 q 333 960 246 925 q 530 996 420 996 m 530 825 q 421 801 469 825 q 338 734 372 778 q 285 628 304 690 q 267 489 267 566 q 285 350 267 412 q 338 245 304 288 q 421 178 372 201 q 530 155 469 155 q 638 178 589 155 q 721 245 687 201 q 773 350 755 288 q 792 489 792 412 q 773 628 792 566 q 721 734 755 690 q 638 801 687 778 q 530 825 589 825 z "},"П":{"ha":1031,"x_min":96,"x_max":936,"o":"m 732 0 l 732 809 l 301 809 l 301 0 l 96 0 l 96 979 l 936 979 l 936 0 l 732 0 z "},"Р":{"ha":888,"x_min":88,"x_max":836,"o":"m 496 979 q 634 955 572 979 q 741 887 696 930 q 811 781 786 843 q 836 644 836 719 q 810 507 836 568 q 738 401 785 445 q 628 333 692 357 q 486 309 564 309 l 293 309 l 293 0 l 88 0 l 88 979 l 496 979 m 293 469 l 441 469 q 579 513 530 469 q 627 643 627 558 q 579 772 627 727 q 442 817 531 817 l 293 817 l 293 469 z "},"С":{"ha":1003,"x_min":59,"x_max":951,"o":"m 522 -22 q 330 14 415 -22 q 184 116 244 50 q 91 276 123 182 q 59 490 59 371 q 92 702 59 608 q 184 863 124 797 q 330 965 245 929 q 522 1000 416 1000 q 682 975 608 1000 q 812 902 756 949 q 905 791 869 856 q 951 648 941 726 l 749 648 q 719 722 740 689 q 668 778 698 754 q 602 813 639 801 q 522 826 564 826 q 417 803 464 826 q 337 735 370 779 q 287 630 304 692 q 269 490 269 568 q 286 349 269 412 q 337 243 304 287 q 417 176 370 199 q 523 153 465 153 q 669 197 610 153 q 750 320 729 241 l 951 320 q 904 178 940 241 q 812 71 868 115 q 683 2 757 26 q 522 -22 610 -22 z "},"Т":{"ha":867,"x_min":39,"x_max":817,"o":"m 326 0 l 326 810 l 39 810 l 39 979 l 817 979 l 817 810 l 530 810 l 530 0 l 326 0 z "},"У":{"ha":906,"x_min":26,"x_max":884,"o":"m 237 -9 q 181 -5 205 -9 q 153 1 157 -1 l 153 168 q 172 164 158 167 q 212 162 186 162 q 291 177 257 162 q 351 233 325 193 l 26 979 l 243 979 l 458 435 l 463 435 l 668 979 l 884 979 l 584 280 q 518 151 552 205 q 444 61 485 97 q 353 8 404 26 q 237 -9 302 -9 z "},"Ф":{"ha":1208,"x_min":53,"x_max":1155,"o":"m 506 734 q 404 713 450 731 q 326 664 358 695 q 276 589 294 633 q 258 492 258 545 q 276 393 258 437 q 326 318 294 349 q 404 269 358 287 q 506 249 450 251 l 506 734 m 949 491 q 932 589 949 545 q 882 664 914 633 q 804 713 850 696 q 703 734 758 731 l 703 249 q 804 269 758 252 q 882 318 850 287 q 932 393 914 349 q 949 491 949 437 m 503 84 q 318 116 401 87 q 176 198 235 145 q 85 324 117 250 q 53 492 53 398 q 85 658 53 584 q 176 784 117 732 q 318 865 235 836 q 503 898 401 895 l 503 999 l 705 999 l 705 898 q 889 866 806 895 q 1031 785 972 837 q 1123 658 1090 732 q 1155 491 1155 584 q 1123 324 1155 398 q 1031 198 1090 250 q 889 117 972 146 q 705 84 806 87 l 705 -20 l 503 -20 l 503 84 z "},"Х":{"ha":966,"x_min":36,"x_max":930,"o":"m 347 490 l 347 496 l 38 979 l 279 979 l 486 626 l 492 626 l 701 979 l 930 979 l 610 492 l 610 487 l 926 0 l 692 0 l 478 342 l 473 342 l 257 0 l 36 0 l 347 490 z "},"Ц":{"ha":1085,"x_min":96,"x_max":1058,"o":"m 873 -193 l 873 0 l 96 0 l 96 979 l 300 979 l 300 169 l 731 169 l 731 979 l 936 979 l 936 169 l 1058 169 l 1058 -193 l 873 -193 z "},"Ч":{"ha":992,"x_min":83,"x_max":897,"o":"m 692 0 l 692 421 l 686 421 q 579 359 641 380 q 444 338 517 338 q 296 363 363 338 q 182 437 230 389 q 109 551 135 484 q 83 701 83 618 l 83 979 l 288 979 l 288 720 q 301 633 288 671 q 340 568 315 595 q 401 528 365 542 q 484 513 437 513 q 611 543 556 513 q 692 626 666 573 l 692 979 l 897 979 l 897 0 l 692 0 z "},"Ш":{"ha":1362,"x_min":96,"x_max":1266,"o":"m 96 979 l 300 979 l 300 169 l 578 169 l 578 979 l 783 979 l 783 169 l 1061 169 l 1061 979 l 1266 979 l 1266 0 l 96 0 l 96 979 z "},"Щ":{"ha":1415,"x_min":96,"x_max":1388,"o":"m 1203 -193 l 1203 0 l 96 0 l 96 979 l 300 979 l 300 169 l 578 169 l 578 979 l 783 979 l 783 169 l 1061 169 l 1061 979 l 1266 979 l 1266 169 l 1388 169 l 1388 -193 l 1203 -193 z "},"Ъ":{"ha":1071,"x_min":54,"x_max":1025,"o":"m 281 0 l 281 810 l 54 810 l 54 979 l 486 979 l 486 650 l 676 650 q 818 627 753 650 q 928 561 882 604 q 1000 458 975 518 q 1025 326 1025 399 q 1001 192 1025 252 q 931 90 976 132 q 824 23 886 47 q 686 0 762 0 l 281 0 m 632 163 q 768 205 720 163 q 816 326 816 246 q 768 447 816 406 q 631 489 720 489 l 486 489 l 486 163 l 632 163 z "},"Ы":{"ha":1247,"x_min":96,"x_max":1144,"o":"m 939 0 l 939 979 l 1144 979 l 1144 0 l 939 0 m 96 979 l 300 979 l 300 650 l 490 650 q 632 627 568 650 q 742 561 696 604 q 814 458 789 518 q 840 326 840 398 q 815 192 840 252 q 745 90 790 132 q 638 23 701 47 q 500 0 576 0 l 96 0 l 96 979 m 446 163 q 582 205 534 163 q 630 326 630 246 q 582 447 630 406 q 446 489 534 489 l 300 489 l 300 163 l 446 163 z "},"Ь":{"ha":885,"x_min":96,"x_max":840,"o":"m 96 979 l 300 979 l 300 650 l 490 650 q 632 627 568 650 q 742 561 696 604 q 814 458 789 518 q 840 326 840 398 q 815 192 840 252 q 745 90 790 132 q 638 23 701 47 q 500 0 576 0 l 96 0 l 96 979 m 446 163 q 582 205 534 163 q 630 326 630 246 q 582 447 630 406 q 446 489 534 489 l 300 489 l 300 163 l 446 163 z "},"Э":{"ha":1003,"x_min":52,"x_max":944,"o":"m 485 -22 q 323 2 397 -22 q 193 71 249 26 q 100 178 136 115 q 52 320 64 241 l 253 320 q 285 250 264 281 q 336 197 306 219 q 403 164 366 176 q 484 153 441 153 q 578 171 535 153 q 654 223 622 189 q 707 307 687 258 q 732 417 728 355 l 346 417 l 346 576 l 730 576 q 704 681 724 634 q 651 759 683 727 q 577 809 619 791 q 485 826 534 826 q 404 813 442 826 q 336 778 366 801 q 284 722 306 754 q 254 648 263 689 l 52 648 q 98 791 62 726 q 192 902 135 856 q 324 975 250 949 q 485 1000 399 1000 q 676 965 591 1000 q 820 863 761 929 q 912 702 880 797 q 944 490 944 608 q 912 276 944 371 q 821 116 880 182 q 676 14 761 50 q 485 -22 591 -22 z "},"Ю":{"ha":1426,"x_min":96,"x_max":1367,"o":"m 903 -25 q 725 5 805 -25 q 585 92 644 35 q 490 230 526 149 q 444 412 454 311 l 300 412 l 300 0 l 96 0 l 96 979 l 300 979 l 300 581 l 445 581 q 494 758 457 680 q 591 891 532 837 q 729 975 650 945 q 903 1004 808 1004 q 1096 968 1010 1004 q 1242 865 1181 932 q 1334 704 1302 799 q 1367 490 1367 608 q 1334 276 1367 371 q 1242 114 1302 180 q 1096 11 1182 47 q 903 -25 1010 -25 m 903 830 q 797 806 844 830 q 717 738 750 782 q 665 631 684 694 q 647 490 647 568 q 665 349 647 412 q 716 241 683 286 q 797 173 749 197 q 903 149 844 149 q 1008 173 961 149 q 1088 241 1055 197 q 1140 349 1122 286 q 1158 490 1158 412 q 1140 631 1158 568 q 1088 738 1122 694 q 1008 806 1055 782 q 903 830 961 830 z "},"Я":{"ha":936,"x_min":37,"x_max":840,"o":"m 637 818 l 468 818 q 395 807 427 818 q 339 776 362 796 q 305 727 317 756 q 293 662 293 699 q 339 547 293 588 q 468 506 385 506 l 637 506 l 637 818 m 264 0 l 37 0 l 295 382 q 209 423 248 397 q 142 485 170 449 q 99 566 114 522 q 83 663 83 611 q 108 791 83 733 q 179 891 133 850 q 292 956 226 933 q 439 979 357 979 l 840 979 l 840 0 l 637 0 l 637 353 l 496 353 l 264 0 z "},"Ђ":{"ha":1182,"x_min":43,"x_max":1114,"o":"m 769 -45 q 703 -41 729 -45 q 670 -34 676 -37 l 670 127 q 697 122 676 125 q 750 119 718 119 q 866 161 824 119 q 909 279 909 203 q 897 346 909 316 q 862 397 884 376 q 807 429 840 418 q 735 441 775 441 q 671 433 702 441 q 613 410 640 425 q 567 375 587 395 q 534 330 547 355 l 534 0 l 330 0 l 330 810 l 43 810 l 43 979 l 821 979 l 821 810 l 534 810 l 534 532 l 540 532 q 642 594 583 572 q 776 615 701 615 q 920 591 857 615 q 1026 523 983 566 q 1092 420 1069 479 q 1114 291 1114 361 q 1090 154 1114 216 q 1022 47 1067 92 q 914 -21 978 3 q 769 -45 850 -45 z "},"Ѓ":{"ha":769,"x_min":96,"x_max":726,"o":"m 338 1043 l 496 1253 l 681 1253 l 493 1043 l 338 1043 m 96 0 l 96 979 l 726 979 l 726 809 l 301 809 l 301 0 l 96 0 z "},"Є":{"ha":1003,"x_min":59,"x_max":951,"o":"m 951 320 q 904 178 940 241 q 812 71 868 115 q 683 2 757 26 q 522 -22 610 -22 q 330 14 415 -22 q 184 116 244 50 q 91 276 123 182 q 59 490 59 371 q 92 702 59 608 q 184 863 124 797 q 330 965 245 929 q 522 1000 416 1000 q 682 975 608 1000 q 812 902 756 949 q 905 791 869 856 q 951 648 941 726 l 749 648 q 719 722 740 689 q 668 778 698 754 q 602 813 639 801 q 522 826 564 826 q 430 809 473 826 q 354 759 387 791 q 300 681 321 727 q 273 576 279 634 l 657 576 l 657 417 l 272 417 q 297 307 277 355 q 350 223 317 258 q 427 171 383 189 q 523 153 471 153 q 669 197 610 153 q 750 320 729 241 l 951 320 l 951 320 z "},"Ѕ":{"ha":891,"x_min":52,"x_max":840,"o":"m 249 279 q 269 224 252 248 q 313 182 286 199 q 375 155 340 164 q 451 145 410 145 q 526 154 492 145 q 584 180 559 163 q 622 219 608 197 q 635 269 635 242 q 596 346 635 317 q 470 395 558 375 l 342 422 q 73 696 73 480 q 101 819 73 764 q 179 913 129 874 q 297 974 229 953 q 448 996 366 996 q 602 975 533 996 q 719 915 671 954 q 794 822 768 876 q 822 701 821 768 l 630 701 q 613 757 627 732 q 575 799 599 781 q 519 825 551 816 q 448 834 487 834 q 379 825 410 834 q 326 801 348 817 q 292 763 304 785 q 279 713 279 741 q 317 640 279 668 q 439 593 355 612 l 558 568 q 685 529 631 553 q 772 471 738 505 q 823 393 807 437 q 840 293 840 349 q 812 164 840 222 q 732 67 784 107 q 607 5 681 26 q 443 -17 534 -17 q 283 3 355 -17 q 161 62 212 24 q 82 155 111 100 q 52 279 54 210 l 249 279 z "},"І":{"ha":426,"x_min":88,"x_max":293,"o":"m 88 0 l 88 979 l 293 979 l 293 0 l 88 0 z "},"Ї":{"ha":426,"x_min":-43,"x_max":425,"o":"m 88 0 l 88 979 l 293 979 l 293 0 l 88 0 m 49 1059 q 13 1066 29 1059 q -16 1085 -4 1073 q -36 1113 -28 1097 q -43 1147 -43 1129 q -36 1182 -43 1166 q -16 1210 -28 1198 q 13 1229 -4 1222 q 49 1236 29 1236 q 85 1229 68 1236 q 114 1210 102 1222 q 133 1182 126 1198 q 140 1147 140 1166 q 133 1113 140 1129 q 114 1085 126 1097 q 85 1066 102 1073 q 49 1059 68 1059 m 333 1059 q 297 1066 313 1059 q 268 1085 280 1073 q 249 1113 256 1097 q 241 1147 241 1129 q 249 1182 241 1166 q 268 1210 256 1198 q 297 1229 280 1222 q 333 1236 313 1236 q 369 1229 353 1236 q 398 1210 386 1222 q 417 1182 410 1198 q 425 1147 425 1166 q 417 1113 425 1129 q 398 1085 410 1097 q 369 1066 386 1073 q 333 1059 353 1059 z "},"Ј":{"ha":789,"x_min":28,"x_max":693,"o":"m 227 288 q 237 234 227 258 q 263 193 246 210 q 304 166 280 176 q 357 157 328 157 q 455 195 421 157 q 488 308 488 234 l 488 979 l 693 979 l 693 307 q 670 168 693 229 q 605 65 648 106 q 499 1 562 23 q 359 -20 437 -20 q 222 2 283 -20 q 118 64 161 24 q 52 161 75 104 q 28 288 28 218 l 227 288 z "},"Љ":{"ha":1510,"x_min":41,"x_max":1457,"o":"m 404 387 q 382 223 399 296 q 331 98 365 150 q 243 19 296 47 q 115 -9 191 -9 q 70 -6 90 -9 q 41 1 50 -3 l 41 180 q 60 176 48 178 q 86 174 73 174 q 148 192 123 174 q 186 239 172 209 q 207 311 200 269 q 216 400 213 352 l 245 979 l 918 979 l 918 650 l 1107 650 q 1249 627 1185 650 q 1359 561 1313 604 q 1431 458 1406 518 q 1457 326 1457 399 q 1432 192 1457 252 q 1363 90 1407 132 q 1256 23 1318 47 q 1118 0 1194 0 l 713 0 l 713 810 l 428 810 l 404 387 m 1064 163 q 1200 205 1152 163 q 1248 326 1248 246 q 1199 447 1248 406 q 1063 489 1151 489 l 918 489 l 918 163 l 1064 163 z "},"Њ":{"ha":1510,"x_min":96,"x_max":1465,"o":"m 1082 163 q 1212 199 1166 163 q 1258 300 1258 234 q 1212 395 1258 361 q 1081 429 1166 429 l 926 429 l 926 163 l 1082 163 m 300 0 l 96 0 l 96 979 l 300 979 l 300 588 l 721 588 l 721 979 l 926 979 l 926 588 l 1116 588 q 1258 567 1194 588 q 1368 508 1322 546 q 1439 417 1414 470 q 1465 298 1465 363 q 1440 176 1465 231 q 1371 82 1416 121 q 1264 22 1326 43 q 1126 0 1202 0 l 721 0 l 721 422 l 300 422 l 300 0 z "},"Ћ":{"ha":1189,"x_min":43,"x_max":1104,"o":"m 728 441 q 665 432 695 441 q 610 409 635 424 q 566 374 585 394 q 534 330 547 353 l 534 0 l 330 0 l 330 810 l 43 810 l 43 979 l 821 979 l 821 810 l 534 810 l 534 533 l 540 533 q 639 594 581 572 q 770 615 697 615 q 913 590 850 615 q 1018 518 975 564 q 1082 406 1060 471 q 1104 262 1104 341 l 1104 0 l 899 0 l 899 250 q 855 391 899 341 q 728 441 810 441 z "},"Ќ":{"ha":934,"x_min":96,"x_max":930,"o":"m 547 1043 l 393 1043 l 550 1253 l 735 1253 l 547 1043 m 930 0 l 675 0 l 306 430 l 300 430 l 300 0 l 96 0 l 96 979 l 300 979 l 300 564 l 306 564 l 667 979 l 899 979 l 493 515 l 930 0 z "}}}
